<?xml version="1.0" encoding="UTF-8" standalone="no"?>
<!DOCTYPE svg PUBLIC "-//W3C//DTD SVG 1.1//EN"
 "http://www.w3.org/Graphics/SVG/1.1/DTD/svg11.dtd">
<!-- Generated by graphviz version 2.50.0 (0)
 -->
<!-- Title: model Pages: 1 -->
<svg width="646pt" height="654pt"
 viewBox="0.00 0.00 646.00 654.00" xmlns="http://www.w3.org/2000/svg" xmlns:xlink="http://www.w3.org/1999/xlink">
<g id="graph0" class="graph" transform="scale(1 1) rotate(0) translate(4 650)">
<title>model</title>
<polygon fill="white" stroke="transparent" points="-4,4 -4,-650 642,-650 642,4 -4,4"/>
<!-- 0 -->
<g id="node1" class="node">
<title>0</title>
<polygon fill="lightyellow" stroke="transparent" points="378,-646 260,-646 260,-614 378,-614 378,-646"/>
<polygon fill="none" stroke="black" points="260,-614 260,-646 330,-646 330,-614 260,-614"/>
<text text-anchor="start" x="265" y="-633" font-family="Linux libertine" font-size="10.00">input&#45;tensor</text>
<text text-anchor="start" x="276.5" y="-622" font-family="Linux libertine" font-size="10.00">depth:0</text>
<polygon fill="none" stroke="black" points="330,-614 330,-646 378,-646 378,-614 330,-614"/>
<text text-anchor="start" x="335" y="-627.5" font-family="Linux libertine" font-size="10.00">(1, 512)</text>
</g>
<!-- 1 -->
<g id="node2" class="node">
<title>1</title>
<polygon fill="#c1ffc1" stroke="transparent" points="146,-578 0,-578 0,-536 146,-536 146,-578"/>
<polygon fill="none" stroke="black" points="0,-536 0,-578 47,-578 47,-536 0,-536"/>
<text text-anchor="start" x="8" y="-560" font-family="Linux libertine" font-size="10.00">Linear</text>
<text text-anchor="start" x="5" y="-549" font-family="Linux libertine" font-size="10.00">depth:2</text>
<polygon fill="none" stroke="black" points="47,-557 47,-578 95,-578 95,-557 47,-557"/>
<text text-anchor="start" x="57" y="-565" font-family="Linux libertine" font-size="10.00">input:</text>
<polygon fill="none" stroke="black" points="95,-557 95,-578 146,-578 146,-557 95,-557"/>
<text text-anchor="start" x="100" y="-565" font-family="Linux libertine" font-size="10.00">(1, 512) </text>
<polygon fill="none" stroke="black" points="47,-536 47,-557 95,-557 95,-536 47,-536"/>
<text text-anchor="start" x="52" y="-544" font-family="Linux libertine" font-size="10.00">output: </text>
<polygon fill="none" stroke="black" points="95,-536 95,-557 146,-557 146,-536 95,-536"/>
<text text-anchor="start" x="100" y="-544" font-family="Linux libertine" font-size="10.00">(1, 512) </text>
</g>
<!-- 0&#45;&gt;1 -->
<g id="edge1" class="edge">
<title>0&#45;&gt;1</title>
<path fill="none" stroke="black" d="M266.83,-613.94C233.56,-604.34 189.79,-591.71 152.27,-580.88"/>
<polygon fill="black" stroke="black" points="152.95,-577.43 142.37,-578.02 151.01,-584.16 152.95,-577.43"/>
</g>
<!-- 9 -->
<g id="node10" class="node">
<title>9</title>
<polygon fill="#c1ffc1" stroke="transparent" points="310,-578 164,-578 164,-536 310,-536 310,-578"/>
<polygon fill="none" stroke="black" points="164,-536 164,-578 211,-578 211,-536 164,-536"/>
<text text-anchor="start" x="172" y="-560" font-family="Linux libertine" font-size="10.00">Linear</text>
<text text-anchor="start" x="169" y="-549" font-family="Linux libertine" font-size="10.00">depth:2</text>
<polygon fill="none" stroke="black" points="211,-557 211,-578 259,-578 259,-557 211,-557"/>
<text text-anchor="start" x="221" y="-565" font-family="Linux libertine" font-size="10.00">input:</text>
<polygon fill="none" stroke="black" points="259,-557 259,-578 310,-578 310,-557 259,-557"/>
<text text-anchor="start" x="264" y="-565" font-family="Linux libertine" font-size="10.00">(1, 512) </text>
<polygon fill="none" stroke="black" points="211,-536 211,-557 259,-557 259,-536 211,-536"/>
<text text-anchor="start" x="216" y="-544" font-family="Linux libertine" font-size="10.00">output: </text>
<polygon fill="none" stroke="black" points="259,-536 259,-557 310,-557 310,-536 259,-536"/>
<text text-anchor="start" x="264" y="-544" font-family="Linux libertine" font-size="10.00">(1, 256) </text>
</g>
<!-- 0&#45;&gt;9 -->
<g id="edge9" class="edge">
<title>0&#45;&gt;9</title>
<path fill="none" stroke="black" d="M301.61,-613.94C291.83,-605.48 279.33,-594.66 267.94,-584.79"/>
<polygon fill="black" stroke="black" points="270.13,-582.06 260.28,-578.16 265.55,-587.35 270.13,-582.06"/>
</g>
<!-- 17 -->
<g id="node18" class="node">
<title>17</title>
<polygon fill="#c1ffc1" stroke="transparent" points="474,-578 328,-578 328,-536 474,-536 474,-578"/>
<polygon fill="none" stroke="black" points="328,-536 328,-578 375,-578 375,-536 328,-536"/>
<text text-anchor="start" x="336" y="-560" font-family="Linux libertine" font-size="10.00">Linear</text>
<text text-anchor="start" x="333" y="-549" font-family="Linux libertine" font-size="10.00">depth:2</text>
<polygon fill="none" stroke="black" points="375,-557 375,-578 423,-578 423,-557 375,-557"/>
<text text-anchor="start" x="385" y="-565" font-family="Linux libertine" font-size="10.00">input:</text>
<polygon fill="none" stroke="black" points="423,-557 423,-578 474,-578 474,-557 423,-557"/>
<text text-anchor="start" x="428" y="-565" font-family="Linux libertine" font-size="10.00">(1, 512) </text>
<polygon fill="none" stroke="black" points="375,-536 375,-557 423,-557 423,-536 375,-536"/>
<text text-anchor="start" x="380" y="-544" font-family="Linux libertine" font-size="10.00">output: </text>
<polygon fill="none" stroke="black" points="423,-536 423,-557 474,-557 474,-536 423,-536"/>
<text text-anchor="start" x="428" y="-544" font-family="Linux libertine" font-size="10.00">(1, 256) </text>
</g>
<!-- 0&#45;&gt;17 -->
<g id="edge17" class="edge">
<title>0&#45;&gt;17</title>
<path fill="none" stroke="black" d="M336.39,-613.94C346.17,-605.48 358.67,-594.66 370.06,-584.79"/>
<polygon fill="black" stroke="black" points="372.45,-587.35 377.72,-578.16 367.87,-582.06 372.45,-587.35"/>
</g>
<!-- 25 -->
<g id="node26" class="node">
<title>25</title>
<polygon fill="#c1ffc1" stroke="transparent" points="638,-578 492,-578 492,-536 638,-536 638,-578"/>
<polygon fill="none" stroke="black" points="492,-536 492,-578 539,-578 539,-536 492,-536"/>
<text text-anchor="start" x="500" y="-560" font-family="Linux libertine" font-size="10.00">Linear</text>
<text text-anchor="start" x="497" y="-549" font-family="Linux libertine" font-size="10.00">depth:2</text>
<polygon fill="none" stroke="black" points="539,-557 539,-578 587,-578 587,-557 539,-557"/>
<text text-anchor="start" x="549" y="-565" font-family="Linux libertine" font-size="10.00">input:</text>
<polygon fill="none" stroke="black" points="587,-557 587,-578 638,-578 638,-557 587,-557"/>
<text text-anchor="start" x="592" y="-565" font-family="Linux libertine" font-size="10.00">(1, 512) </text>
<polygon fill="none" stroke="black" points="539,-536 539,-557 587,-557 587,-536 539,-536"/>
<text text-anchor="start" x="544" y="-544" font-family="Linux libertine" font-size="10.00">output: </text>
<polygon fill="none" stroke="black" points="587,-536 587,-557 638,-557 638,-536 587,-536"/>
<text text-anchor="start" x="592" y="-544" font-family="Linux libertine" font-size="10.00">(1, 512) </text>
</g>
<!-- 0&#45;&gt;25 -->
<g id="edge25" class="edge">
<title>0&#45;&gt;25</title>
<path fill="none" stroke="black" d="M371.17,-613.94C404.44,-604.34 448.21,-591.71 485.73,-580.88"/>
<polygon fill="black" stroke="black" points="486.99,-584.16 495.63,-578.02 485.05,-577.43 486.99,-584.16"/>
</g>
<!-- 2 -->
<g id="node3" class="node">
<title>2</title>
<polygon fill="#c1ffc1" stroke="transparent" points="146,-500 0,-500 0,-458 146,-458 146,-500"/>
<polygon fill="none" stroke="black" points="0,-458 0,-500 47,-500 47,-458 0,-458"/>
<text text-anchor="start" x="10.5" y="-482" font-family="Linux libertine" font-size="10.00">ReLU</text>
<text text-anchor="start" x="5" y="-471" font-family="Linux libertine" font-size="10.00">depth:2</text>
<polygon fill="none" stroke="black" points="47,-479 47,-500 95,-500 95,-479 47,-479"/>
<text text-anchor="start" x="57" y="-487" font-family="Linux libertine" font-size="10.00">input:</text>
<polygon fill="none" stroke="black" points="95,-479 95,-500 146,-500 146,-479 95,-479"/>
<text text-anchor="start" x="100" y="-487" font-family="Linux libertine" font-size="10.00">(1, 512) </text>
<polygon fill="none" stroke="black" points="47,-458 47,-479 95,-479 95,-458 47,-458"/>
<text text-anchor="start" x="52" y="-466" font-family="Linux libertine" font-size="10.00">output: </text>
<polygon fill="none" stroke="black" points="95,-458 95,-479 146,-479 146,-458 95,-458"/>
<text text-anchor="start" x="100" y="-466" font-family="Linux libertine" font-size="10.00">(1, 512) </text>
</g>
<!-- 1&#45;&gt;2 -->
<g id="edge2" class="edge">
<title>1&#45;&gt;2</title>
<path fill="none" stroke="black" d="M73,-535.63C73,-527.82 73,-518.73 73,-510.18"/>
<polygon fill="black" stroke="black" points="76.5,-510.16 73,-500.16 69.5,-510.16 76.5,-510.16"/>
</g>
<!-- 3 -->
<g id="node4" class="node">
<title>3</title>
<polygon fill="#c1ffc1" stroke="transparent" points="146,-422 0,-422 0,-380 146,-380 146,-422"/>
<polygon fill="none" stroke="black" points="0,-380 0,-422 47,-422 47,-380 0,-380"/>
<text text-anchor="start" x="8" y="-404" font-family="Linux libertine" font-size="10.00">Linear</text>
<text text-anchor="start" x="5" y="-393" font-family="Linux libertine" font-size="10.00">depth:2</text>
<polygon fill="none" stroke="black" points="47,-401 47,-422 95,-422 95,-401 47,-401"/>
<text text-anchor="start" x="57" y="-409" font-family="Linux libertine" font-size="10.00">input:</text>
<polygon fill="none" stroke="black" points="95,-401 95,-422 146,-422 146,-401 95,-401"/>
<text text-anchor="start" x="100" y="-409" font-family="Linux libertine" font-size="10.00">(1, 512) </text>
<polygon fill="none" stroke="black" points="47,-380 47,-401 95,-401 95,-380 47,-380"/>
<text text-anchor="start" x="52" y="-388" font-family="Linux libertine" font-size="10.00">output: </text>
<polygon fill="none" stroke="black" points="95,-380 95,-401 146,-401 146,-380 95,-380"/>
<text text-anchor="start" x="100" y="-388" font-family="Linux libertine" font-size="10.00">(1, 256) </text>
</g>
<!-- 2&#45;&gt;3 -->
<g id="edge3" class="edge">
<title>2&#45;&gt;3</title>
<path fill="none" stroke="black" d="M73,-457.63C73,-449.82 73,-440.73 73,-432.18"/>
<polygon fill="black" stroke="black" points="76.5,-432.16 73,-422.16 69.5,-432.16 76.5,-432.16"/>
</g>
<!-- 4 -->
<g id="node5" class="node">
<title>4</title>
<polygon fill="#c1ffc1" stroke="transparent" points="146,-344 0,-344 0,-302 146,-302 146,-344"/>
<polygon fill="none" stroke="black" points="0,-302 0,-344 47,-344 47,-302 0,-302"/>
<text text-anchor="start" x="10.5" y="-326" font-family="Linux libertine" font-size="10.00">ReLU</text>
<text text-anchor="start" x="5" y="-315" font-family="Linux libertine" font-size="10.00">depth:2</text>
<polygon fill="none" stroke="black" points="47,-323 47,-344 95,-344 95,-323 47,-323"/>
<text text-anchor="start" x="57" y="-331" font-family="Linux libertine" font-size="10.00">input:</text>
<polygon fill="none" stroke="black" points="95,-323 95,-344 146,-344 146,-323 95,-323"/>
<text text-anchor="start" x="100" y="-331" font-family="Linux libertine" font-size="10.00">(1, 256) </text>
<polygon fill="none" stroke="black" points="47,-302 47,-323 95,-323 95,-302 47,-302"/>
<text text-anchor="start" x="52" y="-310" font-family="Linux libertine" font-size="10.00">output: </text>
<polygon fill="none" stroke="black" points="95,-302 95,-323 146,-323 146,-302 95,-302"/>
<text text-anchor="start" x="100" y="-310" font-family="Linux libertine" font-size="10.00">(1, 256) </text>
</g>
<!-- 3&#45;&gt;4 -->
<g id="edge4" class="edge">
<title>3&#45;&gt;4</title>
<path fill="none" stroke="black" d="M73,-379.63C73,-371.82 73,-362.73 73,-354.18"/>
<polygon fill="black" stroke="black" points="76.5,-354.16 73,-344.16 69.5,-354.16 76.5,-354.16"/>
</g>
<!-- 5 -->
<g id="node6" class="node">
<title>5</title>
<polygon fill="#c1ffc1" stroke="transparent" points="146,-266 0,-266 0,-224 146,-224 146,-266"/>
<polygon fill="none" stroke="black" points="0,-224 0,-266 47,-266 47,-224 0,-224"/>
<text text-anchor="start" x="8" y="-248" font-family="Linux libertine" font-size="10.00">Linear</text>
<text text-anchor="start" x="5" y="-237" font-family="Linux libertine" font-size="10.00">depth:2</text>
<polygon fill="none" stroke="black" points="47,-245 47,-266 95,-266 95,-245 47,-245"/>
<text text-anchor="start" x="57" y="-253" font-family="Linux libertine" font-size="10.00">input:</text>
<polygon fill="none" stroke="black" points="95,-245 95,-266 146,-266 146,-245 95,-245"/>
<text text-anchor="start" x="100" y="-253" font-family="Linux libertine" font-size="10.00">(1, 256) </text>
<polygon fill="none" stroke="black" points="47,-224 47,-245 95,-245 95,-224 47,-224"/>
<text text-anchor="start" x="52" y="-232" font-family="Linux libertine" font-size="10.00">output: </text>
<polygon fill="none" stroke="black" points="95,-224 95,-245 146,-245 146,-224 95,-224"/>
<text text-anchor="start" x="100" y="-232" font-family="Linux libertine" font-size="10.00">(1, 256) </text>
</g>
<!-- 4&#45;&gt;5 -->
<g id="edge5" class="edge">
<title>4&#45;&gt;5</title>
<path fill="none" stroke="black" d="M73,-301.63C73,-293.82 73,-284.73 73,-276.18"/>
<polygon fill="black" stroke="black" points="76.5,-276.16 73,-266.16 69.5,-276.16 76.5,-276.16"/>
</g>
<!-- 6 -->
<g id="node7" class="node">
<title>6</title>
<polygon fill="#c1ffc1" stroke="transparent" points="146,-188 0,-188 0,-146 146,-146 146,-188"/>
<polygon fill="none" stroke="black" points="0,-146 0,-188 47,-188 47,-146 0,-146"/>
<text text-anchor="start" x="10.5" y="-170" font-family="Linux libertine" font-size="10.00">ReLU</text>
<text text-anchor="start" x="5" y="-159" font-family="Linux libertine" font-size="10.00">depth:2</text>
<polygon fill="none" stroke="black" points="47,-167 47,-188 95,-188 95,-167 47,-167"/>
<text text-anchor="start" x="57" y="-175" font-family="Linux libertine" font-size="10.00">input:</text>
<polygon fill="none" stroke="black" points="95,-167 95,-188 146,-188 146,-167 95,-167"/>
<text text-anchor="start" x="100" y="-175" font-family="Linux libertine" font-size="10.00">(1, 256) </text>
<polygon fill="none" stroke="black" points="47,-146 47,-167 95,-167 95,-146 47,-146"/>
<text text-anchor="start" x="52" y="-154" font-family="Linux libertine" font-size="10.00">output: </text>
<polygon fill="none" stroke="black" points="95,-146 95,-167 146,-167 146,-146 95,-146"/>
<text text-anchor="start" x="100" y="-154" font-family="Linux libertine" font-size="10.00">(1, 256) </text>
</g>
<!-- 5&#45;&gt;6 -->
<g id="edge6" class="edge">
<title>5&#45;&gt;6</title>
<path fill="none" stroke="black" d="M73,-223.63C73,-215.82 73,-206.73 73,-198.18"/>
<polygon fill="black" stroke="black" points="76.5,-198.16 73,-188.16 69.5,-198.16 76.5,-198.16"/>
</g>
<!-- 7 -->
<g id="node8" class="node">
<title>7</title>
<polygon fill="#c1ffc1" stroke="transparent" points="146,-110 0,-110 0,-68 146,-68 146,-110"/>
<polygon fill="none" stroke="black" points="0,-68 0,-110 47,-110 47,-68 0,-68"/>
<text text-anchor="start" x="8" y="-92" font-family="Linux libertine" font-size="10.00">Linear</text>
<text text-anchor="start" x="5" y="-81" font-family="Linux libertine" font-size="10.00">depth:2</text>
<polygon fill="none" stroke="black" points="47,-89 47,-110 95,-110 95,-89 47,-89"/>
<text text-anchor="start" x="57" y="-97" font-family="Linux libertine" font-size="10.00">input:</text>
<polygon fill="none" stroke="black" points="95,-89 95,-110 146,-110 146,-89 95,-89"/>
<text text-anchor="start" x="100" y="-97" font-family="Linux libertine" font-size="10.00">(1, 256) </text>
<polygon fill="none" stroke="black" points="47,-68 47,-89 95,-89 95,-68 47,-68"/>
<text text-anchor="start" x="52" y="-76" font-family="Linux libertine" font-size="10.00">output: </text>
<polygon fill="none" stroke="black" points="95,-68 95,-89 146,-89 146,-68 95,-68"/>
<text text-anchor="start" x="103" y="-76" font-family="Linux libertine" font-size="10.00">(1, 65) </text>
</g>
<!-- 6&#45;&gt;7 -->
<g id="edge7" class="edge">
<title>6&#45;&gt;7</title>
<path fill="none" stroke="black" d="M73,-145.63C73,-137.82 73,-128.73 73,-120.18"/>
<polygon fill="black" stroke="black" points="76.5,-120.16 73,-110.16 69.5,-120.16 76.5,-120.16"/>
</g>
<!-- 8 -->
<g id="node9" class="node">
<title>8</title>
<polygon fill="lightyellow" stroke="transparent" points="132.5,-32 13.5,-32 13.5,0 132.5,0 132.5,-32"/>
<polygon fill="none" stroke="black" points="14,0 14,-32 91,-32 91,0 14,0"/>
<text text-anchor="start" x="19" y="-19" font-family="Linux libertine" font-size="10.00">output&#45;tensor</text>
<text text-anchor="start" x="34" y="-8" font-family="Linux libertine" font-size="10.00">depth:0</text>
<polygon fill="none" stroke="black" points="91,0 91,-32 133,-32 133,0 91,0"/>
<text text-anchor="start" x="96" y="-13.5" font-family="Linux libertine" font-size="10.00">(1, 65)</text>
</g>
<!-- 7&#45;&gt;8 -->
<g id="edge8" class="edge">
<title>7&#45;&gt;8</title>
<path fill="none" stroke="black" d="M73,-67.84C73,-59.89 73,-50.66 73,-42.26"/>
<polygon fill="black" stroke="black" points="76.5,-42.24 73,-32.24 69.5,-42.24 76.5,-42.24"/>
</g>
<!-- 10 -->
<g id="node11" class="node">
<title>10</title>
<polygon fill="#c1ffc1" stroke="transparent" points="310,-500 164,-500 164,-458 310,-458 310,-500"/>
<polygon fill="none" stroke="black" points="164,-458 164,-500 211,-500 211,-458 164,-458"/>
<text text-anchor="start" x="174.5" y="-482" font-family="Linux libertine" font-size="10.00">ReLU</text>
<text text-anchor="start" x="169" y="-471" font-family="Linux libertine" font-size="10.00">depth:2</text>
<polygon fill="none" stroke="black" points="211,-479 211,-500 259,-500 259,-479 211,-479"/>
<text text-anchor="start" x="221" y="-487" font-family="Linux libertine" font-size="10.00">input:</text>
<polygon fill="none" stroke="black" points="259,-479 259,-500 310,-500 310,-479 259,-479"/>
<text text-anchor="start" x="264" y="-487" font-family="Linux libertine" font-size="10.00">(1, 256) </text>
<polygon fill="none" stroke="black" points="211,-458 211,-479 259,-479 259,-458 211,-458"/>
<text text-anchor="start" x="216" y="-466" font-family="Linux libertine" font-size="10.00">output: </text>
<polygon fill="none" stroke="black" points="259,-458 259,-479 310,-479 310,-458 259,-458"/>
<text text-anchor="start" x="264" y="-466" font-family="Linux libertine" font-size="10.00">(1, 256) </text>
</g>
<!-- 9&#45;&gt;10 -->
<g id="edge10" class="edge">
<title>9&#45;&gt;10</title>
<path fill="none" stroke="black" d="M237,-535.63C237,-527.82 237,-518.73 237,-510.18"/>
<polygon fill="black" stroke="black" points="240.5,-510.16 237,-500.16 233.5,-510.16 240.5,-510.16"/>
</g>
<!-- 11 -->
<g id="node12" class="node">
<title>11</title>
<polygon fill="#c1ffc1" stroke="transparent" points="310,-422 164,-422 164,-380 310,-380 310,-422"/>
<polygon fill="none" stroke="black" points="164,-380 164,-422 211,-422 211,-380 164,-380"/>
<text text-anchor="start" x="172" y="-404" font-family="Linux libertine" font-size="10.00">Linear</text>
<text text-anchor="start" x="169" y="-393" font-family="Linux libertine" font-size="10.00">depth:2</text>
<polygon fill="none" stroke="black" points="211,-401 211,-422 259,-422 259,-401 211,-401"/>
<text text-anchor="start" x="221" y="-409" font-family="Linux libertine" font-size="10.00">input:</text>
<polygon fill="none" stroke="black" points="259,-401 259,-422 310,-422 310,-401 259,-401"/>
<text text-anchor="start" x="264" y="-409" font-family="Linux libertine" font-size="10.00">(1, 256) </text>
<polygon fill="none" stroke="black" points="211,-380 211,-401 259,-401 259,-380 211,-380"/>
<text text-anchor="start" x="216" y="-388" font-family="Linux libertine" font-size="10.00">output: </text>
<polygon fill="none" stroke="black" points="259,-380 259,-401 310,-401 310,-380 259,-380"/>
<text text-anchor="start" x="264" y="-388" font-family="Linux libertine" font-size="10.00">(1, 128) </text>
</g>
<!-- 10&#45;&gt;11 -->
<g id="edge11" class="edge">
<title>10&#45;&gt;11</title>
<path fill="none" stroke="black" d="M237,-457.63C237,-449.82 237,-440.73 237,-432.18"/>
<polygon fill="black" stroke="black" points="240.5,-432.16 237,-422.16 233.5,-432.16 240.5,-432.16"/>
</g>
<!-- 12 -->
<g id="node13" class="node">
<title>12</title>
<polygon fill="#c1ffc1" stroke="transparent" points="310,-344 164,-344 164,-302 310,-302 310,-344"/>
<polygon fill="none" stroke="black" points="164,-302 164,-344 211,-344 211,-302 164,-302"/>
<text text-anchor="start" x="174.5" y="-326" font-family="Linux libertine" font-size="10.00">ReLU</text>
<text text-anchor="start" x="169" y="-315" font-family="Linux libertine" font-size="10.00">depth:2</text>
<polygon fill="none" stroke="black" points="211,-323 211,-344 259,-344 259,-323 211,-323"/>
<text text-anchor="start" x="221" y="-331" font-family="Linux libertine" font-size="10.00">input:</text>
<polygon fill="none" stroke="black" points="259,-323 259,-344 310,-344 310,-323 259,-323"/>
<text text-anchor="start" x="264" y="-331" font-family="Linux libertine" font-size="10.00">(1, 128) </text>
<polygon fill="none" stroke="black" points="211,-302 211,-323 259,-323 259,-302 211,-302"/>
<text text-anchor="start" x="216" y="-310" font-family="Linux libertine" font-size="10.00">output: </text>
<polygon fill="none" stroke="black" points="259,-302 259,-323 310,-323 310,-302 259,-302"/>
<text text-anchor="start" x="264" y="-310" font-family="Linux libertine" font-size="10.00">(1, 128) </text>
</g>
<!-- 11&#45;&gt;12 -->
<g id="edge12" class="edge">
<title>11&#45;&gt;12</title>
<path fill="none" stroke="black" d="M237,-379.63C237,-371.82 237,-362.73 237,-354.18"/>
<polygon fill="black" stroke="black" points="240.5,-354.16 237,-344.16 233.5,-354.16 240.5,-354.16"/>
</g>
<!-- 13 -->
<g id="node14" class="node">
<title>13</title>
<polygon fill="#c1ffc1" stroke="transparent" points="310,-266 164,-266 164,-224 310,-224 310,-266"/>
<polygon fill="none" stroke="black" points="164,-224 164,-266 211,-266 211,-224 164,-224"/>
<text text-anchor="start" x="172" y="-248" font-family="Linux libertine" font-size="10.00">Linear</text>
<text text-anchor="start" x="169" y="-237" font-family="Linux libertine" font-size="10.00">depth:2</text>
<polygon fill="none" stroke="black" points="211,-245 211,-266 259,-266 259,-245 211,-245"/>
<text text-anchor="start" x="221" y="-253" font-family="Linux libertine" font-size="10.00">input:</text>
<polygon fill="none" stroke="black" points="259,-245 259,-266 310,-266 310,-245 259,-245"/>
<text text-anchor="start" x="264" y="-253" font-family="Linux libertine" font-size="10.00">(1, 128) </text>
<polygon fill="none" stroke="black" points="211,-224 211,-245 259,-245 259,-224 211,-224"/>
<text text-anchor="start" x="216" y="-232" font-family="Linux libertine" font-size="10.00">output: </text>
<polygon fill="none" stroke="black" points="259,-224 259,-245 310,-245 310,-224 259,-224"/>
<text text-anchor="start" x="267" y="-232" font-family="Linux libertine" font-size="10.00">(1, 64) </text>
</g>
<!-- 12&#45;&gt;13 -->
<g id="edge13" class="edge">
<title>12&#45;&gt;13</title>
<path fill="none" stroke="black" d="M237,-301.63C237,-293.82 237,-284.73 237,-276.18"/>
<polygon fill="black" stroke="black" points="240.5,-276.16 237,-266.16 233.5,-276.16 240.5,-276.16"/>
</g>
<!-- 14 -->
<g id="node15" class="node">
<title>14</title>
<polygon fill="#c1ffc1" stroke="transparent" points="307,-188 167,-188 167,-146 307,-146 307,-188"/>
<polygon fill="none" stroke="black" points="167,-146 167,-188 214,-188 214,-146 167,-146"/>
<text text-anchor="start" x="177.5" y="-170" font-family="Linux libertine" font-size="10.00">ReLU</text>
<text text-anchor="start" x="172" y="-159" font-family="Linux libertine" font-size="10.00">depth:2</text>
<polygon fill="none" stroke="black" points="214,-167 214,-188 262,-188 262,-167 214,-167"/>
<text text-anchor="start" x="224" y="-175" font-family="Linux libertine" font-size="10.00">input:</text>
<polygon fill="none" stroke="black" points="262,-167 262,-188 307,-188 307,-167 262,-167"/>
<text text-anchor="start" x="267" y="-175" font-family="Linux libertine" font-size="10.00">(1, 64) </text>
<polygon fill="none" stroke="black" points="214,-146 214,-167 262,-167 262,-146 214,-146"/>
<text text-anchor="start" x="219" y="-154" font-family="Linux libertine" font-size="10.00">output: </text>
<polygon fill="none" stroke="black" points="262,-146 262,-167 307,-167 307,-146 262,-146"/>
<text text-anchor="start" x="267" y="-154" font-family="Linux libertine" font-size="10.00">(1, 64) </text>
</g>
<!-- 13&#45;&gt;14 -->
<g id="edge14" class="edge">
<title>13&#45;&gt;14</title>
<path fill="none" stroke="black" d="M237,-223.63C237,-215.82 237,-206.73 237,-198.18"/>
<polygon fill="black" stroke="black" points="240.5,-198.16 237,-188.16 233.5,-198.16 240.5,-198.16"/>
</g>
<!-- 15 -->
<g id="node16" class="node">
<title>15</title>
<polygon fill="#c1ffc1" stroke="transparent" points="307,-110 167,-110 167,-68 307,-68 307,-110"/>
<polygon fill="none" stroke="black" points="167,-68 167,-110 214,-110 214,-68 167,-68"/>
<text text-anchor="start" x="175" y="-92" font-family="Linux libertine" font-size="10.00">Linear</text>
<text text-anchor="start" x="172" y="-81" font-family="Linux libertine" font-size="10.00">depth:2</text>
<polygon fill="none" stroke="black" points="214,-89 214,-110 262,-110 262,-89 214,-89"/>
<text text-anchor="start" x="224" y="-97" font-family="Linux libertine" font-size="10.00">input:</text>
<polygon fill="none" stroke="black" points="262,-89 262,-110 307,-110 307,-89 262,-89"/>
<text text-anchor="start" x="267" y="-97" font-family="Linux libertine" font-size="10.00">(1, 64) </text>
<polygon fill="none" stroke="black" points="214,-68 214,-89 262,-89 262,-68 214,-68"/>
<text text-anchor="start" x="219" y="-76" font-family="Linux libertine" font-size="10.00">output: </text>
<polygon fill="none" stroke="black" points="262,-68 262,-89 307,-89 307,-68 262,-68"/>
<text text-anchor="start" x="270" y="-76" font-family="Linux libertine" font-size="10.00">(1, 3) </text>
</g>
<!-- 14&#45;&gt;15 -->
<g id="edge15" class="edge">
<title>14&#45;&gt;15</title>
<path fill="none" stroke="black" d="M237,-145.63C237,-137.82 237,-128.73 237,-120.18"/>
<polygon fill="black" stroke="black" points="240.5,-120.16 237,-110.16 233.5,-120.16 240.5,-120.16"/>
</g>
<!-- 16 -->
<g id="node17" class="node">
<title>16</title>
<polygon fill="lightyellow" stroke="transparent" points="293.5,-32 180.5,-32 180.5,0 293.5,0 293.5,-32"/>
<polygon fill="none" stroke="black" points="181,0 181,-32 258,-32 258,0 181,0"/>
<text text-anchor="start" x="186" y="-19" font-family="Linux libertine" font-size="10.00">output&#45;tensor</text>
<text text-anchor="start" x="201" y="-8" font-family="Linux libertine" font-size="10.00">depth:0</text>
<polygon fill="none" stroke="black" points="258,0 258,-32 294,-32 294,0 258,0"/>
<text text-anchor="start" x="263" y="-13.5" font-family="Linux libertine" font-size="10.00">(1, 3)</text>
</g>
<!-- 15&#45;&gt;16 -->
<g id="edge16" class="edge">
<title>15&#45;&gt;16</title>
<path fill="none" stroke="black" d="M237,-67.84C237,-59.89 237,-50.66 237,-42.26"/>
<polygon fill="black" stroke="black" points="240.5,-42.24 237,-32.24 233.5,-42.24 240.5,-42.24"/>
</g>
<!-- 18 -->
<g id="node19" class="node">
<title>18</title>
<polygon fill="#c1ffc1" stroke="transparent" points="474,-500 328,-500 328,-458 474,-458 474,-500"/>
<polygon fill="none" stroke="black" points="328,-458 328,-500 375,-500 375,-458 328,-458"/>
<text text-anchor="start" x="338.5" y="-482" font-family="Linux libertine" font-size="10.00">ReLU</text>
<text text-anchor="start" x="333" y="-471" font-family="Linux libertine" font-size="10.00">depth:2</text>
<polygon fill="none" stroke="black" points="375,-479 375,-500 423,-500 423,-479 375,-479"/>
<text text-anchor="start" x="385" y="-487" font-family="Linux libertine" font-size="10.00">input:</text>
<polygon fill="none" stroke="black" points="423,-479 423,-500 474,-500 474,-479 423,-479"/>
<text text-anchor="start" x="428" y="-487" font-family="Linux libertine" font-size="10.00">(1, 256) </text>
<polygon fill="none" stroke="black" points="375,-458 375,-479 423,-479 423,-458 375,-458"/>
<text text-anchor="start" x="380" y="-466" font-family="Linux libertine" font-size="10.00">output: </text>
<polygon fill="none" stroke="black" points="423,-458 423,-479 474,-479 474,-458 423,-458"/>
<text text-anchor="start" x="428" y="-466" font-family="Linux libertine" font-size="10.00">(1, 256) </text>
</g>
<!-- 17&#45;&gt;18 -->
<g id="edge18" class="edge">
<title>17&#45;&gt;18</title>
<path fill="none" stroke="black" d="M401,-535.63C401,-527.82 401,-518.73 401,-510.18"/>
<polygon fill="black" stroke="black" points="404.5,-510.16 401,-500.16 397.5,-510.16 404.5,-510.16"/>
</g>
<!-- 19 -->
<g id="node20" class="node">
<title>19</title>
<polygon fill="#c1ffc1" stroke="transparent" points="474,-422 328,-422 328,-380 474,-380 474,-422"/>
<polygon fill="none" stroke="black" points="328,-380 328,-422 375,-422 375,-380 328,-380"/>
<text text-anchor="start" x="336" y="-404" font-family="Linux libertine" font-size="10.00">Linear</text>
<text text-anchor="start" x="333" y="-393" font-family="Linux libertine" font-size="10.00">depth:2</text>
<polygon fill="none" stroke="black" points="375,-401 375,-422 423,-422 423,-401 375,-401"/>
<text text-anchor="start" x="385" y="-409" font-family="Linux libertine" font-size="10.00">input:</text>
<polygon fill="none" stroke="black" points="423,-401 423,-422 474,-422 474,-401 423,-401"/>
<text text-anchor="start" x="428" y="-409" font-family="Linux libertine" font-size="10.00">(1, 256) </text>
<polygon fill="none" stroke="black" points="375,-380 375,-401 423,-401 423,-380 375,-380"/>
<text text-anchor="start" x="380" y="-388" font-family="Linux libertine" font-size="10.00">output: </text>
<polygon fill="none" stroke="black" points="423,-380 423,-401 474,-401 474,-380 423,-380"/>
<text text-anchor="start" x="428" y="-388" font-family="Linux libertine" font-size="10.00">(1, 128) </text>
</g>
<!-- 18&#45;&gt;19 -->
<g id="edge19" class="edge">
<title>18&#45;&gt;19</title>
<path fill="none" stroke="black" d="M401,-457.63C401,-449.82 401,-440.73 401,-432.18"/>
<polygon fill="black" stroke="black" points="404.5,-432.16 401,-422.16 397.5,-432.16 404.5,-432.16"/>
</g>
<!-- 20 -->
<g id="node21" class="node">
<title>20</title>
<polygon fill="#c1ffc1" stroke="transparent" points="474,-344 328,-344 328,-302 474,-302 474,-344"/>
<polygon fill="none" stroke="black" points="328,-302 328,-344 375,-344 375,-302 328,-302"/>
<text text-anchor="start" x="338.5" y="-326" font-family="Linux libertine" font-size="10.00">ReLU</text>
<text text-anchor="start" x="333" y="-315" font-family="Linux libertine" font-size="10.00">depth:2</text>
<polygon fill="none" stroke="black" points="375,-323 375,-344 423,-344 423,-323 375,-323"/>
<text text-anchor="start" x="385" y="-331" font-family="Linux libertine" font-size="10.00">input:</text>
<polygon fill="none" stroke="black" points="423,-323 423,-344 474,-344 474,-323 423,-323"/>
<text text-anchor="start" x="428" y="-331" font-family="Linux libertine" font-size="10.00">(1, 128) </text>
<polygon fill="none" stroke="black" points="375,-302 375,-323 423,-323 423,-302 375,-302"/>
<text text-anchor="start" x="380" y="-310" font-family="Linux libertine" font-size="10.00">output: </text>
<polygon fill="none" stroke="black" points="423,-302 423,-323 474,-323 474,-302 423,-302"/>
<text text-anchor="start" x="428" y="-310" font-family="Linux libertine" font-size="10.00">(1, 128) </text>
</g>
<!-- 19&#45;&gt;20 -->
<g id="edge20" class="edge">
<title>19&#45;&gt;20</title>
<path fill="none" stroke="black" d="M401,-379.63C401,-371.82 401,-362.73 401,-354.18"/>
<polygon fill="black" stroke="black" points="404.5,-354.16 401,-344.16 397.5,-354.16 404.5,-354.16"/>
</g>
<!-- 21 -->
<g id="node22" class="node">
<title>21</title>
<polygon fill="#c1ffc1" stroke="transparent" points="474,-266 328,-266 328,-224 474,-224 474,-266"/>
<polygon fill="none" stroke="black" points="328,-224 328,-266 375,-266 375,-224 328,-224"/>
<text text-anchor="start" x="336" y="-248" font-family="Linux libertine" font-size="10.00">Linear</text>
<text text-anchor="start" x="333" y="-237" font-family="Linux libertine" font-size="10.00">depth:2</text>
<polygon fill="none" stroke="black" points="375,-245 375,-266 423,-266 423,-245 375,-245"/>
<text text-anchor="start" x="385" y="-253" font-family="Linux libertine" font-size="10.00">input:</text>
<polygon fill="none" stroke="black" points="423,-245 423,-266 474,-266 474,-245 423,-245"/>
<text text-anchor="start" x="428" y="-253" font-family="Linux libertine" font-size="10.00">(1, 128) </text>
<polygon fill="none" stroke="black" points="375,-224 375,-245 423,-245 423,-224 375,-224"/>
<text text-anchor="start" x="380" y="-232" font-family="Linux libertine" font-size="10.00">output: </text>
<polygon fill="none" stroke="black" points="423,-224 423,-245 474,-245 474,-224 423,-224"/>
<text text-anchor="start" x="431" y="-232" font-family="Linux libertine" font-size="10.00">(1, 64) </text>
</g>
<!-- 20&#45;&gt;21 -->
<g id="edge21" class="edge">
<title>20&#45;&gt;21</title>
<path fill="none" stroke="black" d="M401,-301.63C401,-293.82 401,-284.73 401,-276.18"/>
<polygon fill="black" stroke="black" points="404.5,-276.16 401,-266.16 397.5,-276.16 404.5,-276.16"/>
</g>
<!-- 22 -->
<g id="node23" class="node">
<title>22</title>
<polygon fill="#c1ffc1" stroke="transparent" points="471,-188 331,-188 331,-146 471,-146 471,-188"/>
<polygon fill="none" stroke="black" points="331,-146 331,-188 378,-188 378,-146 331,-146"/>
<text text-anchor="start" x="341.5" y="-170" font-family="Linux libertine" font-size="10.00">ReLU</text>
<text text-anchor="start" x="336" y="-159" font-family="Linux libertine" font-size="10.00">depth:2</text>
<polygon fill="none" stroke="black" points="378,-167 378,-188 426,-188 426,-167 378,-167"/>
<text text-anchor="start" x="388" y="-175" font-family="Linux libertine" font-size="10.00">input:</text>
<polygon fill="none" stroke="black" points="426,-167 426,-188 471,-188 471,-167 426,-167"/>
<text text-anchor="start" x="431" y="-175" font-family="Linux libertine" font-size="10.00">(1, 64) </text>
<polygon fill="none" stroke="black" points="378,-146 378,-167 426,-167 426,-146 378,-146"/>
<text text-anchor="start" x="383" y="-154" font-family="Linux libertine" font-size="10.00">output: </text>
<polygon fill="none" stroke="black" points="426,-146 426,-167 471,-167 471,-146 426,-146"/>
<text text-anchor="start" x="431" y="-154" font-family="Linux libertine" font-size="10.00">(1, 64) </text>
</g>
<!-- 21&#45;&gt;22 -->
<g id="edge22" class="edge">
<title>21&#45;&gt;22</title>
<path fill="none" stroke="black" d="M401,-223.63C401,-215.82 401,-206.73 401,-198.18"/>
<polygon fill="black" stroke="black" points="404.5,-198.16 401,-188.16 397.5,-198.16 404.5,-198.16"/>
</g>
<!-- 23 -->
<g id="node24" class="node">
<title>23</title>
<polygon fill="#c1ffc1" stroke="transparent" points="471,-110 331,-110 331,-68 471,-68 471,-110"/>
<polygon fill="none" stroke="black" points="331,-68 331,-110 378,-110 378,-68 331,-68"/>
<text text-anchor="start" x="339" y="-92" font-family="Linux libertine" font-size="10.00">Linear</text>
<text text-anchor="start" x="336" y="-81" font-family="Linux libertine" font-size="10.00">depth:2</text>
<polygon fill="none" stroke="black" points="378,-89 378,-110 426,-110 426,-89 378,-89"/>
<text text-anchor="start" x="388" y="-97" font-family="Linux libertine" font-size="10.00">input:</text>
<polygon fill="none" stroke="black" points="426,-89 426,-110 471,-110 471,-89 426,-89"/>
<text text-anchor="start" x="431" y="-97" font-family="Linux libertine" font-size="10.00">(1, 64) </text>
<polygon fill="none" stroke="black" points="378,-68 378,-89 426,-89 426,-68 378,-68"/>
<text text-anchor="start" x="383" y="-76" font-family="Linux libertine" font-size="10.00">output: </text>
<polygon fill="none" stroke="black" points="426,-68 426,-89 471,-89 471,-68 426,-68"/>
<text text-anchor="start" x="434" y="-76" font-family="Linux libertine" font-size="10.00">(1, 4) </text>
</g>
<!-- 22&#45;&gt;23 -->
<g id="edge23" class="edge">
<title>22&#45;&gt;23</title>
<path fill="none" stroke="black" d="M401,-145.63C401,-137.82 401,-128.73 401,-120.18"/>
<polygon fill="black" stroke="black" points="404.5,-120.16 401,-110.16 397.5,-120.16 404.5,-120.16"/>
</g>
<!-- 24 -->
<g id="node25" class="node">
<title>24</title>
<polygon fill="lightyellow" stroke="transparent" points="457.5,-32 344.5,-32 344.5,0 457.5,0 457.5,-32"/>
<polygon fill="none" stroke="black" points="345,0 345,-32 422,-32 422,0 345,0"/>
<text text-anchor="start" x="350" y="-19" font-family="Linux libertine" font-size="10.00">output&#45;tensor</text>
<text text-anchor="start" x="365" y="-8" font-family="Linux libertine" font-size="10.00">depth:0</text>
<polygon fill="none" stroke="black" points="422,0 422,-32 458,-32 458,0 422,0"/>
<text text-anchor="start" x="427" y="-13.5" font-family="Linux libertine" font-size="10.00">(1, 4)</text>
</g>
<!-- 23&#45;&gt;24 -->
<g id="edge24" class="edge">
<title>23&#45;&gt;24</title>
<path fill="none" stroke="black" d="M401,-67.84C401,-59.89 401,-50.66 401,-42.26"/>
<polygon fill="black" stroke="black" points="404.5,-42.24 401,-32.24 397.5,-42.24 404.5,-42.24"/>
</g>
<!-- 26 -->
<g id="node27" class="node">
<title>26</title>
<polygon fill="#c1ffc1" stroke="transparent" points="638,-500 492,-500 492,-458 638,-458 638,-500"/>
<polygon fill="none" stroke="black" points="492,-458 492,-500 539,-500 539,-458 492,-458"/>
<text text-anchor="start" x="502.5" y="-482" font-family="Linux libertine" font-size="10.00">ReLU</text>
<text text-anchor="start" x="497" y="-471" font-family="Linux libertine" font-size="10.00">depth:2</text>
<polygon fill="none" stroke="black" points="539,-479 539,-500 587,-500 587,-479 539,-479"/>
<text text-anchor="start" x="549" y="-487" font-family="Linux libertine" font-size="10.00">input:</text>
<polygon fill="none" stroke="black" points="587,-479 587,-500 638,-500 638,-479 587,-479"/>
<text text-anchor="start" x="592" y="-487" font-family="Linux libertine" font-size="10.00">(1, 512) </text>
<polygon fill="none" stroke="black" points="539,-458 539,-479 587,-479 587,-458 539,-458"/>
<text text-anchor="start" x="544" y="-466" font-family="Linux libertine" font-size="10.00">output: </text>
<polygon fill="none" stroke="black" points="587,-458 587,-479 638,-479 638,-458 587,-458"/>
<text text-anchor="start" x="592" y="-466" font-family="Linux libertine" font-size="10.00">(1, 512) </text>
</g>
<!-- 25&#45;&gt;26 -->
<g id="edge26" class="edge">
<title>25&#45;&gt;26</title>
<path fill="none" stroke="black" d="M565,-535.63C565,-527.82 565,-518.73 565,-510.18"/>
<polygon fill="black" stroke="black" points="568.5,-510.16 565,-500.16 561.5,-510.16 568.5,-510.16"/>
</g>
<!-- 27 -->
<g id="node28" class="node">
<title>27</title>
<polygon fill="#c1ffc1" stroke="transparent" points="638,-422 492,-422 492,-380 638,-380 638,-422"/>
<polygon fill="none" stroke="black" points="492,-380 492,-422 539,-422 539,-380 492,-380"/>
<text text-anchor="start" x="500" y="-404" font-family="Linux libertine" font-size="10.00">Linear</text>
<text text-anchor="start" x="497" y="-393" font-family="Linux libertine" font-size="10.00">depth:2</text>
<polygon fill="none" stroke="black" points="539,-401 539,-422 587,-422 587,-401 539,-401"/>
<text text-anchor="start" x="549" y="-409" font-family="Linux libertine" font-size="10.00">input:</text>
<polygon fill="none" stroke="black" points="587,-401 587,-422 638,-422 638,-401 587,-401"/>
<text text-anchor="start" x="592" y="-409" font-family="Linux libertine" font-size="10.00">(1, 512) </text>
<polygon fill="none" stroke="black" points="539,-380 539,-401 587,-401 587,-380 539,-380"/>
<text text-anchor="start" x="544" y="-388" font-family="Linux libertine" font-size="10.00">output: </text>
<polygon fill="none" stroke="black" points="587,-380 587,-401 638,-401 638,-380 587,-380"/>
<text text-anchor="start" x="592" y="-388" font-family="Linux libertine" font-size="10.00">(1, 256) </text>
</g>
<!-- 26&#45;&gt;27 -->
<g id="edge27" class="edge">
<title>26&#45;&gt;27</title>
<path fill="none" stroke="black" d="M565,-457.63C565,-449.82 565,-440.73 565,-432.18"/>
<polygon fill="black" stroke="black" points="568.5,-432.16 565,-422.16 561.5,-432.16 568.5,-432.16"/>
</g>
<!-- 28 -->
<g id="node29" class="node">
<title>28</title>
<polygon fill="#c1ffc1" stroke="transparent" points="638,-344 492,-344 492,-302 638,-302 638,-344"/>
<polygon fill="none" stroke="black" points="492,-302 492,-344 539,-344 539,-302 492,-302"/>
<text text-anchor="start" x="502.5" y="-326" font-family="Linux libertine" font-size="10.00">ReLU</text>
<text text-anchor="start" x="497" y="-315" font-family="Linux libertine" font-size="10.00">depth:2</text>
<polygon fill="none" stroke="black" points="539,-323 539,-344 587,-344 587,-323 539,-323"/>
<text text-anchor="start" x="549" y="-331" font-family="Linux libertine" font-size="10.00">input:</text>
<polygon fill="none" stroke="black" points="587,-323 587,-344 638,-344 638,-323 587,-323"/>
<text text-anchor="start" x="592" y="-331" font-family="Linux libertine" font-size="10.00">(1, 256) </text>
<polygon fill="none" stroke="black" points="539,-302 539,-323 587,-323 587,-302 539,-302"/>
<text text-anchor="start" x="544" y="-310" font-family="Linux libertine" font-size="10.00">output: </text>
<polygon fill="none" stroke="black" points="587,-302 587,-323 638,-323 638,-302 587,-302"/>
<text text-anchor="start" x="592" y="-310" font-family="Linux libertine" font-size="10.00">(1, 256) </text>
</g>
<!-- 27&#45;&gt;28 -->
<g id="edge28" class="edge">
<title>27&#45;&gt;28</title>
<path fill="none" stroke="black" d="M565,-379.63C565,-371.82 565,-362.73 565,-354.18"/>
<polygon fill="black" stroke="black" points="568.5,-354.16 565,-344.16 561.5,-354.16 568.5,-354.16"/>
</g>
<!-- 29 -->
<g id="node30" class="node">
<title>29</title>
<polygon fill="#c1ffc1" stroke="transparent" points="638,-266 492,-266 492,-224 638,-224 638,-266"/>
<polygon fill="none" stroke="black" points="492,-224 492,-266 539,-266 539,-224 492,-224"/>
<text text-anchor="start" x="500" y="-248" font-family="Linux libertine" font-size="10.00">Linear</text>
<text text-anchor="start" x="497" y="-237" font-family="Linux libertine" font-size="10.00">depth:2</text>
<polygon fill="none" stroke="black" points="539,-245 539,-266 587,-266 587,-245 539,-245"/>
<text text-anchor="start" x="549" y="-253" font-family="Linux libertine" font-size="10.00">input:</text>
<polygon fill="none" stroke="black" points="587,-245 587,-266 638,-266 638,-245 587,-245"/>
<text text-anchor="start" x="592" y="-253" font-family="Linux libertine" font-size="10.00">(1, 256) </text>
<polygon fill="none" stroke="black" points="539,-224 539,-245 587,-245 587,-224 539,-224"/>
<text text-anchor="start" x="544" y="-232" font-family="Linux libertine" font-size="10.00">output: </text>
<polygon fill="none" stroke="black" points="587,-224 587,-245 638,-245 638,-224 587,-224"/>
<text text-anchor="start" x="592" y="-232" font-family="Linux libertine" font-size="10.00">(1, 256) </text>
</g>
<!-- 28&#45;&gt;29 -->
<g id="edge29" class="edge">
<title>28&#45;&gt;29</title>
<path fill="none" stroke="black" d="M565,-301.63C565,-293.82 565,-284.73 565,-276.18"/>
<polygon fill="black" stroke="black" points="568.5,-276.16 565,-266.16 561.5,-276.16 568.5,-276.16"/>
</g>
<!-- 30 -->
<g id="node31" class="node">
<title>30</title>
<polygon fill="#c1ffc1" stroke="transparent" points="638,-188 492,-188 492,-146 638,-146 638,-188"/>
<polygon fill="none" stroke="black" points="492,-146 492,-188 539,-188 539,-146 492,-146"/>
<text text-anchor="start" x="502.5" y="-170" font-family="Linux libertine" font-size="10.00">ReLU</text>
<text text-anchor="start" x="497" y="-159" font-family="Linux libertine" font-size="10.00">depth:2</text>
<polygon fill="none" stroke="black" points="539,-167 539,-188 587,-188 587,-167 539,-167"/>
<text text-anchor="start" x="549" y="-175" font-family="Linux libertine" font-size="10.00">input:</text>
<polygon fill="none" stroke="black" points="587,-167 587,-188 638,-188 638,-167 587,-167"/>
<text text-anchor="start" x="592" y="-175" font-family="Linux libertine" font-size="10.00">(1, 256) </text>
<polygon fill="none" stroke="black" points="539,-146 539,-167 587,-167 587,-146 539,-146"/>
<text text-anchor="start" x="544" y="-154" font-family="Linux libertine" font-size="10.00">output: </text>
<polygon fill="none" stroke="black" points="587,-146 587,-167 638,-167 638,-146 587,-146"/>
<text text-anchor="start" x="592" y="-154" font-family="Linux libertine" font-size="10.00">(1, 256) </text>
</g>
<!-- 29&#45;&gt;30 -->
<g id="edge30" class="edge">
<title>29&#45;&gt;30</title>
<path fill="none" stroke="black" d="M565,-223.63C565,-215.82 565,-206.73 565,-198.18"/>
<polygon fill="black" stroke="black" points="568.5,-198.16 565,-188.16 561.5,-198.16 568.5,-198.16"/>
</g>
<!-- 31 -->
<g id="node32" class="node">
<title>31</title>
<polygon fill="#c1ffc1" stroke="transparent" points="638,-110 492,-110 492,-68 638,-68 638,-110"/>
<polygon fill="none" stroke="black" points="492,-68 492,-110 539,-110 539,-68 492,-68"/>
<text text-anchor="start" x="500" y="-92" font-family="Linux libertine" font-size="10.00">Linear</text>
<text text-anchor="start" x="497" y="-81" font-family="Linux libertine" font-size="10.00">depth:2</text>
<polygon fill="none" stroke="black" points="539,-89 539,-110 587,-110 587,-89 539,-89"/>
<text text-anchor="start" x="549" y="-97" font-family="Linux libertine" font-size="10.00">input:</text>
<polygon fill="none" stroke="black" points="587,-89 587,-110 638,-110 638,-89 587,-89"/>
<text text-anchor="start" x="592" y="-97" font-family="Linux libertine" font-size="10.00">(1, 256) </text>
<polygon fill="none" stroke="black" points="539,-68 539,-89 587,-89 587,-68 539,-68"/>
<text text-anchor="start" x="544" y="-76" font-family="Linux libertine" font-size="10.00">output: </text>
<polygon fill="none" stroke="black" points="587,-68 587,-89 638,-89 638,-68 587,-68"/>
<text text-anchor="start" x="595" y="-76" font-family="Linux libertine" font-size="10.00">(1, 27) </text>
</g>
<!-- 30&#45;&gt;31 -->
<g id="edge31" class="edge">
<title>30&#45;&gt;31</title>
<path fill="none" stroke="black" d="M565,-145.63C565,-137.82 565,-128.73 565,-120.18"/>
<polygon fill="black" stroke="black" points="568.5,-120.16 565,-110.16 561.5,-120.16 568.5,-120.16"/>
</g>
<!-- 32 -->
<g id="node33" class="node">
<title>32</title>
<polygon fill="lightyellow" stroke="transparent" points="624.5,-32 505.5,-32 505.5,0 624.5,0 624.5,-32"/>
<polygon fill="none" stroke="black" points="506,0 506,-32 583,-32 583,0 506,0"/>
<text text-anchor="start" x="511" y="-19" font-family="Linux libertine" font-size="10.00">output&#45;tensor</text>
<text text-anchor="start" x="526" y="-8" font-family="Linux libertine" font-size="10.00">depth:0</text>
<polygon fill="none" stroke="black" points="583,0 583,-32 625,-32 625,0 583,0"/>
<text text-anchor="start" x="588" y="-13.5" font-family="Linux libertine" font-size="10.00">(1, 27)</text>
</g>
<!-- 31&#45;&gt;32 -->
<g id="edge32" class="edge">
<title>31&#45;&gt;32</title>
<path fill="none" stroke="black" d="M565,-67.84C565,-59.89 565,-50.66 565,-42.26"/>
<polygon fill="black" stroke="black" points="568.5,-42.24 565,-32.24 561.5,-42.24 568.5,-42.24"/>
</g>
</g>
</svg>
