<?xml version="1.0" encoding="UTF-8" standalone="no"?>
<!DOCTYPE svg PUBLIC "-//W3C//DTD SVG 1.1//EN"
 "http://www.w3.org/Graphics/SVG/1.1/DTD/svg11.dtd">
<!-- Generated by graphviz version 2.50.0 (0)
 -->
<!-- Title: model Pages: 1 -->
<svg width="116pt" height="1015pt"
 viewBox="0.00 0.00 115.75 1015.00" xmlns="http://www.w3.org/2000/svg" xmlns:xlink="http://www.w3.org/1999/xlink">
<g id="graph0" class="graph" transform="scale(0.56 0.56) rotate(0) translate(4 1820)">
<title>model</title>
<polygon fill="white" stroke="transparent" points="-4,4 -4,-1820 204,-1820 204,4 -4,4"/>
<!-- 0 -->
<g id="node1" class="node">
<title>0</title>
<polygon fill="lightyellow" stroke="transparent" points="177,-1816 23,-1816 23,-1784 177,-1784 177,-1816"/>
<polygon fill="none" stroke="black" points="23,-1784 23,-1816 93,-1816 93,-1784 23,-1784"/>
<text text-anchor="start" x="28" y="-1803" font-family="Linux libertine" font-size="10.00">input&#45;tensor</text>
<text text-anchor="start" x="39.5" y="-1792" font-family="Linux libertine" font-size="10.00">depth:0</text>
<polygon fill="none" stroke="black" points="93,-1784 93,-1816 177,-1816 177,-1784 93,-1784"/>
<text text-anchor="start" x="98" y="-1797.5" font-family="Linux libertine" font-size="10.00">(1, 3, 128, 128)</text>
</g>
<!-- 1 -->
<g id="node2" class="node">
<title>1</title>
<polygon fill="#c1ffc1" stroke="transparent" points="194,-1748 6,-1748 6,-1706 194,-1706 194,-1748"/>
<polygon fill="none" stroke="black" points="6,-1706 6,-1748 53,-1748 53,-1706 6,-1706"/>
<text text-anchor="start" x="11" y="-1730" font-family="Linux libertine" font-size="10.00">Conv2d</text>
<text text-anchor="start" x="11" y="-1719" font-family="Linux libertine" font-size="10.00">depth:1</text>
<polygon fill="none" stroke="black" points="53,-1727 53,-1748 101,-1748 101,-1727 53,-1727"/>
<text text-anchor="start" x="63" y="-1735" font-family="Linux libertine" font-size="10.00">input:</text>
<polygon fill="none" stroke="black" points="101,-1727 101,-1748 194,-1748 194,-1727 101,-1727"/>
<text text-anchor="start" x="109" y="-1735" font-family="Linux libertine" font-size="10.00">(1, 3, 128, 128) </text>
<polygon fill="none" stroke="black" points="53,-1706 53,-1727 101,-1727 101,-1706 53,-1706"/>
<text text-anchor="start" x="58" y="-1714" font-family="Linux libertine" font-size="10.00">output: </text>
<polygon fill="none" stroke="black" points="101,-1706 101,-1727 194,-1727 194,-1706 101,-1706"/>
<text text-anchor="start" x="106" y="-1714" font-family="Linux libertine" font-size="10.00">(1, 32, 128, 128) </text>
</g>
<!-- 0&#45;&gt;1 -->
<g id="edge1" class="edge">
<title>0&#45;&gt;1</title>
<path fill="none" stroke="black" d="M100,-1783.94C100,-1776.45 100,-1767.12 100,-1758.24"/>
<polygon fill="black" stroke="black" points="103.5,-1758.16 100,-1748.16 96.5,-1758.16 103.5,-1758.16"/>
</g>
<!-- 2 -->
<g id="node3" class="node">
<title>2</title>
<polygon fill="#c1ffc1" stroke="transparent" points="194,-1670 6,-1670 6,-1628 194,-1628 194,-1670"/>
<polygon fill="none" stroke="black" points="6,-1628 6,-1670 53,-1670 53,-1628 6,-1628"/>
<text text-anchor="start" x="16.5" y="-1652" font-family="Linux libertine" font-size="10.00">ReLU</text>
<text text-anchor="start" x="11" y="-1641" font-family="Linux libertine" font-size="10.00">depth:1</text>
<polygon fill="none" stroke="black" points="53,-1649 53,-1670 101,-1670 101,-1649 53,-1649"/>
<text text-anchor="start" x="63" y="-1657" font-family="Linux libertine" font-size="10.00">input:</text>
<polygon fill="none" stroke="black" points="101,-1649 101,-1670 194,-1670 194,-1649 101,-1649"/>
<text text-anchor="start" x="106" y="-1657" font-family="Linux libertine" font-size="10.00">(1, 32, 128, 128) </text>
<polygon fill="none" stroke="black" points="53,-1628 53,-1649 101,-1649 101,-1628 53,-1628"/>
<text text-anchor="start" x="58" y="-1636" font-family="Linux libertine" font-size="10.00">output: </text>
<polygon fill="none" stroke="black" points="101,-1628 101,-1649 194,-1649 194,-1628 101,-1628"/>
<text text-anchor="start" x="106" y="-1636" font-family="Linux libertine" font-size="10.00">(1, 32, 128, 128) </text>
</g>
<!-- 1&#45;&gt;2 -->
<g id="edge2" class="edge">
<title>1&#45;&gt;2</title>
<path fill="none" stroke="black" d="M100,-1705.63C100,-1697.82 100,-1688.73 100,-1680.18"/>
<polygon fill="black" stroke="black" points="103.5,-1680.16 100,-1670.16 96.5,-1680.16 103.5,-1680.16"/>
</g>
<!-- 3 -->
<g id="node4" class="node">
<title>3</title>
<polygon fill="#c1ffc1" stroke="transparent" points="194,-1592 6,-1592 6,-1550 194,-1550 194,-1592"/>
<polygon fill="none" stroke="black" points="6,-1550 6,-1592 53,-1592 53,-1550 6,-1550"/>
<text text-anchor="start" x="11" y="-1574" font-family="Linux libertine" font-size="10.00">Conv2d</text>
<text text-anchor="start" x="11" y="-1563" font-family="Linux libertine" font-size="10.00">depth:1</text>
<polygon fill="none" stroke="black" points="53,-1571 53,-1592 101,-1592 101,-1571 53,-1571"/>
<text text-anchor="start" x="63" y="-1579" font-family="Linux libertine" font-size="10.00">input:</text>
<polygon fill="none" stroke="black" points="101,-1571 101,-1592 194,-1592 194,-1571 101,-1571"/>
<text text-anchor="start" x="106" y="-1579" font-family="Linux libertine" font-size="10.00">(1, 32, 128, 128) </text>
<polygon fill="none" stroke="black" points="53,-1550 53,-1571 101,-1571 101,-1550 53,-1550"/>
<text text-anchor="start" x="58" y="-1558" font-family="Linux libertine" font-size="10.00">output: </text>
<polygon fill="none" stroke="black" points="101,-1550 101,-1571 194,-1571 194,-1550 101,-1550"/>
<text text-anchor="start" x="112" y="-1558" font-family="Linux libertine" font-size="10.00">(1, 64, 64, 64) </text>
</g>
<!-- 2&#45;&gt;3 -->
<g id="edge3" class="edge">
<title>2&#45;&gt;3</title>
<path fill="none" stroke="black" d="M100,-1627.63C100,-1619.82 100,-1610.73 100,-1602.18"/>
<polygon fill="black" stroke="black" points="103.5,-1602.16 100,-1592.16 96.5,-1602.16 103.5,-1602.16"/>
</g>
<!-- 4 -->
<g id="node5" class="node">
<title>4</title>
<polygon fill="#c1ffc1" stroke="transparent" points="188,-1514 12,-1514 12,-1472 188,-1472 188,-1514"/>
<polygon fill="none" stroke="black" points="12,-1472 12,-1514 59,-1514 59,-1472 12,-1472"/>
<text text-anchor="start" x="22.5" y="-1496" font-family="Linux libertine" font-size="10.00">ReLU</text>
<text text-anchor="start" x="17" y="-1485" font-family="Linux libertine" font-size="10.00">depth:1</text>
<polygon fill="none" stroke="black" points="59,-1493 59,-1514 107,-1514 107,-1493 59,-1493"/>
<text text-anchor="start" x="69" y="-1501" font-family="Linux libertine" font-size="10.00">input:</text>
<polygon fill="none" stroke="black" points="107,-1493 107,-1514 188,-1514 188,-1493 107,-1493"/>
<text text-anchor="start" x="112" y="-1501" font-family="Linux libertine" font-size="10.00">(1, 64, 64, 64) </text>
<polygon fill="none" stroke="black" points="59,-1472 59,-1493 107,-1493 107,-1472 59,-1472"/>
<text text-anchor="start" x="64" y="-1480" font-family="Linux libertine" font-size="10.00">output: </text>
<polygon fill="none" stroke="black" points="107,-1472 107,-1493 188,-1493 188,-1472 107,-1472"/>
<text text-anchor="start" x="112" y="-1480" font-family="Linux libertine" font-size="10.00">(1, 64, 64, 64) </text>
</g>
<!-- 3&#45;&gt;4 -->
<g id="edge4" class="edge">
<title>3&#45;&gt;4</title>
<path fill="none" stroke="black" d="M100,-1549.63C100,-1541.82 100,-1532.73 100,-1524.18"/>
<polygon fill="black" stroke="black" points="103.5,-1524.16 100,-1514.16 96.5,-1524.16 103.5,-1524.16"/>
</g>
<!-- 5 -->
<g id="node6" class="node">
<title>5</title>
<polygon fill="#c1ffc1" stroke="transparent" points="191,-1436 9,-1436 9,-1394 191,-1394 191,-1436"/>
<polygon fill="none" stroke="black" points="9,-1394 9,-1436 56,-1436 56,-1394 9,-1394"/>
<text text-anchor="start" x="14" y="-1418" font-family="Linux libertine" font-size="10.00">Conv2d</text>
<text text-anchor="start" x="14" y="-1407" font-family="Linux libertine" font-size="10.00">depth:1</text>
<polygon fill="none" stroke="black" points="56,-1415 56,-1436 104,-1436 104,-1415 56,-1415"/>
<text text-anchor="start" x="66" y="-1423" font-family="Linux libertine" font-size="10.00">input:</text>
<polygon fill="none" stroke="black" points="104,-1415 104,-1436 191,-1436 191,-1415 104,-1415"/>
<text text-anchor="start" x="112" y="-1423" font-family="Linux libertine" font-size="10.00">(1, 64, 64, 64) </text>
<polygon fill="none" stroke="black" points="56,-1394 56,-1415 104,-1415 104,-1394 56,-1394"/>
<text text-anchor="start" x="61" y="-1402" font-family="Linux libertine" font-size="10.00">output: </text>
<polygon fill="none" stroke="black" points="104,-1394 104,-1415 191,-1415 191,-1394 104,-1394"/>
<text text-anchor="start" x="109" y="-1402" font-family="Linux libertine" font-size="10.00">(1, 128, 64, 64) </text>
</g>
<!-- 4&#45;&gt;5 -->
<g id="edge5" class="edge">
<title>4&#45;&gt;5</title>
<path fill="none" stroke="black" d="M100,-1471.63C100,-1463.82 100,-1454.73 100,-1446.18"/>
<polygon fill="black" stroke="black" points="103.5,-1446.16 100,-1436.16 96.5,-1446.16 103.5,-1446.16"/>
</g>
<!-- 6 -->
<g id="node7" class="node">
<title>6</title>
<polygon fill="#c1ffc1" stroke="transparent" points="191,-1358 9,-1358 9,-1316 191,-1316 191,-1358"/>
<polygon fill="none" stroke="black" points="9,-1316 9,-1358 56,-1358 56,-1316 9,-1316"/>
<text text-anchor="start" x="19.5" y="-1340" font-family="Linux libertine" font-size="10.00">ReLU</text>
<text text-anchor="start" x="14" y="-1329" font-family="Linux libertine" font-size="10.00">depth:1</text>
<polygon fill="none" stroke="black" points="56,-1337 56,-1358 104,-1358 104,-1337 56,-1337"/>
<text text-anchor="start" x="66" y="-1345" font-family="Linux libertine" font-size="10.00">input:</text>
<polygon fill="none" stroke="black" points="104,-1337 104,-1358 191,-1358 191,-1337 104,-1337"/>
<text text-anchor="start" x="109" y="-1345" font-family="Linux libertine" font-size="10.00">(1, 128, 64, 64) </text>
<polygon fill="none" stroke="black" points="56,-1316 56,-1337 104,-1337 104,-1316 56,-1316"/>
<text text-anchor="start" x="61" y="-1324" font-family="Linux libertine" font-size="10.00">output: </text>
<polygon fill="none" stroke="black" points="104,-1316 104,-1337 191,-1337 191,-1316 104,-1316"/>
<text text-anchor="start" x="109" y="-1324" font-family="Linux libertine" font-size="10.00">(1, 128, 64, 64) </text>
</g>
<!-- 5&#45;&gt;6 -->
<g id="edge6" class="edge">
<title>5&#45;&gt;6</title>
<path fill="none" stroke="black" d="M100,-1393.63C100,-1385.82 100,-1376.73 100,-1368.18"/>
<polygon fill="black" stroke="black" points="103.5,-1368.16 100,-1358.16 96.5,-1368.16 103.5,-1368.16"/>
</g>
<!-- 7 -->
<g id="node8" class="node">
<title>7</title>
<polygon fill="#c1ffc1" stroke="transparent" points="191,-1280 9,-1280 9,-1238 191,-1238 191,-1280"/>
<polygon fill="none" stroke="black" points="9,-1238 9,-1280 56,-1280 56,-1238 9,-1238"/>
<text text-anchor="start" x="14" y="-1262" font-family="Linux libertine" font-size="10.00">Conv2d</text>
<text text-anchor="start" x="14" y="-1251" font-family="Linux libertine" font-size="10.00">depth:1</text>
<polygon fill="none" stroke="black" points="56,-1259 56,-1280 104,-1280 104,-1259 56,-1259"/>
<text text-anchor="start" x="66" y="-1267" font-family="Linux libertine" font-size="10.00">input:</text>
<polygon fill="none" stroke="black" points="104,-1259 104,-1280 191,-1280 191,-1259 104,-1259"/>
<text text-anchor="start" x="109" y="-1267" font-family="Linux libertine" font-size="10.00">(1, 128, 64, 64) </text>
<polygon fill="none" stroke="black" points="56,-1238 56,-1259 104,-1259 104,-1238 56,-1238"/>
<text text-anchor="start" x="61" y="-1246" font-family="Linux libertine" font-size="10.00">output: </text>
<polygon fill="none" stroke="black" points="104,-1238 104,-1259 191,-1259 191,-1238 104,-1238"/>
<text text-anchor="start" x="109" y="-1246" font-family="Linux libertine" font-size="10.00">(1, 128, 64, 64) </text>
</g>
<!-- 6&#45;&gt;7 -->
<g id="edge7" class="edge">
<title>6&#45;&gt;7</title>
<path fill="none" stroke="black" d="M100,-1315.63C100,-1307.82 100,-1298.73 100,-1290.18"/>
<polygon fill="black" stroke="black" points="103.5,-1290.16 100,-1280.16 96.5,-1290.16 103.5,-1290.16"/>
</g>
<!-- 8 -->
<g id="node9" class="node">
<title>8</title>
<polygon fill="#c1ffc1" stroke="transparent" points="191,-1202 9,-1202 9,-1160 191,-1160 191,-1202"/>
<polygon fill="none" stroke="black" points="9,-1160 9,-1202 56,-1202 56,-1160 9,-1160"/>
<text text-anchor="start" x="19.5" y="-1184" font-family="Linux libertine" font-size="10.00">ReLU</text>
<text text-anchor="start" x="14" y="-1173" font-family="Linux libertine" font-size="10.00">depth:1</text>
<polygon fill="none" stroke="black" points="56,-1181 56,-1202 104,-1202 104,-1181 56,-1181"/>
<text text-anchor="start" x="66" y="-1189" font-family="Linux libertine" font-size="10.00">input:</text>
<polygon fill="none" stroke="black" points="104,-1181 104,-1202 191,-1202 191,-1181 104,-1181"/>
<text text-anchor="start" x="109" y="-1189" font-family="Linux libertine" font-size="10.00">(1, 128, 64, 64) </text>
<polygon fill="none" stroke="black" points="56,-1160 56,-1181 104,-1181 104,-1160 56,-1160"/>
<text text-anchor="start" x="61" y="-1168" font-family="Linux libertine" font-size="10.00">output: </text>
<polygon fill="none" stroke="black" points="104,-1160 104,-1181 191,-1181 191,-1160 104,-1160"/>
<text text-anchor="start" x="109" y="-1168" font-family="Linux libertine" font-size="10.00">(1, 128, 64, 64) </text>
</g>
<!-- 7&#45;&gt;8 -->
<g id="edge8" class="edge">
<title>7&#45;&gt;8</title>
<path fill="none" stroke="black" d="M100,-1237.63C100,-1229.82 100,-1220.73 100,-1212.18"/>
<polygon fill="black" stroke="black" points="103.5,-1212.16 100,-1202.16 96.5,-1212.16 103.5,-1212.16"/>
</g>
<!-- 9 -->
<g id="node10" class="node">
<title>9</title>
<polygon fill="#c1ffc1" stroke="transparent" points="200,-1124 0,-1124 0,-1082 200,-1082 200,-1124"/>
<polygon fill="none" stroke="black" points="0,-1082 0,-1124 65,-1124 65,-1082 0,-1082"/>
<text text-anchor="start" x="5" y="-1106" font-family="Linux libertine" font-size="10.00">MaxPool2d</text>
<text text-anchor="start" x="14" y="-1095" font-family="Linux libertine" font-size="10.00">depth:1</text>
<polygon fill="none" stroke="black" points="65,-1103 65,-1124 113,-1124 113,-1103 65,-1103"/>
<text text-anchor="start" x="75" y="-1111" font-family="Linux libertine" font-size="10.00">input:</text>
<polygon fill="none" stroke="black" points="113,-1103 113,-1124 200,-1124 200,-1103 113,-1103"/>
<text text-anchor="start" x="118" y="-1111" font-family="Linux libertine" font-size="10.00">(1, 128, 64, 64) </text>
<polygon fill="none" stroke="black" points="65,-1082 65,-1103 113,-1103 113,-1082 65,-1082"/>
<text text-anchor="start" x="70" y="-1090" font-family="Linux libertine" font-size="10.00">output: </text>
<polygon fill="none" stroke="black" points="113,-1082 113,-1103 200,-1103 200,-1082 113,-1082"/>
<text text-anchor="start" x="118" y="-1090" font-family="Linux libertine" font-size="10.00">(1, 128, 32, 32) </text>
</g>
<!-- 8&#45;&gt;9 -->
<g id="edge9" class="edge">
<title>8&#45;&gt;9</title>
<path fill="none" stroke="black" d="M100,-1159.63C100,-1151.82 100,-1142.73 100,-1134.18"/>
<polygon fill="black" stroke="black" points="103.5,-1134.16 100,-1124.16 96.5,-1134.16 103.5,-1134.16"/>
</g>
<!-- 10 -->
<g id="node11" class="node">
<title>10</title>
<polygon fill="#c1ffc1" stroke="transparent" points="191,-1046 9,-1046 9,-1004 191,-1004 191,-1046"/>
<polygon fill="none" stroke="black" points="9,-1004 9,-1046 56,-1046 56,-1004 9,-1004"/>
<text text-anchor="start" x="14" y="-1028" font-family="Linux libertine" font-size="10.00">Conv2d</text>
<text text-anchor="start" x="14" y="-1017" font-family="Linux libertine" font-size="10.00">depth:1</text>
<polygon fill="none" stroke="black" points="56,-1025 56,-1046 104,-1046 104,-1025 56,-1025"/>
<text text-anchor="start" x="66" y="-1033" font-family="Linux libertine" font-size="10.00">input:</text>
<polygon fill="none" stroke="black" points="104,-1025 104,-1046 191,-1046 191,-1025 104,-1025"/>
<text text-anchor="start" x="109" y="-1033" font-family="Linux libertine" font-size="10.00">(1, 128, 32, 32) </text>
<polygon fill="none" stroke="black" points="56,-1004 56,-1025 104,-1025 104,-1004 56,-1004"/>
<text text-anchor="start" x="61" y="-1012" font-family="Linux libertine" font-size="10.00">output: </text>
<polygon fill="none" stroke="black" points="104,-1004 104,-1025 191,-1025 191,-1004 104,-1004"/>
<text text-anchor="start" x="109" y="-1012" font-family="Linux libertine" font-size="10.00">(1, 256, 32, 32) </text>
</g>
<!-- 9&#45;&gt;10 -->
<g id="edge10" class="edge">
<title>9&#45;&gt;10</title>
<path fill="none" stroke="black" d="M100,-1081.63C100,-1073.82 100,-1064.73 100,-1056.18"/>
<polygon fill="black" stroke="black" points="103.5,-1056.16 100,-1046.16 96.5,-1056.16 103.5,-1056.16"/>
</g>
<!-- 11 -->
<g id="node12" class="node">
<title>11</title>
<polygon fill="#c1ffc1" stroke="transparent" points="191,-968 9,-968 9,-926 191,-926 191,-968"/>
<polygon fill="none" stroke="black" points="9,-926 9,-968 56,-968 56,-926 9,-926"/>
<text text-anchor="start" x="19.5" y="-950" font-family="Linux libertine" font-size="10.00">ReLU</text>
<text text-anchor="start" x="14" y="-939" font-family="Linux libertine" font-size="10.00">depth:1</text>
<polygon fill="none" stroke="black" points="56,-947 56,-968 104,-968 104,-947 56,-947"/>
<text text-anchor="start" x="66" y="-955" font-family="Linux libertine" font-size="10.00">input:</text>
<polygon fill="none" stroke="black" points="104,-947 104,-968 191,-968 191,-947 104,-947"/>
<text text-anchor="start" x="109" y="-955" font-family="Linux libertine" font-size="10.00">(1, 256, 32, 32) </text>
<polygon fill="none" stroke="black" points="56,-926 56,-947 104,-947 104,-926 56,-926"/>
<text text-anchor="start" x="61" y="-934" font-family="Linux libertine" font-size="10.00">output: </text>
<polygon fill="none" stroke="black" points="104,-926 104,-947 191,-947 191,-926 104,-926"/>
<text text-anchor="start" x="109" y="-934" font-family="Linux libertine" font-size="10.00">(1, 256, 32, 32) </text>
</g>
<!-- 10&#45;&gt;11 -->
<g id="edge11" class="edge">
<title>10&#45;&gt;11</title>
<path fill="none" stroke="black" d="M100,-1003.63C100,-995.82 100,-986.73 100,-978.18"/>
<polygon fill="black" stroke="black" points="103.5,-978.16 100,-968.16 96.5,-978.16 103.5,-978.16"/>
</g>
<!-- 12 -->
<g id="node13" class="node">
<title>12</title>
<polygon fill="#c1ffc1" stroke="transparent" points="191,-890 9,-890 9,-848 191,-848 191,-890"/>
<polygon fill="none" stroke="black" points="9,-848 9,-890 56,-890 56,-848 9,-848"/>
<text text-anchor="start" x="14" y="-872" font-family="Linux libertine" font-size="10.00">Conv2d</text>
<text text-anchor="start" x="14" y="-861" font-family="Linux libertine" font-size="10.00">depth:1</text>
<polygon fill="none" stroke="black" points="56,-869 56,-890 104,-890 104,-869 56,-869"/>
<text text-anchor="start" x="66" y="-877" font-family="Linux libertine" font-size="10.00">input:</text>
<polygon fill="none" stroke="black" points="104,-869 104,-890 191,-890 191,-869 104,-869"/>
<text text-anchor="start" x="109" y="-877" font-family="Linux libertine" font-size="10.00">(1, 256, 32, 32) </text>
<polygon fill="none" stroke="black" points="56,-848 56,-869 104,-869 104,-848 56,-848"/>
<text text-anchor="start" x="61" y="-856" font-family="Linux libertine" font-size="10.00">output: </text>
<polygon fill="none" stroke="black" points="104,-848 104,-869 191,-869 191,-848 104,-848"/>
<text text-anchor="start" x="109" y="-856" font-family="Linux libertine" font-size="10.00">(1, 256, 16, 16) </text>
</g>
<!-- 11&#45;&gt;12 -->
<g id="edge12" class="edge">
<title>11&#45;&gt;12</title>
<path fill="none" stroke="black" d="M100,-925.63C100,-917.82 100,-908.73 100,-900.18"/>
<polygon fill="black" stroke="black" points="103.5,-900.16 100,-890.16 96.5,-900.16 103.5,-900.16"/>
</g>
<!-- 13 -->
<g id="node14" class="node">
<title>13</title>
<polygon fill="#c1ffc1" stroke="transparent" points="191,-812 9,-812 9,-770 191,-770 191,-812"/>
<polygon fill="none" stroke="black" points="9,-770 9,-812 56,-812 56,-770 9,-770"/>
<text text-anchor="start" x="19.5" y="-794" font-family="Linux libertine" font-size="10.00">ReLU</text>
<text text-anchor="start" x="14" y="-783" font-family="Linux libertine" font-size="10.00">depth:1</text>
<polygon fill="none" stroke="black" points="56,-791 56,-812 104,-812 104,-791 56,-791"/>
<text text-anchor="start" x="66" y="-799" font-family="Linux libertine" font-size="10.00">input:</text>
<polygon fill="none" stroke="black" points="104,-791 104,-812 191,-812 191,-791 104,-791"/>
<text text-anchor="start" x="109" y="-799" font-family="Linux libertine" font-size="10.00">(1, 256, 16, 16) </text>
<polygon fill="none" stroke="black" points="56,-770 56,-791 104,-791 104,-770 56,-770"/>
<text text-anchor="start" x="61" y="-778" font-family="Linux libertine" font-size="10.00">output: </text>
<polygon fill="none" stroke="black" points="104,-770 104,-791 191,-791 191,-770 104,-770"/>
<text text-anchor="start" x="109" y="-778" font-family="Linux libertine" font-size="10.00">(1, 256, 16, 16) </text>
</g>
<!-- 12&#45;&gt;13 -->
<g id="edge13" class="edge">
<title>12&#45;&gt;13</title>
<path fill="none" stroke="black" d="M100,-847.63C100,-839.82 100,-830.73 100,-822.18"/>
<polygon fill="black" stroke="black" points="103.5,-822.16 100,-812.16 96.5,-822.16 103.5,-822.16"/>
</g>
<!-- 14 -->
<g id="node15" class="node">
<title>14</title>
<polygon fill="#c1ffc1" stroke="transparent" points="200,-734 0,-734 0,-692 200,-692 200,-734"/>
<polygon fill="none" stroke="black" points="0,-692 0,-734 65,-734 65,-692 0,-692"/>
<text text-anchor="start" x="5" y="-716" font-family="Linux libertine" font-size="10.00">MaxPool2d</text>
<text text-anchor="start" x="14" y="-705" font-family="Linux libertine" font-size="10.00">depth:1</text>
<polygon fill="none" stroke="black" points="65,-713 65,-734 113,-734 113,-713 65,-713"/>
<text text-anchor="start" x="75" y="-721" font-family="Linux libertine" font-size="10.00">input:</text>
<polygon fill="none" stroke="black" points="113,-713 113,-734 200,-734 200,-713 113,-713"/>
<text text-anchor="start" x="118" y="-721" font-family="Linux libertine" font-size="10.00">(1, 256, 16, 16) </text>
<polygon fill="none" stroke="black" points="65,-692 65,-713 113,-713 113,-692 65,-692"/>
<text text-anchor="start" x="70" y="-700" font-family="Linux libertine" font-size="10.00">output: </text>
<polygon fill="none" stroke="black" points="113,-692 113,-713 200,-713 200,-692 113,-692"/>
<text text-anchor="start" x="124" y="-700" font-family="Linux libertine" font-size="10.00">(1, 256, 8, 8) </text>
</g>
<!-- 13&#45;&gt;14 -->
<g id="edge14" class="edge">
<title>13&#45;&gt;14</title>
<path fill="none" stroke="black" d="M100,-769.63C100,-761.82 100,-752.73 100,-744.18"/>
<polygon fill="black" stroke="black" points="103.5,-744.16 100,-734.16 96.5,-744.16 103.5,-744.16"/>
</g>
<!-- 15 -->
<g id="node16" class="node">
<title>15</title>
<polygon fill="#c1ffc1" stroke="transparent" points="185,-656 15,-656 15,-614 185,-614 185,-656"/>
<polygon fill="none" stroke="black" points="15,-614 15,-656 62,-656 62,-614 15,-614"/>
<text text-anchor="start" x="20" y="-638" font-family="Linux libertine" font-size="10.00">Conv2d</text>
<text text-anchor="start" x="20" y="-627" font-family="Linux libertine" font-size="10.00">depth:1</text>
<polygon fill="none" stroke="black" points="62,-635 62,-656 110,-656 110,-635 62,-635"/>
<text text-anchor="start" x="72" y="-643" font-family="Linux libertine" font-size="10.00">input:</text>
<polygon fill="none" stroke="black" points="110,-635 110,-656 185,-656 185,-635 110,-635"/>
<text text-anchor="start" x="115" y="-643" font-family="Linux libertine" font-size="10.00">(1, 256, 8, 8) </text>
<polygon fill="none" stroke="black" points="62,-614 62,-635 110,-635 110,-614 62,-614"/>
<text text-anchor="start" x="67" y="-622" font-family="Linux libertine" font-size="10.00">output: </text>
<polygon fill="none" stroke="black" points="110,-614 110,-635 185,-635 185,-614 110,-614"/>
<text text-anchor="start" x="115" y="-622" font-family="Linux libertine" font-size="10.00">(1, 512, 8, 8) </text>
</g>
<!-- 14&#45;&gt;15 -->
<g id="edge15" class="edge">
<title>14&#45;&gt;15</title>
<path fill="none" stroke="black" d="M100,-691.63C100,-683.82 100,-674.73 100,-666.18"/>
<polygon fill="black" stroke="black" points="103.5,-666.16 100,-656.16 96.5,-666.16 103.5,-666.16"/>
</g>
<!-- 16 -->
<g id="node17" class="node">
<title>16</title>
<polygon fill="#c1ffc1" stroke="transparent" points="185,-578 15,-578 15,-536 185,-536 185,-578"/>
<polygon fill="none" stroke="black" points="15,-536 15,-578 62,-578 62,-536 15,-536"/>
<text text-anchor="start" x="25.5" y="-560" font-family="Linux libertine" font-size="10.00">ReLU</text>
<text text-anchor="start" x="20" y="-549" font-family="Linux libertine" font-size="10.00">depth:1</text>
<polygon fill="none" stroke="black" points="62,-557 62,-578 110,-578 110,-557 62,-557"/>
<text text-anchor="start" x="72" y="-565" font-family="Linux libertine" font-size="10.00">input:</text>
<polygon fill="none" stroke="black" points="110,-557 110,-578 185,-578 185,-557 110,-557"/>
<text text-anchor="start" x="115" y="-565" font-family="Linux libertine" font-size="10.00">(1, 512, 8, 8) </text>
<polygon fill="none" stroke="black" points="62,-536 62,-557 110,-557 110,-536 62,-536"/>
<text text-anchor="start" x="67" y="-544" font-family="Linux libertine" font-size="10.00">output: </text>
<polygon fill="none" stroke="black" points="110,-536 110,-557 185,-557 185,-536 110,-536"/>
<text text-anchor="start" x="115" y="-544" font-family="Linux libertine" font-size="10.00">(1, 512, 8, 8) </text>
</g>
<!-- 15&#45;&gt;16 -->
<g id="edge16" class="edge">
<title>15&#45;&gt;16</title>
<path fill="none" stroke="black" d="M100,-613.63C100,-605.82 100,-596.73 100,-588.18"/>
<polygon fill="black" stroke="black" points="103.5,-588.16 100,-578.16 96.5,-588.16 103.5,-588.16"/>
</g>
<!-- 17 -->
<g id="node18" class="node">
<title>17</title>
<polygon fill="#c1ffc1" stroke="transparent" points="185,-500 15,-500 15,-458 185,-458 185,-500"/>
<polygon fill="none" stroke="black" points="15,-458 15,-500 62,-500 62,-458 15,-458"/>
<text text-anchor="start" x="20" y="-482" font-family="Linux libertine" font-size="10.00">Conv2d</text>
<text text-anchor="start" x="20" y="-471" font-family="Linux libertine" font-size="10.00">depth:1</text>
<polygon fill="none" stroke="black" points="62,-479 62,-500 110,-500 110,-479 62,-479"/>
<text text-anchor="start" x="72" y="-487" font-family="Linux libertine" font-size="10.00">input:</text>
<polygon fill="none" stroke="black" points="110,-479 110,-500 185,-500 185,-479 110,-479"/>
<text text-anchor="start" x="115" y="-487" font-family="Linux libertine" font-size="10.00">(1, 512, 8, 8) </text>
<polygon fill="none" stroke="black" points="62,-458 62,-479 110,-479 110,-458 62,-458"/>
<text text-anchor="start" x="67" y="-466" font-family="Linux libertine" font-size="10.00">output: </text>
<polygon fill="none" stroke="black" points="110,-458 110,-479 185,-479 185,-458 110,-458"/>
<text text-anchor="start" x="115" y="-466" font-family="Linux libertine" font-size="10.00">(1, 512, 4, 4) </text>
</g>
<!-- 16&#45;&gt;17 -->
<g id="edge17" class="edge">
<title>16&#45;&gt;17</title>
<path fill="none" stroke="black" d="M100,-535.63C100,-527.82 100,-518.73 100,-510.18"/>
<polygon fill="black" stroke="black" points="103.5,-510.16 100,-500.16 96.5,-510.16 103.5,-510.16"/>
</g>
<!-- 18 -->
<g id="node19" class="node">
<title>18</title>
<polygon fill="#c1ffc1" stroke="transparent" points="185,-422 15,-422 15,-380 185,-380 185,-422"/>
<polygon fill="none" stroke="black" points="15,-380 15,-422 62,-422 62,-380 15,-380"/>
<text text-anchor="start" x="25.5" y="-404" font-family="Linux libertine" font-size="10.00">ReLU</text>
<text text-anchor="start" x="20" y="-393" font-family="Linux libertine" font-size="10.00">depth:1</text>
<polygon fill="none" stroke="black" points="62,-401 62,-422 110,-422 110,-401 62,-401"/>
<text text-anchor="start" x="72" y="-409" font-family="Linux libertine" font-size="10.00">input:</text>
<polygon fill="none" stroke="black" points="110,-401 110,-422 185,-422 185,-401 110,-401"/>
<text text-anchor="start" x="115" y="-409" font-family="Linux libertine" font-size="10.00">(1, 512, 4, 4) </text>
<polygon fill="none" stroke="black" points="62,-380 62,-401 110,-401 110,-380 62,-380"/>
<text text-anchor="start" x="67" y="-388" font-family="Linux libertine" font-size="10.00">output: </text>
<polygon fill="none" stroke="black" points="110,-380 110,-401 185,-401 185,-380 110,-380"/>
<text text-anchor="start" x="115" y="-388" font-family="Linux libertine" font-size="10.00">(1, 512, 4, 4) </text>
</g>
<!-- 17&#45;&gt;18 -->
<g id="edge18" class="edge">
<title>17&#45;&gt;18</title>
<path fill="none" stroke="black" d="M100,-457.63C100,-449.82 100,-440.73 100,-432.18"/>
<polygon fill="black" stroke="black" points="103.5,-432.16 100,-422.16 96.5,-432.16 103.5,-432.16"/>
</g>
<!-- 19 -->
<g id="node20" class="node">
<title>19</title>
<polygon fill="#c1ffc1" stroke="transparent" points="185,-344 15,-344 15,-302 185,-302 185,-344"/>
<polygon fill="none" stroke="black" points="15,-302 15,-344 62,-344 62,-302 15,-302"/>
<text text-anchor="start" x="20" y="-326" font-family="Linux libertine" font-size="10.00">Conv2d</text>
<text text-anchor="start" x="20" y="-315" font-family="Linux libertine" font-size="10.00">depth:1</text>
<polygon fill="none" stroke="black" points="62,-323 62,-344 110,-344 110,-323 62,-323"/>
<text text-anchor="start" x="72" y="-331" font-family="Linux libertine" font-size="10.00">input:</text>
<polygon fill="none" stroke="black" points="110,-323 110,-344 185,-344 185,-323 110,-323"/>
<text text-anchor="start" x="115" y="-331" font-family="Linux libertine" font-size="10.00">(1, 512, 4, 4) </text>
<polygon fill="none" stroke="black" points="62,-302 62,-323 110,-323 110,-302 62,-302"/>
<text text-anchor="start" x="67" y="-310" font-family="Linux libertine" font-size="10.00">output: </text>
<polygon fill="none" stroke="black" points="110,-302 110,-323 185,-323 185,-302 110,-302"/>
<text text-anchor="start" x="115" y="-310" font-family="Linux libertine" font-size="10.00">(1, 512, 2, 2) </text>
</g>
<!-- 18&#45;&gt;19 -->
<g id="edge19" class="edge">
<title>18&#45;&gt;19</title>
<path fill="none" stroke="black" d="M100,-379.63C100,-371.82 100,-362.73 100,-354.18"/>
<polygon fill="black" stroke="black" points="103.5,-354.16 100,-344.16 96.5,-354.16 103.5,-354.16"/>
</g>
<!-- 20 -->
<g id="node21" class="node">
<title>20</title>
<polygon fill="#c1ffc1" stroke="transparent" points="185,-266 15,-266 15,-224 185,-224 185,-266"/>
<polygon fill="none" stroke="black" points="15,-224 15,-266 62,-266 62,-224 15,-224"/>
<text text-anchor="start" x="25.5" y="-248" font-family="Linux libertine" font-size="10.00">ReLU</text>
<text text-anchor="start" x="20" y="-237" font-family="Linux libertine" font-size="10.00">depth:1</text>
<polygon fill="none" stroke="black" points="62,-245 62,-266 110,-266 110,-245 62,-245"/>
<text text-anchor="start" x="72" y="-253" font-family="Linux libertine" font-size="10.00">input:</text>
<polygon fill="none" stroke="black" points="110,-245 110,-266 185,-266 185,-245 110,-245"/>
<text text-anchor="start" x="115" y="-253" font-family="Linux libertine" font-size="10.00">(1, 512, 2, 2) </text>
<polygon fill="none" stroke="black" points="62,-224 62,-245 110,-245 110,-224 62,-224"/>
<text text-anchor="start" x="67" y="-232" font-family="Linux libertine" font-size="10.00">output: </text>
<polygon fill="none" stroke="black" points="110,-224 110,-245 185,-245 185,-224 110,-224"/>
<text text-anchor="start" x="115" y="-232" font-family="Linux libertine" font-size="10.00">(1, 512, 2, 2) </text>
</g>
<!-- 19&#45;&gt;20 -->
<g id="edge20" class="edge">
<title>19&#45;&gt;20</title>
<path fill="none" stroke="black" d="M100,-301.63C100,-293.82 100,-284.73 100,-276.18"/>
<polygon fill="black" stroke="black" points="103.5,-276.16 100,-266.16 96.5,-276.16 103.5,-276.16"/>
</g>
<!-- 21 -->
<g id="node22" class="node">
<title>21</title>
<polygon fill="#c1ffc1" stroke="transparent" points="194,-188 6,-188 6,-146 194,-146 194,-188"/>
<polygon fill="none" stroke="black" points="6,-146 6,-188 71,-188 71,-146 6,-146"/>
<text text-anchor="start" x="11" y="-170" font-family="Linux libertine" font-size="10.00">MaxPool2d</text>
<text text-anchor="start" x="20" y="-159" font-family="Linux libertine" font-size="10.00">depth:1</text>
<polygon fill="none" stroke="black" points="71,-167 71,-188 119,-188 119,-167 71,-167"/>
<text text-anchor="start" x="81" y="-175" font-family="Linux libertine" font-size="10.00">input:</text>
<polygon fill="none" stroke="black" points="119,-167 119,-188 194,-188 194,-167 119,-167"/>
<text text-anchor="start" x="124" y="-175" font-family="Linux libertine" font-size="10.00">(1, 512, 2, 2) </text>
<polygon fill="none" stroke="black" points="71,-146 71,-167 119,-167 119,-146 71,-146"/>
<text text-anchor="start" x="76" y="-154" font-family="Linux libertine" font-size="10.00">output: </text>
<polygon fill="none" stroke="black" points="119,-146 119,-167 194,-167 194,-146 119,-146"/>
<text text-anchor="start" x="124" y="-154" font-family="Linux libertine" font-size="10.00">(1, 512, 1, 1) </text>
</g>
<!-- 20&#45;&gt;21 -->
<g id="edge21" class="edge">
<title>20&#45;&gt;21</title>
<path fill="none" stroke="black" d="M100,-223.63C100,-215.82 100,-206.73 100,-198.18"/>
<polygon fill="black" stroke="black" points="103.5,-198.16 100,-188.16 96.5,-198.16 103.5,-198.16"/>
</g>
<!-- 22 -->
<g id="node23" class="node">
<title>22</title>
<polygon fill="#c1ffc1" stroke="transparent" points="185,-110 15,-110 15,-68 185,-68 185,-110"/>
<polygon fill="none" stroke="black" points="15,-68 15,-110 62,-110 62,-68 15,-68"/>
<text text-anchor="start" x="21" y="-92" font-family="Linux libertine" font-size="10.00">Flatten</text>
<text text-anchor="start" x="20" y="-81" font-family="Linux libertine" font-size="10.00">depth:1</text>
<polygon fill="none" stroke="black" points="62,-89 62,-110 110,-110 110,-89 62,-89"/>
<text text-anchor="start" x="72" y="-97" font-family="Linux libertine" font-size="10.00">input:</text>
<polygon fill="none" stroke="black" points="110,-89 110,-110 185,-110 185,-89 110,-89"/>
<text text-anchor="start" x="115" y="-97" font-family="Linux libertine" font-size="10.00">(1, 512, 1, 1) </text>
<polygon fill="none" stroke="black" points="62,-68 62,-89 110,-89 110,-68 62,-68"/>
<text text-anchor="start" x="67" y="-76" font-family="Linux libertine" font-size="10.00">output: </text>
<polygon fill="none" stroke="black" points="110,-68 110,-89 185,-89 185,-68 110,-68"/>
<text text-anchor="start" x="127" y="-76" font-family="Linux libertine" font-size="10.00">(1, 512) </text>
</g>
<!-- 21&#45;&gt;22 -->
<g id="edge22" class="edge">
<title>21&#45;&gt;22</title>
<path fill="none" stroke="black" d="M100,-145.63C100,-137.82 100,-128.73 100,-120.18"/>
<polygon fill="black" stroke="black" points="103.5,-120.16 100,-110.16 96.5,-120.16 103.5,-120.16"/>
</g>
<!-- 23 -->
<g id="node24" class="node">
<title>23</title>
<polygon fill="lightyellow" stroke="transparent" points="162.5,-32 37.5,-32 37.5,0 162.5,0 162.5,-32"/>
<polygon fill="none" stroke="black" points="38,0 38,-32 115,-32 115,0 38,0"/>
<text text-anchor="start" x="43" y="-19" font-family="Linux libertine" font-size="10.00">output&#45;tensor</text>
<text text-anchor="start" x="58" y="-8" font-family="Linux libertine" font-size="10.00">depth:0</text>
<polygon fill="none" stroke="black" points="115,0 115,-32 163,-32 163,0 115,0"/>
<text text-anchor="start" x="120" y="-13.5" font-family="Linux libertine" font-size="10.00">(1, 512)</text>
</g>
<!-- 22&#45;&gt;23 -->
<g id="edge23" class="edge">
<title>22&#45;&gt;23</title>
<path fill="none" stroke="black" d="M100,-67.84C100,-59.89 100,-50.66 100,-42.26"/>
<polygon fill="black" stroke="black" points="103.5,-42.24 100,-32.24 96.5,-42.24 103.5,-42.24"/>
</g>
</g>
</svg>
