<?xml version="1.0" encoding="UTF-8" standalone="no"?>
<!DOCTYPE svg PUBLIC "-//W3C//DTD SVG 1.1//EN"
 "http://www.w3.org/Graphics/SVG/1.1/DTD/svg11.dtd">
<!-- Generated by graphviz version 2.50.0 (0)
 -->
<!-- Title: model Pages: 1 -->
<svg width="121pt" height="864pt"
 viewBox="0.00 0.00 121.06 864.00" xmlns="http://www.w3.org/2000/svg" xmlns:xlink="http://www.w3.org/1999/xlink">
<g id="graph0" class="graph" transform="scale(0.64 0.64) rotate(0) translate(4 1352)">
<title>model</title>
<polygon fill="white" stroke="transparent" points="-4,4 -4,-1352 186,-1352 186,4 -4,4"/>
<!-- 0 -->
<g id="node1" class="node">
<title>0</title>
<polygon fill="lightyellow" stroke="transparent" points="168,-1348 14,-1348 14,-1316 168,-1316 168,-1348"/>
<polygon fill="none" stroke="black" points="14,-1316 14,-1348 84,-1348 84,-1316 14,-1316"/>
<text text-anchor="start" x="19" y="-1335" font-family="Linux libertine" font-size="10.00">input&#45;tensor</text>
<text text-anchor="start" x="30.5" y="-1324" font-family="Linux libertine" font-size="10.00">depth:0</text>
<polygon fill="none" stroke="black" points="84,-1316 84,-1348 168,-1348 168,-1316 84,-1316"/>
<text text-anchor="start" x="89" y="-1329.5" font-family="Linux libertine" font-size="10.00">(1, 3, 128, 128)</text>
</g>
<!-- 1 -->
<g id="node2" class="node">
<title>1</title>
<polygon fill="#c1ffc1" stroke="transparent" points="182,-1280 0,-1280 0,-1238 182,-1238 182,-1280"/>
<polygon fill="none" stroke="black" points="0,-1238 0,-1280 47,-1280 47,-1238 0,-1238"/>
<text text-anchor="start" x="5" y="-1262" font-family="Linux libertine" font-size="10.00">Conv2d</text>
<text text-anchor="start" x="5" y="-1251" font-family="Linux libertine" font-size="10.00">depth:1</text>
<polygon fill="none" stroke="black" points="47,-1259 47,-1280 95,-1280 95,-1259 47,-1259"/>
<text text-anchor="start" x="57" y="-1267" font-family="Linux libertine" font-size="10.00">input:</text>
<polygon fill="none" stroke="black" points="95,-1259 95,-1280 182,-1280 182,-1259 95,-1259"/>
<text text-anchor="start" x="100" y="-1267" font-family="Linux libertine" font-size="10.00">(1, 3, 128, 128) </text>
<polygon fill="none" stroke="black" points="47,-1238 47,-1259 95,-1259 95,-1238 47,-1238"/>
<text text-anchor="start" x="52" y="-1246" font-family="Linux libertine" font-size="10.00">output: </text>
<polygon fill="none" stroke="black" points="95,-1238 95,-1259 182,-1259 182,-1238 95,-1238"/>
<text text-anchor="start" x="103" y="-1246" font-family="Linux libertine" font-size="10.00">(1, 32, 64, 64) </text>
</g>
<!-- 0&#45;&gt;1 -->
<g id="edge1" class="edge">
<title>0&#45;&gt;1</title>
<path fill="none" stroke="black" d="M91,-1315.94C91,-1308.45 91,-1299.12 91,-1290.24"/>
<polygon fill="black" stroke="black" points="94.5,-1290.16 91,-1280.16 87.5,-1290.16 94.5,-1290.16"/>
</g>
<!-- 2 -->
<g id="node3" class="node">
<title>2</title>
<polygon fill="#c1ffc1" stroke="transparent" points="179,-1202 3,-1202 3,-1160 179,-1160 179,-1202"/>
<polygon fill="none" stroke="black" points="3,-1160 3,-1202 50,-1202 50,-1160 3,-1160"/>
<text text-anchor="start" x="13" y="-1184" font-family="Linux libertine" font-size="10.00">GELU</text>
<text text-anchor="start" x="8" y="-1173" font-family="Linux libertine" font-size="10.00">depth:1</text>
<polygon fill="none" stroke="black" points="50,-1181 50,-1202 98,-1202 98,-1181 50,-1181"/>
<text text-anchor="start" x="60" y="-1189" font-family="Linux libertine" font-size="10.00">input:</text>
<polygon fill="none" stroke="black" points="98,-1181 98,-1202 179,-1202 179,-1181 98,-1181"/>
<text text-anchor="start" x="103" y="-1189" font-family="Linux libertine" font-size="10.00">(1, 32, 64, 64) </text>
<polygon fill="none" stroke="black" points="50,-1160 50,-1181 98,-1181 98,-1160 50,-1160"/>
<text text-anchor="start" x="55" y="-1168" font-family="Linux libertine" font-size="10.00">output: </text>
<polygon fill="none" stroke="black" points="98,-1160 98,-1181 179,-1181 179,-1160 98,-1160"/>
<text text-anchor="start" x="103" y="-1168" font-family="Linux libertine" font-size="10.00">(1, 32, 64, 64) </text>
</g>
<!-- 1&#45;&gt;2 -->
<g id="edge2" class="edge">
<title>1&#45;&gt;2</title>
<path fill="none" stroke="black" d="M91,-1237.63C91,-1229.82 91,-1220.73 91,-1212.18"/>
<polygon fill="black" stroke="black" points="94.5,-1212.16 91,-1202.16 87.5,-1212.16 94.5,-1212.16"/>
</g>
<!-- 3 -->
<g id="node4" class="node">
<title>3</title>
<polygon fill="#c1ffc1" stroke="transparent" points="179,-1124 3,-1124 3,-1082 179,-1082 179,-1124"/>
<polygon fill="none" stroke="black" points="3,-1082 3,-1124 50,-1124 50,-1082 3,-1082"/>
<text text-anchor="start" x="8" y="-1106" font-family="Linux libertine" font-size="10.00">Conv2d</text>
<text text-anchor="start" x="8" y="-1095" font-family="Linux libertine" font-size="10.00">depth:1</text>
<polygon fill="none" stroke="black" points="50,-1103 50,-1124 98,-1124 98,-1103 50,-1103"/>
<text text-anchor="start" x="60" y="-1111" font-family="Linux libertine" font-size="10.00">input:</text>
<polygon fill="none" stroke="black" points="98,-1103 98,-1124 179,-1124 179,-1103 98,-1103"/>
<text text-anchor="start" x="103" y="-1111" font-family="Linux libertine" font-size="10.00">(1, 32, 64, 64) </text>
<polygon fill="none" stroke="black" points="50,-1082 50,-1103 98,-1103 98,-1082 50,-1082"/>
<text text-anchor="start" x="55" y="-1090" font-family="Linux libertine" font-size="10.00">output: </text>
<polygon fill="none" stroke="black" points="98,-1082 98,-1103 179,-1103 179,-1082 98,-1082"/>
<text text-anchor="start" x="103" y="-1090" font-family="Linux libertine" font-size="10.00">(1, 32, 64, 64) </text>
</g>
<!-- 2&#45;&gt;3 -->
<g id="edge3" class="edge">
<title>2&#45;&gt;3</title>
<path fill="none" stroke="black" d="M91,-1159.63C91,-1151.82 91,-1142.73 91,-1134.18"/>
<polygon fill="black" stroke="black" points="94.5,-1134.16 91,-1124.16 87.5,-1134.16 94.5,-1134.16"/>
</g>
<!-- 4 -->
<g id="node5" class="node">
<title>4</title>
<polygon fill="#c1ffc1" stroke="transparent" points="179,-1046 3,-1046 3,-1004 179,-1004 179,-1046"/>
<polygon fill="none" stroke="black" points="3,-1004 3,-1046 50,-1046 50,-1004 3,-1004"/>
<text text-anchor="start" x="13" y="-1028" font-family="Linux libertine" font-size="10.00">GELU</text>
<text text-anchor="start" x="8" y="-1017" font-family="Linux libertine" font-size="10.00">depth:1</text>
<polygon fill="none" stroke="black" points="50,-1025 50,-1046 98,-1046 98,-1025 50,-1025"/>
<text text-anchor="start" x="60" y="-1033" font-family="Linux libertine" font-size="10.00">input:</text>
<polygon fill="none" stroke="black" points="98,-1025 98,-1046 179,-1046 179,-1025 98,-1025"/>
<text text-anchor="start" x="103" y="-1033" font-family="Linux libertine" font-size="10.00">(1, 32, 64, 64) </text>
<polygon fill="none" stroke="black" points="50,-1004 50,-1025 98,-1025 98,-1004 50,-1004"/>
<text text-anchor="start" x="55" y="-1012" font-family="Linux libertine" font-size="10.00">output: </text>
<polygon fill="none" stroke="black" points="98,-1004 98,-1025 179,-1025 179,-1004 98,-1004"/>
<text text-anchor="start" x="103" y="-1012" font-family="Linux libertine" font-size="10.00">(1, 32, 64, 64) </text>
</g>
<!-- 3&#45;&gt;4 -->
<g id="edge4" class="edge">
<title>3&#45;&gt;4</title>
<path fill="none" stroke="black" d="M91,-1081.63C91,-1073.82 91,-1064.73 91,-1056.18"/>
<polygon fill="black" stroke="black" points="94.5,-1056.16 91,-1046.16 87.5,-1056.16 94.5,-1056.16"/>
</g>
<!-- 5 -->
<g id="node6" class="node">
<title>5</title>
<polygon fill="#c1ffc1" stroke="transparent" points="179,-968 3,-968 3,-926 179,-926 179,-968"/>
<polygon fill="none" stroke="black" points="3,-926 3,-968 50,-968 50,-926 3,-926"/>
<text text-anchor="start" x="8" y="-950" font-family="Linux libertine" font-size="10.00">Conv2d</text>
<text text-anchor="start" x="8" y="-939" font-family="Linux libertine" font-size="10.00">depth:1</text>
<polygon fill="none" stroke="black" points="50,-947 50,-968 98,-968 98,-947 50,-947"/>
<text text-anchor="start" x="60" y="-955" font-family="Linux libertine" font-size="10.00">input:</text>
<polygon fill="none" stroke="black" points="98,-947 98,-968 179,-968 179,-947 98,-947"/>
<text text-anchor="start" x="103" y="-955" font-family="Linux libertine" font-size="10.00">(1, 32, 64, 64) </text>
<polygon fill="none" stroke="black" points="50,-926 50,-947 98,-947 98,-926 50,-926"/>
<text text-anchor="start" x="55" y="-934" font-family="Linux libertine" font-size="10.00">output: </text>
<polygon fill="none" stroke="black" points="98,-926 98,-947 179,-947 179,-926 98,-926"/>
<text text-anchor="start" x="103" y="-934" font-family="Linux libertine" font-size="10.00">(1, 64, 32, 32) </text>
</g>
<!-- 4&#45;&gt;5 -->
<g id="edge5" class="edge">
<title>4&#45;&gt;5</title>
<path fill="none" stroke="black" d="M91,-1003.63C91,-995.82 91,-986.73 91,-978.18"/>
<polygon fill="black" stroke="black" points="94.5,-978.16 91,-968.16 87.5,-978.16 94.5,-978.16"/>
</g>
<!-- 6 -->
<g id="node7" class="node">
<title>6</title>
<polygon fill="#c1ffc1" stroke="transparent" points="179,-890 3,-890 3,-848 179,-848 179,-890"/>
<polygon fill="none" stroke="black" points="3,-848 3,-890 50,-890 50,-848 3,-848"/>
<text text-anchor="start" x="13" y="-872" font-family="Linux libertine" font-size="10.00">GELU</text>
<text text-anchor="start" x="8" y="-861" font-family="Linux libertine" font-size="10.00">depth:1</text>
<polygon fill="none" stroke="black" points="50,-869 50,-890 98,-890 98,-869 50,-869"/>
<text text-anchor="start" x="60" y="-877" font-family="Linux libertine" font-size="10.00">input:</text>
<polygon fill="none" stroke="black" points="98,-869 98,-890 179,-890 179,-869 98,-869"/>
<text text-anchor="start" x="103" y="-877" font-family="Linux libertine" font-size="10.00">(1, 64, 32, 32) </text>
<polygon fill="none" stroke="black" points="50,-848 50,-869 98,-869 98,-848 50,-848"/>
<text text-anchor="start" x="55" y="-856" font-family="Linux libertine" font-size="10.00">output: </text>
<polygon fill="none" stroke="black" points="98,-848 98,-869 179,-869 179,-848 98,-848"/>
<text text-anchor="start" x="103" y="-856" font-family="Linux libertine" font-size="10.00">(1, 64, 32, 32) </text>
</g>
<!-- 5&#45;&gt;6 -->
<g id="edge6" class="edge">
<title>5&#45;&gt;6</title>
<path fill="none" stroke="black" d="M91,-925.63C91,-917.82 91,-908.73 91,-900.18"/>
<polygon fill="black" stroke="black" points="94.5,-900.16 91,-890.16 87.5,-900.16 94.5,-900.16"/>
</g>
<!-- 7 -->
<g id="node8" class="node">
<title>7</title>
<polygon fill="#c1ffc1" stroke="transparent" points="179,-812 3,-812 3,-770 179,-770 179,-812"/>
<polygon fill="none" stroke="black" points="3,-770 3,-812 50,-812 50,-770 3,-770"/>
<text text-anchor="start" x="8" y="-794" font-family="Linux libertine" font-size="10.00">Conv2d</text>
<text text-anchor="start" x="8" y="-783" font-family="Linux libertine" font-size="10.00">depth:1</text>
<polygon fill="none" stroke="black" points="50,-791 50,-812 98,-812 98,-791 50,-791"/>
<text text-anchor="start" x="60" y="-799" font-family="Linux libertine" font-size="10.00">input:</text>
<polygon fill="none" stroke="black" points="98,-791 98,-812 179,-812 179,-791 98,-791"/>
<text text-anchor="start" x="103" y="-799" font-family="Linux libertine" font-size="10.00">(1, 64, 32, 32) </text>
<polygon fill="none" stroke="black" points="50,-770 50,-791 98,-791 98,-770 50,-770"/>
<text text-anchor="start" x="55" y="-778" font-family="Linux libertine" font-size="10.00">output: </text>
<polygon fill="none" stroke="black" points="98,-770 98,-791 179,-791 179,-770 98,-770"/>
<text text-anchor="start" x="103" y="-778" font-family="Linux libertine" font-size="10.00">(1, 64, 32, 32) </text>
</g>
<!-- 6&#45;&gt;7 -->
<g id="edge7" class="edge">
<title>6&#45;&gt;7</title>
<path fill="none" stroke="black" d="M91,-847.63C91,-839.82 91,-830.73 91,-822.18"/>
<polygon fill="black" stroke="black" points="94.5,-822.16 91,-812.16 87.5,-822.16 94.5,-822.16"/>
</g>
<!-- 8 -->
<g id="node9" class="node">
<title>8</title>
<polygon fill="#c1ffc1" stroke="transparent" points="179,-734 3,-734 3,-692 179,-692 179,-734"/>
<polygon fill="none" stroke="black" points="3,-692 3,-734 50,-734 50,-692 3,-692"/>
<text text-anchor="start" x="13" y="-716" font-family="Linux libertine" font-size="10.00">GELU</text>
<text text-anchor="start" x="8" y="-705" font-family="Linux libertine" font-size="10.00">depth:1</text>
<polygon fill="none" stroke="black" points="50,-713 50,-734 98,-734 98,-713 50,-713"/>
<text text-anchor="start" x="60" y="-721" font-family="Linux libertine" font-size="10.00">input:</text>
<polygon fill="none" stroke="black" points="98,-713 98,-734 179,-734 179,-713 98,-713"/>
<text text-anchor="start" x="103" y="-721" font-family="Linux libertine" font-size="10.00">(1, 64, 32, 32) </text>
<polygon fill="none" stroke="black" points="50,-692 50,-713 98,-713 98,-692 50,-692"/>
<text text-anchor="start" x="55" y="-700" font-family="Linux libertine" font-size="10.00">output: </text>
<polygon fill="none" stroke="black" points="98,-692 98,-713 179,-713 179,-692 98,-692"/>
<text text-anchor="start" x="103" y="-700" font-family="Linux libertine" font-size="10.00">(1, 64, 32, 32) </text>
</g>
<!-- 7&#45;&gt;8 -->
<g id="edge8" class="edge">
<title>7&#45;&gt;8</title>
<path fill="none" stroke="black" d="M91,-769.63C91,-761.82 91,-752.73 91,-744.18"/>
<polygon fill="black" stroke="black" points="94.5,-744.16 91,-734.16 87.5,-744.16 94.5,-744.16"/>
</g>
<!-- 9 -->
<g id="node10" class="node">
<title>9</title>
<polygon fill="#c1ffc1" stroke="transparent" points="182,-656 0,-656 0,-614 182,-614 182,-656"/>
<polygon fill="none" stroke="black" points="0,-614 0,-656 47,-656 47,-614 0,-614"/>
<text text-anchor="start" x="5" y="-638" font-family="Linux libertine" font-size="10.00">Conv2d</text>
<text text-anchor="start" x="5" y="-627" font-family="Linux libertine" font-size="10.00">depth:1</text>
<polygon fill="none" stroke="black" points="47,-635 47,-656 95,-656 95,-635 47,-635"/>
<text text-anchor="start" x="57" y="-643" font-family="Linux libertine" font-size="10.00">input:</text>
<polygon fill="none" stroke="black" points="95,-635 95,-656 182,-656 182,-635 95,-635"/>
<text text-anchor="start" x="103" y="-643" font-family="Linux libertine" font-size="10.00">(1, 64, 32, 32) </text>
<polygon fill="none" stroke="black" points="47,-614 47,-635 95,-635 95,-614 47,-614"/>
<text text-anchor="start" x="52" y="-622" font-family="Linux libertine" font-size="10.00">output: </text>
<polygon fill="none" stroke="black" points="95,-614 95,-635 182,-635 182,-614 95,-614"/>
<text text-anchor="start" x="100" y="-622" font-family="Linux libertine" font-size="10.00">(1, 128, 16, 16) </text>
</g>
<!-- 8&#45;&gt;9 -->
<g id="edge9" class="edge">
<title>8&#45;&gt;9</title>
<path fill="none" stroke="black" d="M91,-691.63C91,-683.82 91,-674.73 91,-666.18"/>
<polygon fill="black" stroke="black" points="94.5,-666.16 91,-656.16 87.5,-666.16 94.5,-666.16"/>
</g>
<!-- 10 -->
<g id="node11" class="node">
<title>10</title>
<polygon fill="#c1ffc1" stroke="transparent" points="182,-578 0,-578 0,-536 182,-536 182,-578"/>
<polygon fill="none" stroke="black" points="0,-536 0,-578 47,-578 47,-536 0,-536"/>
<text text-anchor="start" x="10" y="-560" font-family="Linux libertine" font-size="10.00">GELU</text>
<text text-anchor="start" x="5" y="-549" font-family="Linux libertine" font-size="10.00">depth:1</text>
<polygon fill="none" stroke="black" points="47,-557 47,-578 95,-578 95,-557 47,-557"/>
<text text-anchor="start" x="57" y="-565" font-family="Linux libertine" font-size="10.00">input:</text>
<polygon fill="none" stroke="black" points="95,-557 95,-578 182,-578 182,-557 95,-557"/>
<text text-anchor="start" x="100" y="-565" font-family="Linux libertine" font-size="10.00">(1, 128, 16, 16) </text>
<polygon fill="none" stroke="black" points="47,-536 47,-557 95,-557 95,-536 47,-536"/>
<text text-anchor="start" x="52" y="-544" font-family="Linux libertine" font-size="10.00">output: </text>
<polygon fill="none" stroke="black" points="95,-536 95,-557 182,-557 182,-536 95,-536"/>
<text text-anchor="start" x="100" y="-544" font-family="Linux libertine" font-size="10.00">(1, 128, 16, 16) </text>
</g>
<!-- 9&#45;&gt;10 -->
<g id="edge10" class="edge">
<title>9&#45;&gt;10</title>
<path fill="none" stroke="black" d="M91,-613.63C91,-605.82 91,-596.73 91,-588.18"/>
<polygon fill="black" stroke="black" points="94.5,-588.16 91,-578.16 87.5,-588.16 94.5,-588.16"/>
</g>
<!-- 11 -->
<g id="node12" class="node">
<title>11</title>
<polygon fill="#c1ffc1" stroke="transparent" points="182,-500 0,-500 0,-458 182,-458 182,-500"/>
<polygon fill="none" stroke="black" points="0,-458 0,-500 47,-500 47,-458 0,-458"/>
<text text-anchor="start" x="5" y="-482" font-family="Linux libertine" font-size="10.00">Conv2d</text>
<text text-anchor="start" x="5" y="-471" font-family="Linux libertine" font-size="10.00">depth:1</text>
<polygon fill="none" stroke="black" points="47,-479 47,-500 95,-500 95,-479 47,-479"/>
<text text-anchor="start" x="57" y="-487" font-family="Linux libertine" font-size="10.00">input:</text>
<polygon fill="none" stroke="black" points="95,-479 95,-500 182,-500 182,-479 95,-479"/>
<text text-anchor="start" x="100" y="-487" font-family="Linux libertine" font-size="10.00">(1, 128, 16, 16) </text>
<polygon fill="none" stroke="black" points="47,-458 47,-479 95,-479 95,-458 47,-458"/>
<text text-anchor="start" x="52" y="-466" font-family="Linux libertine" font-size="10.00">output: </text>
<polygon fill="none" stroke="black" points="95,-458 95,-479 182,-479 182,-458 95,-458"/>
<text text-anchor="start" x="100" y="-466" font-family="Linux libertine" font-size="10.00">(1, 128, 16, 16) </text>
</g>
<!-- 10&#45;&gt;11 -->
<g id="edge11" class="edge">
<title>10&#45;&gt;11</title>
<path fill="none" stroke="black" d="M91,-535.63C91,-527.82 91,-518.73 91,-510.18"/>
<polygon fill="black" stroke="black" points="94.5,-510.16 91,-500.16 87.5,-510.16 94.5,-510.16"/>
</g>
<!-- 12 -->
<g id="node13" class="node">
<title>12</title>
<polygon fill="#c1ffc1" stroke="transparent" points="182,-422 0,-422 0,-380 182,-380 182,-422"/>
<polygon fill="none" stroke="black" points="0,-380 0,-422 47,-422 47,-380 0,-380"/>
<text text-anchor="start" x="10" y="-404" font-family="Linux libertine" font-size="10.00">GELU</text>
<text text-anchor="start" x="5" y="-393" font-family="Linux libertine" font-size="10.00">depth:1</text>
<polygon fill="none" stroke="black" points="47,-401 47,-422 95,-422 95,-401 47,-401"/>
<text text-anchor="start" x="57" y="-409" font-family="Linux libertine" font-size="10.00">input:</text>
<polygon fill="none" stroke="black" points="95,-401 95,-422 182,-422 182,-401 95,-401"/>
<text text-anchor="start" x="100" y="-409" font-family="Linux libertine" font-size="10.00">(1, 128, 16, 16) </text>
<polygon fill="none" stroke="black" points="47,-380 47,-401 95,-401 95,-380 47,-380"/>
<text text-anchor="start" x="52" y="-388" font-family="Linux libertine" font-size="10.00">output: </text>
<polygon fill="none" stroke="black" points="95,-380 95,-401 182,-401 182,-380 95,-380"/>
<text text-anchor="start" x="100" y="-388" font-family="Linux libertine" font-size="10.00">(1, 128, 16, 16) </text>
</g>
<!-- 11&#45;&gt;12 -->
<g id="edge12" class="edge">
<title>11&#45;&gt;12</title>
<path fill="none" stroke="black" d="M91,-457.63C91,-449.82 91,-440.73 91,-432.18"/>
<polygon fill="black" stroke="black" points="94.5,-432.16 91,-422.16 87.5,-432.16 94.5,-432.16"/>
</g>
<!-- 13 -->
<g id="node14" class="node">
<title>13</title>
<polygon fill="#c1ffc1" stroke="transparent" points="182,-344 0,-344 0,-302 182,-302 182,-344"/>
<polygon fill="none" stroke="black" points="0,-302 0,-344 47,-344 47,-302 0,-302"/>
<text text-anchor="start" x="5" y="-326" font-family="Linux libertine" font-size="10.00">Conv2d</text>
<text text-anchor="start" x="5" y="-315" font-family="Linux libertine" font-size="10.00">depth:1</text>
<polygon fill="none" stroke="black" points="47,-323 47,-344 95,-344 95,-323 47,-323"/>
<text text-anchor="start" x="57" y="-331" font-family="Linux libertine" font-size="10.00">input:</text>
<polygon fill="none" stroke="black" points="95,-323 95,-344 182,-344 182,-323 95,-323"/>
<text text-anchor="start" x="100" y="-331" font-family="Linux libertine" font-size="10.00">(1, 128, 16, 16) </text>
<polygon fill="none" stroke="black" points="47,-302 47,-323 95,-323 95,-302 47,-302"/>
<text text-anchor="start" x="52" y="-310" font-family="Linux libertine" font-size="10.00">output: </text>
<polygon fill="none" stroke="black" points="95,-302 95,-323 182,-323 182,-302 95,-302"/>
<text text-anchor="start" x="106" y="-310" font-family="Linux libertine" font-size="10.00">(1, 128, 8, 8) </text>
</g>
<!-- 12&#45;&gt;13 -->
<g id="edge13" class="edge">
<title>12&#45;&gt;13</title>
<path fill="none" stroke="black" d="M91,-379.63C91,-371.82 91,-362.73 91,-354.18"/>
<polygon fill="black" stroke="black" points="94.5,-354.16 91,-344.16 87.5,-354.16 94.5,-354.16"/>
</g>
<!-- 14 -->
<g id="node15" class="node">
<title>14</title>
<polygon fill="#c1ffc1" stroke="transparent" points="176,-266 6,-266 6,-224 176,-224 176,-266"/>
<polygon fill="none" stroke="black" points="6,-224 6,-266 53,-266 53,-224 6,-224"/>
<text text-anchor="start" x="16" y="-248" font-family="Linux libertine" font-size="10.00">GELU</text>
<text text-anchor="start" x="11" y="-237" font-family="Linux libertine" font-size="10.00">depth:1</text>
<polygon fill="none" stroke="black" points="53,-245 53,-266 101,-266 101,-245 53,-245"/>
<text text-anchor="start" x="63" y="-253" font-family="Linux libertine" font-size="10.00">input:</text>
<polygon fill="none" stroke="black" points="101,-245 101,-266 176,-266 176,-245 101,-245"/>
<text text-anchor="start" x="106" y="-253" font-family="Linux libertine" font-size="10.00">(1, 128, 8, 8) </text>
<polygon fill="none" stroke="black" points="53,-224 53,-245 101,-245 101,-224 53,-224"/>
<text text-anchor="start" x="58" y="-232" font-family="Linux libertine" font-size="10.00">output: </text>
<polygon fill="none" stroke="black" points="101,-224 101,-245 176,-245 176,-224 101,-224"/>
<text text-anchor="start" x="106" y="-232" font-family="Linux libertine" font-size="10.00">(1, 128, 8, 8) </text>
</g>
<!-- 13&#45;&gt;14 -->
<g id="edge14" class="edge">
<title>13&#45;&gt;14</title>
<path fill="none" stroke="black" d="M91,-301.63C91,-293.82 91,-284.73 91,-276.18"/>
<polygon fill="black" stroke="black" points="94.5,-276.16 91,-266.16 87.5,-276.16 94.5,-276.16"/>
</g>
<!-- 15 -->
<g id="node16" class="node">
<title>15</title>
<polygon fill="#c1ffc1" stroke="transparent" points="176,-188 6,-188 6,-146 176,-146 176,-188"/>
<polygon fill="none" stroke="black" points="6,-146 6,-188 53,-188 53,-146 6,-146"/>
<text text-anchor="start" x="12" y="-170" font-family="Linux libertine" font-size="10.00">Flatten</text>
<text text-anchor="start" x="11" y="-159" font-family="Linux libertine" font-size="10.00">depth:1</text>
<polygon fill="none" stroke="black" points="53,-167 53,-188 101,-188 101,-167 53,-167"/>
<text text-anchor="start" x="63" y="-175" font-family="Linux libertine" font-size="10.00">input:</text>
<polygon fill="none" stroke="black" points="101,-167 101,-188 176,-188 176,-167 101,-167"/>
<text text-anchor="start" x="106" y="-175" font-family="Linux libertine" font-size="10.00">(1, 128, 8, 8) </text>
<polygon fill="none" stroke="black" points="53,-146 53,-167 101,-167 101,-146 53,-146"/>
<text text-anchor="start" x="58" y="-154" font-family="Linux libertine" font-size="10.00">output: </text>
<polygon fill="none" stroke="black" points="101,-146 101,-167 176,-167 176,-146 101,-146"/>
<text text-anchor="start" x="115" y="-154" font-family="Linux libertine" font-size="10.00">(1, 8192) </text>
</g>
<!-- 14&#45;&gt;15 -->
<g id="edge15" class="edge">
<title>14&#45;&gt;15</title>
<path fill="none" stroke="black" d="M91,-223.63C91,-215.82 91,-206.73 91,-198.18"/>
<polygon fill="black" stroke="black" points="94.5,-198.16 91,-188.16 87.5,-198.16 94.5,-198.16"/>
</g>
<!-- 16 -->
<g id="node17" class="node">
<title>16</title>
<polygon fill="#c1ffc1" stroke="transparent" points="167,-110 15,-110 15,-68 167,-68 167,-110"/>
<polygon fill="none" stroke="black" points="15,-68 15,-110 62,-110 62,-68 15,-68"/>
<text text-anchor="start" x="23" y="-92" font-family="Linux libertine" font-size="10.00">Linear</text>
<text text-anchor="start" x="20" y="-81" font-family="Linux libertine" font-size="10.00">depth:1</text>
<polygon fill="none" stroke="black" points="62,-89 62,-110 110,-110 110,-89 62,-89"/>
<text text-anchor="start" x="72" y="-97" font-family="Linux libertine" font-size="10.00">input:</text>
<polygon fill="none" stroke="black" points="110,-89 110,-110 167,-110 167,-89 110,-89"/>
<text text-anchor="start" x="115" y="-97" font-family="Linux libertine" font-size="10.00">(1, 8192) </text>
<polygon fill="none" stroke="black" points="62,-68 62,-89 110,-89 110,-68 62,-68"/>
<text text-anchor="start" x="67" y="-76" font-family="Linux libertine" font-size="10.00">output: </text>
<polygon fill="none" stroke="black" points="110,-68 110,-89 167,-89 167,-68 110,-68"/>
<text text-anchor="start" x="118" y="-76" font-family="Linux libertine" font-size="10.00">(1, 512) </text>
</g>
<!-- 15&#45;&gt;16 -->
<g id="edge16" class="edge">
<title>15&#45;&gt;16</title>
<path fill="none" stroke="black" d="M91,-145.63C91,-137.82 91,-128.73 91,-120.18"/>
<polygon fill="black" stroke="black" points="94.5,-120.16 91,-110.16 87.5,-120.16 94.5,-120.16"/>
</g>
<!-- 17 -->
<g id="node18" class="node">
<title>17</title>
<polygon fill="lightyellow" stroke="transparent" points="153.5,-32 28.5,-32 28.5,0 153.5,0 153.5,-32"/>
<polygon fill="none" stroke="black" points="29,0 29,-32 106,-32 106,0 29,0"/>
<text text-anchor="start" x="34" y="-19" font-family="Linux libertine" font-size="10.00">output&#45;tensor</text>
<text text-anchor="start" x="49" y="-8" font-family="Linux libertine" font-size="10.00">depth:0</text>
<polygon fill="none" stroke="black" points="106,0 106,-32 154,-32 154,0 106,0"/>
<text text-anchor="start" x="111" y="-13.5" font-family="Linux libertine" font-size="10.00">(1, 512)</text>
</g>
<!-- 16&#45;&gt;17 -->
<g id="edge17" class="edge">
<title>16&#45;&gt;17</title>
<path fill="none" stroke="black" d="M91,-67.84C91,-59.89 91,-50.66 91,-42.26"/>
<polygon fill="black" stroke="black" points="94.5,-42.24 91,-32.24 87.5,-42.24 94.5,-42.24"/>
</g>
</g>
</svg>
