<?xml version="1.0" encoding="UTF-8" standalone="no"?>
<!DOCTYPE svg PUBLIC "-//W3C//DTD SVG 1.1//EN"
 "http://www.w3.org/Graphics/SVG/1.1/DTD/svg11.dtd">
<!-- Generated by graphviz version 2.50.0 (0)
 -->
<!-- Title: model Pages: 1 -->
<svg width="144pt" height="864pt"
 viewBox="0.00 0.00 144.00 864.00" xmlns="http://www.w3.org/2000/svg" xmlns:xlink="http://www.w3.org/1999/xlink">
<g id="graph0" class="graph" transform="scale(0.6 0.6) rotate(0) translate(4 1430)">
<title>model</title>
<polygon fill="white" stroke="transparent" points="-4,4 -4,-1430 235,-1430 235,4 -4,4"/>
<!-- 0 -->
<g id="node1" class="node">
<title>0</title>
<polygon fill="lightyellow" stroke="transparent" points="174.5,-1426 56.5,-1426 56.5,-1394 174.5,-1394 174.5,-1426"/>
<polygon fill="none" stroke="black" points="56.5,-1394 56.5,-1426 126.5,-1426 126.5,-1394 56.5,-1394"/>
<text text-anchor="start" x="61.5" y="-1413" font-family="Linux libertine" font-size="10.00">input&#45;tensor</text>
<text text-anchor="start" x="73" y="-1402" font-family="Linux libertine" font-size="10.00">depth:0</text>
<polygon fill="none" stroke="black" points="126.5,-1394 126.5,-1426 174.5,-1426 174.5,-1394 126.5,-1394"/>
<text text-anchor="start" x="131.5" y="-1407.5" font-family="Linux libertine" font-size="10.00">(1, 512)</text>
</g>
<!-- 1 -->
<g id="node2" class="node">
<title>1</title>
<polygon fill="#c1ffc1" stroke="transparent" points="191.5,-1358 39.5,-1358 39.5,-1316 191.5,-1316 191.5,-1358"/>
<polygon fill="none" stroke="black" points="39.5,-1316 39.5,-1358 86.5,-1358 86.5,-1316 39.5,-1316"/>
<text text-anchor="start" x="47.5" y="-1340" font-family="Linux libertine" font-size="10.00">Linear</text>
<text text-anchor="start" x="44.5" y="-1329" font-family="Linux libertine" font-size="10.00">depth:1</text>
<polygon fill="none" stroke="black" points="86.5,-1337 86.5,-1358 134.5,-1358 134.5,-1337 86.5,-1337"/>
<text text-anchor="start" x="96.5" y="-1345" font-family="Linux libertine" font-size="10.00">input:</text>
<polygon fill="none" stroke="black" points="134.5,-1337 134.5,-1358 191.5,-1358 191.5,-1337 134.5,-1337"/>
<text text-anchor="start" x="142.5" y="-1345" font-family="Linux libertine" font-size="10.00">(1, 512) </text>
<polygon fill="none" stroke="black" points="86.5,-1316 86.5,-1337 134.5,-1337 134.5,-1316 86.5,-1316"/>
<text text-anchor="start" x="91.5" y="-1324" font-family="Linux libertine" font-size="10.00">output: </text>
<polygon fill="none" stroke="black" points="134.5,-1316 134.5,-1337 191.5,-1337 191.5,-1316 134.5,-1316"/>
<text text-anchor="start" x="139.5" y="-1324" font-family="Linux libertine" font-size="10.00">(1, 8192) </text>
</g>
<!-- 0&#45;&gt;1 -->
<g id="edge1" class="edge">
<title>0&#45;&gt;1</title>
<path fill="none" stroke="black" d="M115.5,-1393.94C115.5,-1386.45 115.5,-1377.12 115.5,-1368.24"/>
<polygon fill="black" stroke="black" points="119,-1368.16 115.5,-1358.16 112,-1368.16 119,-1368.16"/>
</g>
<!-- 2 -->
<g id="node3" class="node">
<title>2</title>
<polygon fill="#c1ffc1" stroke="transparent" points="191.5,-1280 39.5,-1280 39.5,-1238 191.5,-1238 191.5,-1280"/>
<polygon fill="none" stroke="black" points="39.5,-1238 39.5,-1280 86.5,-1280 86.5,-1238 39.5,-1238"/>
<text text-anchor="start" x="49.5" y="-1262" font-family="Linux libertine" font-size="10.00">GELU</text>
<text text-anchor="start" x="44.5" y="-1251" font-family="Linux libertine" font-size="10.00">depth:1</text>
<polygon fill="none" stroke="black" points="86.5,-1259 86.5,-1280 134.5,-1280 134.5,-1259 86.5,-1259"/>
<text text-anchor="start" x="96.5" y="-1267" font-family="Linux libertine" font-size="10.00">input:</text>
<polygon fill="none" stroke="black" points="134.5,-1259 134.5,-1280 191.5,-1280 191.5,-1259 134.5,-1259"/>
<text text-anchor="start" x="139.5" y="-1267" font-family="Linux libertine" font-size="10.00">(1, 8192) </text>
<polygon fill="none" stroke="black" points="86.5,-1238 86.5,-1259 134.5,-1259 134.5,-1238 86.5,-1238"/>
<text text-anchor="start" x="91.5" y="-1246" font-family="Linux libertine" font-size="10.00">output: </text>
<polygon fill="none" stroke="black" points="134.5,-1238 134.5,-1259 191.5,-1259 191.5,-1238 134.5,-1238"/>
<text text-anchor="start" x="139.5" y="-1246" font-family="Linux libertine" font-size="10.00">(1, 8192) </text>
</g>
<!-- 1&#45;&gt;2 -->
<g id="edge2" class="edge">
<title>1&#45;&gt;2</title>
<path fill="none" stroke="black" d="M115.5,-1315.63C115.5,-1307.82 115.5,-1298.73 115.5,-1290.18"/>
<polygon fill="black" stroke="black" points="119,-1290.16 115.5,-1280.16 112,-1290.16 119,-1290.16"/>
</g>
<!-- 3 -->
<g id="node4" class="node">
<title>3</title>
<polygon fill="aliceblue" stroke="transparent" points="202,-1202 29,-1202 29,-1160 202,-1160 202,-1202"/>
<polygon fill="none" stroke="black" points="29.5,-1160 29.5,-1202 79.5,-1202 79.5,-1160 29.5,-1160"/>
<text text-anchor="start" x="34.5" y="-1184" font-family="Linux libertine" font-size="10.00">reshape</text>
<text text-anchor="start" x="36" y="-1173" font-family="Linux libertine" font-size="10.00">depth:1</text>
<polygon fill="none" stroke="black" points="79.5,-1181 79.5,-1202 127.5,-1202 127.5,-1181 79.5,-1181"/>
<text text-anchor="start" x="89.5" y="-1189" font-family="Linux libertine" font-size="10.00">input:</text>
<polygon fill="none" stroke="black" points="127.5,-1181 127.5,-1202 202.5,-1202 202.5,-1181 127.5,-1181"/>
<text text-anchor="start" x="141.5" y="-1189" font-family="Linux libertine" font-size="10.00">(1, 8192) </text>
<polygon fill="none" stroke="black" points="79.5,-1160 79.5,-1181 127.5,-1181 127.5,-1160 79.5,-1160"/>
<text text-anchor="start" x="84.5" y="-1168" font-family="Linux libertine" font-size="10.00">output: </text>
<polygon fill="none" stroke="black" points="127.5,-1160 127.5,-1181 202.5,-1181 202.5,-1160 127.5,-1160"/>
<text text-anchor="start" x="132.5" y="-1168" font-family="Linux libertine" font-size="10.00">(1, 128, 8, 8) </text>
</g>
<!-- 2&#45;&gt;3 -->
<g id="edge3" class="edge">
<title>2&#45;&gt;3</title>
<path fill="none" stroke="black" d="M115.5,-1237.63C115.5,-1229.82 115.5,-1220.73 115.5,-1212.18"/>
<polygon fill="black" stroke="black" points="119,-1212.16 115.5,-1202.16 112,-1212.16 119,-1212.16"/>
</g>
<!-- 4 -->
<g id="node5" class="node">
<title>4</title>
<polygon fill="#c1ffc1" stroke="transparent" points="231,-1124 0,-1124 0,-1082 231,-1082 231,-1124"/>
<polygon fill="none" stroke="black" points="0.5,-1082 0.5,-1124 96.5,-1124 96.5,-1082 0.5,-1082"/>
<text text-anchor="start" x="5.5" y="-1106" font-family="Linux libertine" font-size="10.00">ConvTranspose2d</text>
<text text-anchor="start" x="30" y="-1095" font-family="Linux libertine" font-size="10.00">depth:1</text>
<polygon fill="none" stroke="black" points="96.5,-1103 96.5,-1124 144.5,-1124 144.5,-1103 96.5,-1103"/>
<text text-anchor="start" x="106.5" y="-1111" font-family="Linux libertine" font-size="10.00">input:</text>
<polygon fill="none" stroke="black" points="144.5,-1103 144.5,-1124 231.5,-1124 231.5,-1103 144.5,-1103"/>
<text text-anchor="start" x="155.5" y="-1111" font-family="Linux libertine" font-size="10.00">(1, 128, 8, 8) </text>
<polygon fill="none" stroke="black" points="96.5,-1082 96.5,-1103 144.5,-1103 144.5,-1082 96.5,-1082"/>
<text text-anchor="start" x="101.5" y="-1090" font-family="Linux libertine" font-size="10.00">output: </text>
<polygon fill="none" stroke="black" points="144.5,-1082 144.5,-1103 231.5,-1103 231.5,-1082 144.5,-1082"/>
<text text-anchor="start" x="149.5" y="-1090" font-family="Linux libertine" font-size="10.00">(1, 128, 16, 16) </text>
</g>
<!-- 3&#45;&gt;4 -->
<g id="edge4" class="edge">
<title>3&#45;&gt;4</title>
<path fill="none" stroke="black" d="M115.5,-1159.63C115.5,-1151.82 115.5,-1142.73 115.5,-1134.18"/>
<polygon fill="black" stroke="black" points="119,-1134.16 115.5,-1124.16 112,-1134.16 119,-1134.16"/>
</g>
<!-- 5 -->
<g id="node6" class="node">
<title>5</title>
<polygon fill="#c1ffc1" stroke="transparent" points="206.5,-1046 24.5,-1046 24.5,-1004 206.5,-1004 206.5,-1046"/>
<polygon fill="none" stroke="black" points="24.5,-1004 24.5,-1046 71.5,-1046 71.5,-1004 24.5,-1004"/>
<text text-anchor="start" x="34.5" y="-1028" font-family="Linux libertine" font-size="10.00">GELU</text>
<text text-anchor="start" x="29.5" y="-1017" font-family="Linux libertine" font-size="10.00">depth:1</text>
<polygon fill="none" stroke="black" points="71.5,-1025 71.5,-1046 119.5,-1046 119.5,-1025 71.5,-1025"/>
<text text-anchor="start" x="81.5" y="-1033" font-family="Linux libertine" font-size="10.00">input:</text>
<polygon fill="none" stroke="black" points="119.5,-1025 119.5,-1046 206.5,-1046 206.5,-1025 119.5,-1025"/>
<text text-anchor="start" x="124.5" y="-1033" font-family="Linux libertine" font-size="10.00">(1, 128, 16, 16) </text>
<polygon fill="none" stroke="black" points="71.5,-1004 71.5,-1025 119.5,-1025 119.5,-1004 71.5,-1004"/>
<text text-anchor="start" x="76.5" y="-1012" font-family="Linux libertine" font-size="10.00">output: </text>
<polygon fill="none" stroke="black" points="119.5,-1004 119.5,-1025 206.5,-1025 206.5,-1004 119.5,-1004"/>
<text text-anchor="start" x="124.5" y="-1012" font-family="Linux libertine" font-size="10.00">(1, 128, 16, 16) </text>
</g>
<!-- 4&#45;&gt;5 -->
<g id="edge5" class="edge">
<title>4&#45;&gt;5</title>
<path fill="none" stroke="black" d="M115.5,-1081.63C115.5,-1073.82 115.5,-1064.73 115.5,-1056.18"/>
<polygon fill="black" stroke="black" points="119,-1056.16 115.5,-1046.16 112,-1056.16 119,-1056.16"/>
</g>
<!-- 6 -->
<g id="node7" class="node">
<title>6</title>
<polygon fill="#c1ffc1" stroke="transparent" points="206.5,-968 24.5,-968 24.5,-926 206.5,-926 206.5,-968"/>
<polygon fill="none" stroke="black" points="24.5,-926 24.5,-968 71.5,-968 71.5,-926 24.5,-926"/>
<text text-anchor="start" x="29.5" y="-950" font-family="Linux libertine" font-size="10.00">Conv2d</text>
<text text-anchor="start" x="29.5" y="-939" font-family="Linux libertine" font-size="10.00">depth:1</text>
<polygon fill="none" stroke="black" points="71.5,-947 71.5,-968 119.5,-968 119.5,-947 71.5,-947"/>
<text text-anchor="start" x="81.5" y="-955" font-family="Linux libertine" font-size="10.00">input:</text>
<polygon fill="none" stroke="black" points="119.5,-947 119.5,-968 206.5,-968 206.5,-947 119.5,-947"/>
<text text-anchor="start" x="124.5" y="-955" font-family="Linux libertine" font-size="10.00">(1, 128, 16, 16) </text>
<polygon fill="none" stroke="black" points="71.5,-926 71.5,-947 119.5,-947 119.5,-926 71.5,-926"/>
<text text-anchor="start" x="76.5" y="-934" font-family="Linux libertine" font-size="10.00">output: </text>
<polygon fill="none" stroke="black" points="119.5,-926 119.5,-947 206.5,-947 206.5,-926 119.5,-926"/>
<text text-anchor="start" x="124.5" y="-934" font-family="Linux libertine" font-size="10.00">(1, 128, 16, 16) </text>
</g>
<!-- 5&#45;&gt;6 -->
<g id="edge6" class="edge">
<title>5&#45;&gt;6</title>
<path fill="none" stroke="black" d="M115.5,-1003.63C115.5,-995.82 115.5,-986.73 115.5,-978.18"/>
<polygon fill="black" stroke="black" points="119,-978.16 115.5,-968.16 112,-978.16 119,-978.16"/>
</g>
<!-- 7 -->
<g id="node8" class="node">
<title>7</title>
<polygon fill="#c1ffc1" stroke="transparent" points="206.5,-890 24.5,-890 24.5,-848 206.5,-848 206.5,-890"/>
<polygon fill="none" stroke="black" points="24.5,-848 24.5,-890 71.5,-890 71.5,-848 24.5,-848"/>
<text text-anchor="start" x="34.5" y="-872" font-family="Linux libertine" font-size="10.00">GELU</text>
<text text-anchor="start" x="29.5" y="-861" font-family="Linux libertine" font-size="10.00">depth:1</text>
<polygon fill="none" stroke="black" points="71.5,-869 71.5,-890 119.5,-890 119.5,-869 71.5,-869"/>
<text text-anchor="start" x="81.5" y="-877" font-family="Linux libertine" font-size="10.00">input:</text>
<polygon fill="none" stroke="black" points="119.5,-869 119.5,-890 206.5,-890 206.5,-869 119.5,-869"/>
<text text-anchor="start" x="124.5" y="-877" font-family="Linux libertine" font-size="10.00">(1, 128, 16, 16) </text>
<polygon fill="none" stroke="black" points="71.5,-848 71.5,-869 119.5,-869 119.5,-848 71.5,-848"/>
<text text-anchor="start" x="76.5" y="-856" font-family="Linux libertine" font-size="10.00">output: </text>
<polygon fill="none" stroke="black" points="119.5,-848 119.5,-869 206.5,-869 206.5,-848 119.5,-848"/>
<text text-anchor="start" x="124.5" y="-856" font-family="Linux libertine" font-size="10.00">(1, 128, 16, 16) </text>
</g>
<!-- 6&#45;&gt;7 -->
<g id="edge7" class="edge">
<title>6&#45;&gt;7</title>
<path fill="none" stroke="black" d="M115.5,-925.63C115.5,-917.82 115.5,-908.73 115.5,-900.18"/>
<polygon fill="black" stroke="black" points="119,-900.16 115.5,-890.16 112,-900.16 119,-900.16"/>
</g>
<!-- 8 -->
<g id="node9" class="node">
<title>8</title>
<polygon fill="#c1ffc1" stroke="transparent" points="231,-812 0,-812 0,-770 231,-770 231,-812"/>
<polygon fill="none" stroke="black" points="0.5,-770 0.5,-812 96.5,-812 96.5,-770 0.5,-770"/>
<text text-anchor="start" x="5.5" y="-794" font-family="Linux libertine" font-size="10.00">ConvTranspose2d</text>
<text text-anchor="start" x="30" y="-783" font-family="Linux libertine" font-size="10.00">depth:1</text>
<polygon fill="none" stroke="black" points="96.5,-791 96.5,-812 144.5,-812 144.5,-791 96.5,-791"/>
<text text-anchor="start" x="106.5" y="-799" font-family="Linux libertine" font-size="10.00">input:</text>
<polygon fill="none" stroke="black" points="144.5,-791 144.5,-812 231.5,-812 231.5,-791 144.5,-791"/>
<text text-anchor="start" x="149.5" y="-799" font-family="Linux libertine" font-size="10.00">(1, 128, 16, 16) </text>
<polygon fill="none" stroke="black" points="96.5,-770 96.5,-791 144.5,-791 144.5,-770 96.5,-770"/>
<text text-anchor="start" x="101.5" y="-778" font-family="Linux libertine" font-size="10.00">output: </text>
<polygon fill="none" stroke="black" points="144.5,-770 144.5,-791 231.5,-791 231.5,-770 144.5,-770"/>
<text text-anchor="start" x="152.5" y="-778" font-family="Linux libertine" font-size="10.00">(1, 64, 32, 32) </text>
</g>
<!-- 7&#45;&gt;8 -->
<g id="edge8" class="edge">
<title>7&#45;&gt;8</title>
<path fill="none" stroke="black" d="M115.5,-847.63C115.5,-839.82 115.5,-830.73 115.5,-822.18"/>
<polygon fill="black" stroke="black" points="119,-822.16 115.5,-812.16 112,-822.16 119,-822.16"/>
</g>
<!-- 9 -->
<g id="node10" class="node">
<title>9</title>
<polygon fill="#c1ffc1" stroke="transparent" points="203.5,-734 27.5,-734 27.5,-692 203.5,-692 203.5,-734"/>
<polygon fill="none" stroke="black" points="27.5,-692 27.5,-734 74.5,-734 74.5,-692 27.5,-692"/>
<text text-anchor="start" x="37.5" y="-716" font-family="Linux libertine" font-size="10.00">GELU</text>
<text text-anchor="start" x="32.5" y="-705" font-family="Linux libertine" font-size="10.00">depth:1</text>
<polygon fill="none" stroke="black" points="74.5,-713 74.5,-734 122.5,-734 122.5,-713 74.5,-713"/>
<text text-anchor="start" x="84.5" y="-721" font-family="Linux libertine" font-size="10.00">input:</text>
<polygon fill="none" stroke="black" points="122.5,-713 122.5,-734 203.5,-734 203.5,-713 122.5,-713"/>
<text text-anchor="start" x="127.5" y="-721" font-family="Linux libertine" font-size="10.00">(1, 64, 32, 32) </text>
<polygon fill="none" stroke="black" points="74.5,-692 74.5,-713 122.5,-713 122.5,-692 74.5,-692"/>
<text text-anchor="start" x="79.5" y="-700" font-family="Linux libertine" font-size="10.00">output: </text>
<polygon fill="none" stroke="black" points="122.5,-692 122.5,-713 203.5,-713 203.5,-692 122.5,-692"/>
<text text-anchor="start" x="127.5" y="-700" font-family="Linux libertine" font-size="10.00">(1, 64, 32, 32) </text>
</g>
<!-- 8&#45;&gt;9 -->
<g id="edge9" class="edge">
<title>8&#45;&gt;9</title>
<path fill="none" stroke="black" d="M115.5,-769.63C115.5,-761.82 115.5,-752.73 115.5,-744.18"/>
<polygon fill="black" stroke="black" points="119,-744.16 115.5,-734.16 112,-744.16 119,-744.16"/>
</g>
<!-- 10 -->
<g id="node11" class="node">
<title>10</title>
<polygon fill="#c1ffc1" stroke="transparent" points="203.5,-656 27.5,-656 27.5,-614 203.5,-614 203.5,-656"/>
<polygon fill="none" stroke="black" points="27.5,-614 27.5,-656 74.5,-656 74.5,-614 27.5,-614"/>
<text text-anchor="start" x="32.5" y="-638" font-family="Linux libertine" font-size="10.00">Conv2d</text>
<text text-anchor="start" x="32.5" y="-627" font-family="Linux libertine" font-size="10.00">depth:1</text>
<polygon fill="none" stroke="black" points="74.5,-635 74.5,-656 122.5,-656 122.5,-635 74.5,-635"/>
<text text-anchor="start" x="84.5" y="-643" font-family="Linux libertine" font-size="10.00">input:</text>
<polygon fill="none" stroke="black" points="122.5,-635 122.5,-656 203.5,-656 203.5,-635 122.5,-635"/>
<text text-anchor="start" x="127.5" y="-643" font-family="Linux libertine" font-size="10.00">(1, 64, 32, 32) </text>
<polygon fill="none" stroke="black" points="74.5,-614 74.5,-635 122.5,-635 122.5,-614 74.5,-614"/>
<text text-anchor="start" x="79.5" y="-622" font-family="Linux libertine" font-size="10.00">output: </text>
<polygon fill="none" stroke="black" points="122.5,-614 122.5,-635 203.5,-635 203.5,-614 122.5,-614"/>
<text text-anchor="start" x="127.5" y="-622" font-family="Linux libertine" font-size="10.00">(1, 64, 32, 32) </text>
</g>
<!-- 9&#45;&gt;10 -->
<g id="edge10" class="edge">
<title>9&#45;&gt;10</title>
<path fill="none" stroke="black" d="M115.5,-691.63C115.5,-683.82 115.5,-674.73 115.5,-666.18"/>
<polygon fill="black" stroke="black" points="119,-666.16 115.5,-656.16 112,-666.16 119,-666.16"/>
</g>
<!-- 11 -->
<g id="node12" class="node">
<title>11</title>
<polygon fill="#c1ffc1" stroke="transparent" points="203.5,-578 27.5,-578 27.5,-536 203.5,-536 203.5,-578"/>
<polygon fill="none" stroke="black" points="27.5,-536 27.5,-578 74.5,-578 74.5,-536 27.5,-536"/>
<text text-anchor="start" x="37.5" y="-560" font-family="Linux libertine" font-size="10.00">GELU</text>
<text text-anchor="start" x="32.5" y="-549" font-family="Linux libertine" font-size="10.00">depth:1</text>
<polygon fill="none" stroke="black" points="74.5,-557 74.5,-578 122.5,-578 122.5,-557 74.5,-557"/>
<text text-anchor="start" x="84.5" y="-565" font-family="Linux libertine" font-size="10.00">input:</text>
<polygon fill="none" stroke="black" points="122.5,-557 122.5,-578 203.5,-578 203.5,-557 122.5,-557"/>
<text text-anchor="start" x="127.5" y="-565" font-family="Linux libertine" font-size="10.00">(1, 64, 32, 32) </text>
<polygon fill="none" stroke="black" points="74.5,-536 74.5,-557 122.5,-557 122.5,-536 74.5,-536"/>
<text text-anchor="start" x="79.5" y="-544" font-family="Linux libertine" font-size="10.00">output: </text>
<polygon fill="none" stroke="black" points="122.5,-536 122.5,-557 203.5,-557 203.5,-536 122.5,-536"/>
<text text-anchor="start" x="127.5" y="-544" font-family="Linux libertine" font-size="10.00">(1, 64, 32, 32) </text>
</g>
<!-- 10&#45;&gt;11 -->
<g id="edge11" class="edge">
<title>10&#45;&gt;11</title>
<path fill="none" stroke="black" d="M115.5,-613.63C115.5,-605.82 115.5,-596.73 115.5,-588.18"/>
<polygon fill="black" stroke="black" points="119,-588.16 115.5,-578.16 112,-588.16 119,-588.16"/>
</g>
<!-- 12 -->
<g id="node13" class="node">
<title>12</title>
<polygon fill="#c1ffc1" stroke="transparent" points="228,-500 3,-500 3,-458 228,-458 228,-500"/>
<polygon fill="none" stroke="black" points="3.5,-458 3.5,-500 99.5,-500 99.5,-458 3.5,-458"/>
<text text-anchor="start" x="8.5" y="-482" font-family="Linux libertine" font-size="10.00">ConvTranspose2d</text>
<text text-anchor="start" x="33" y="-471" font-family="Linux libertine" font-size="10.00">depth:1</text>
<polygon fill="none" stroke="black" points="99.5,-479 99.5,-500 147.5,-500 147.5,-479 99.5,-479"/>
<text text-anchor="start" x="109.5" y="-487" font-family="Linux libertine" font-size="10.00">input:</text>
<polygon fill="none" stroke="black" points="147.5,-479 147.5,-500 228.5,-500 228.5,-479 147.5,-479"/>
<text text-anchor="start" x="152.5" y="-487" font-family="Linux libertine" font-size="10.00">(1, 64, 32, 32) </text>
<polygon fill="none" stroke="black" points="99.5,-458 99.5,-479 147.5,-479 147.5,-458 99.5,-458"/>
<text text-anchor="start" x="104.5" y="-466" font-family="Linux libertine" font-size="10.00">output: </text>
<polygon fill="none" stroke="black" points="147.5,-458 147.5,-479 228.5,-479 228.5,-458 147.5,-458"/>
<text text-anchor="start" x="152.5" y="-466" font-family="Linux libertine" font-size="10.00">(1, 32, 64, 64) </text>
</g>
<!-- 11&#45;&gt;12 -->
<g id="edge12" class="edge">
<title>11&#45;&gt;12</title>
<path fill="none" stroke="black" d="M115.5,-535.63C115.5,-527.82 115.5,-518.73 115.5,-510.18"/>
<polygon fill="black" stroke="black" points="119,-510.16 115.5,-500.16 112,-510.16 119,-510.16"/>
</g>
<!-- 13 -->
<g id="node14" class="node">
<title>13</title>
<polygon fill="#c1ffc1" stroke="transparent" points="203.5,-422 27.5,-422 27.5,-380 203.5,-380 203.5,-422"/>
<polygon fill="none" stroke="black" points="27.5,-380 27.5,-422 74.5,-422 74.5,-380 27.5,-380"/>
<text text-anchor="start" x="37.5" y="-404" font-family="Linux libertine" font-size="10.00">GELU</text>
<text text-anchor="start" x="32.5" y="-393" font-family="Linux libertine" font-size="10.00">depth:1</text>
<polygon fill="none" stroke="black" points="74.5,-401 74.5,-422 122.5,-422 122.5,-401 74.5,-401"/>
<text text-anchor="start" x="84.5" y="-409" font-family="Linux libertine" font-size="10.00">input:</text>
<polygon fill="none" stroke="black" points="122.5,-401 122.5,-422 203.5,-422 203.5,-401 122.5,-401"/>
<text text-anchor="start" x="127.5" y="-409" font-family="Linux libertine" font-size="10.00">(1, 32, 64, 64) </text>
<polygon fill="none" stroke="black" points="74.5,-380 74.5,-401 122.5,-401 122.5,-380 74.5,-380"/>
<text text-anchor="start" x="79.5" y="-388" font-family="Linux libertine" font-size="10.00">output: </text>
<polygon fill="none" stroke="black" points="122.5,-380 122.5,-401 203.5,-401 203.5,-380 122.5,-380"/>
<text text-anchor="start" x="127.5" y="-388" font-family="Linux libertine" font-size="10.00">(1, 32, 64, 64) </text>
</g>
<!-- 12&#45;&gt;13 -->
<g id="edge13" class="edge">
<title>12&#45;&gt;13</title>
<path fill="none" stroke="black" d="M115.5,-457.63C115.5,-449.82 115.5,-440.73 115.5,-432.18"/>
<polygon fill="black" stroke="black" points="119,-432.16 115.5,-422.16 112,-432.16 119,-432.16"/>
</g>
<!-- 14 -->
<g id="node15" class="node">
<title>14</title>
<polygon fill="#c1ffc1" stroke="transparent" points="228,-344 3,-344 3,-302 228,-302 228,-344"/>
<polygon fill="none" stroke="black" points="3.5,-302 3.5,-344 99.5,-344 99.5,-302 3.5,-302"/>
<text text-anchor="start" x="8.5" y="-326" font-family="Linux libertine" font-size="10.00">ConvTranspose2d</text>
<text text-anchor="start" x="33" y="-315" font-family="Linux libertine" font-size="10.00">depth:1</text>
<polygon fill="none" stroke="black" points="99.5,-323 99.5,-344 147.5,-344 147.5,-323 99.5,-323"/>
<text text-anchor="start" x="109.5" y="-331" font-family="Linux libertine" font-size="10.00">input:</text>
<polygon fill="none" stroke="black" points="147.5,-323 147.5,-344 228.5,-344 228.5,-323 147.5,-323"/>
<text text-anchor="start" x="152.5" y="-331" font-family="Linux libertine" font-size="10.00">(1, 32, 64, 64) </text>
<polygon fill="none" stroke="black" points="99.5,-302 99.5,-323 147.5,-323 147.5,-302 99.5,-302"/>
<text text-anchor="start" x="104.5" y="-310" font-family="Linux libertine" font-size="10.00">output: </text>
<polygon fill="none" stroke="black" points="147.5,-302 147.5,-323 228.5,-323 228.5,-302 147.5,-302"/>
<text text-anchor="start" x="152.5" y="-310" font-family="Linux libertine" font-size="10.00">(1, 32, 64, 64) </text>
</g>
<!-- 13&#45;&gt;14 -->
<g id="edge14" class="edge">
<title>13&#45;&gt;14</title>
<path fill="none" stroke="black" d="M115.5,-379.63C115.5,-371.82 115.5,-362.73 115.5,-354.18"/>
<polygon fill="black" stroke="black" points="119,-354.16 115.5,-344.16 112,-354.16 119,-354.16"/>
</g>
<!-- 15 -->
<g id="node16" class="node">
<title>15</title>
<polygon fill="#c1ffc1" stroke="transparent" points="203.5,-266 27.5,-266 27.5,-224 203.5,-224 203.5,-266"/>
<polygon fill="none" stroke="black" points="27.5,-224 27.5,-266 74.5,-266 74.5,-224 27.5,-224"/>
<text text-anchor="start" x="37.5" y="-248" font-family="Linux libertine" font-size="10.00">GELU</text>
<text text-anchor="start" x="32.5" y="-237" font-family="Linux libertine" font-size="10.00">depth:1</text>
<polygon fill="none" stroke="black" points="74.5,-245 74.5,-266 122.5,-266 122.5,-245 74.5,-245"/>
<text text-anchor="start" x="84.5" y="-253" font-family="Linux libertine" font-size="10.00">input:</text>
<polygon fill="none" stroke="black" points="122.5,-245 122.5,-266 203.5,-266 203.5,-245 122.5,-245"/>
<text text-anchor="start" x="127.5" y="-253" font-family="Linux libertine" font-size="10.00">(1, 32, 64, 64) </text>
<polygon fill="none" stroke="black" points="74.5,-224 74.5,-245 122.5,-245 122.5,-224 74.5,-224"/>
<text text-anchor="start" x="79.5" y="-232" font-family="Linux libertine" font-size="10.00">output: </text>
<polygon fill="none" stroke="black" points="122.5,-224 122.5,-245 203.5,-245 203.5,-224 122.5,-224"/>
<text text-anchor="start" x="127.5" y="-232" font-family="Linux libertine" font-size="10.00">(1, 32, 64, 64) </text>
</g>
<!-- 14&#45;&gt;15 -->
<g id="edge15" class="edge">
<title>14&#45;&gt;15</title>
<path fill="none" stroke="black" d="M115.5,-301.63C115.5,-293.82 115.5,-284.73 115.5,-276.18"/>
<polygon fill="black" stroke="black" points="119,-276.16 115.5,-266.16 112,-276.16 119,-276.16"/>
</g>
<!-- 16 -->
<g id="node17" class="node">
<title>16</title>
<polygon fill="#c1ffc1" stroke="transparent" points="231,-188 0,-188 0,-146 231,-146 231,-188"/>
<polygon fill="none" stroke="black" points="0.5,-146 0.5,-188 96.5,-188 96.5,-146 0.5,-146"/>
<text text-anchor="start" x="5.5" y="-170" font-family="Linux libertine" font-size="10.00">ConvTranspose2d</text>
<text text-anchor="start" x="30" y="-159" font-family="Linux libertine" font-size="10.00">depth:1</text>
<polygon fill="none" stroke="black" points="96.5,-167 96.5,-188 144.5,-188 144.5,-167 96.5,-167"/>
<text text-anchor="start" x="106.5" y="-175" font-family="Linux libertine" font-size="10.00">input:</text>
<polygon fill="none" stroke="black" points="144.5,-167 144.5,-188 231.5,-188 231.5,-167 144.5,-167"/>
<text text-anchor="start" x="152.5" y="-175" font-family="Linux libertine" font-size="10.00">(1, 32, 64, 64) </text>
<polygon fill="none" stroke="black" points="96.5,-146 96.5,-167 144.5,-167 144.5,-146 96.5,-146"/>
<text text-anchor="start" x="101.5" y="-154" font-family="Linux libertine" font-size="10.00">output: </text>
<polygon fill="none" stroke="black" points="144.5,-146 144.5,-167 231.5,-167 231.5,-146 144.5,-146"/>
<text text-anchor="start" x="149.5" y="-154" font-family="Linux libertine" font-size="10.00">(1, 3, 128, 128) </text>
</g>
<!-- 15&#45;&gt;16 -->
<g id="edge16" class="edge">
<title>15&#45;&gt;16</title>
<path fill="none" stroke="black" d="M115.5,-223.63C115.5,-215.82 115.5,-206.73 115.5,-198.18"/>
<polygon fill="black" stroke="black" points="119,-198.16 115.5,-188.16 112,-198.16 119,-198.16"/>
</g>
<!-- 17 -->
<g id="node18" class="node">
<title>17</title>
<polygon fill="#c1ffc1" stroke="transparent" points="206.5,-110 24.5,-110 24.5,-68 206.5,-68 206.5,-110"/>
<polygon fill="none" stroke="black" points="24.5,-68 24.5,-110 71.5,-110 71.5,-68 24.5,-68"/>
<text text-anchor="start" x="36.5" y="-92" font-family="Linux libertine" font-size="10.00">Tanh</text>
<text text-anchor="start" x="29.5" y="-81" font-family="Linux libertine" font-size="10.00">depth:1</text>
<polygon fill="none" stroke="black" points="71.5,-89 71.5,-110 119.5,-110 119.5,-89 71.5,-89"/>
<text text-anchor="start" x="81.5" y="-97" font-family="Linux libertine" font-size="10.00">input:</text>
<polygon fill="none" stroke="black" points="119.5,-89 119.5,-110 206.5,-110 206.5,-89 119.5,-89"/>
<text text-anchor="start" x="124.5" y="-97" font-family="Linux libertine" font-size="10.00">(1, 3, 128, 128) </text>
<polygon fill="none" stroke="black" points="71.5,-68 71.5,-89 119.5,-89 119.5,-68 71.5,-68"/>
<text text-anchor="start" x="76.5" y="-76" font-family="Linux libertine" font-size="10.00">output: </text>
<polygon fill="none" stroke="black" points="119.5,-68 119.5,-89 206.5,-89 206.5,-68 119.5,-68"/>
<text text-anchor="start" x="124.5" y="-76" font-family="Linux libertine" font-size="10.00">(1, 3, 128, 128) </text>
</g>
<!-- 16&#45;&gt;17 -->
<g id="edge17" class="edge">
<title>16&#45;&gt;17</title>
<path fill="none" stroke="black" d="M115.5,-145.63C115.5,-137.82 115.5,-128.73 115.5,-120.18"/>
<polygon fill="black" stroke="black" points="119,-120.16 115.5,-110.16 112,-120.16 119,-120.16"/>
</g>
<!-- 18 -->
<g id="node19" class="node">
<title>18</title>
<polygon fill="lightyellow" stroke="transparent" points="196,-32 35,-32 35,0 196,0 196,-32"/>
<polygon fill="none" stroke="black" points="35.5,0 35.5,-32 112.5,-32 112.5,0 35.5,0"/>
<text text-anchor="start" x="40.5" y="-19" font-family="Linux libertine" font-size="10.00">output&#45;tensor</text>
<text text-anchor="start" x="55.5" y="-8" font-family="Linux libertine" font-size="10.00">depth:0</text>
<polygon fill="none" stroke="black" points="112.5,0 112.5,-32 196.5,-32 196.5,0 112.5,0"/>
<text text-anchor="start" x="117.5" y="-13.5" font-family="Linux libertine" font-size="10.00">(1, 3, 128, 128)</text>
</g>
<!-- 17&#45;&gt;18 -->
<g id="edge18" class="edge">
<title>17&#45;&gt;18</title>
<path fill="none" stroke="black" d="M115.5,-67.84C115.5,-59.89 115.5,-50.66 115.5,-42.26"/>
<polygon fill="black" stroke="black" points="119,-42.24 115.5,-32.24 112,-42.24 119,-42.24"/>
</g>
</g>
</svg>
