<?xml version="1.0" encoding="UTF-8" standalone="no"?>
<!DOCTYPE svg PUBLIC "-//W3C//DTD SVG 1.1//EN"
 "http://www.w3.org/Graphics/SVG/1.1/DTD/svg11.dtd">
<!-- Generated by graphviz version 2.50.0 (0)
 -->
<!-- Title: model Pages: 1 -->
<svg width="160pt" height="864pt"
 viewBox="0.00 0.00 159.55 864.00" xmlns="http://www.w3.org/2000/svg" xmlns:xlink="http://www.w3.org/1999/xlink">
<g id="graph0" class="graph" transform="scale(0.68 0.68) rotate(0) translate(4 1274)">
<title>model</title>
<polygon fill="white" stroke="transparent" points="-4,4 -4,-1274 232,-1274 232,4 -4,4"/>
<!-- 0 -->
<g id="node1" class="node">
<title>0</title>
<polygon fill="lightyellow" stroke="transparent" points="191,-1270 37,-1270 37,-1238 191,-1238 191,-1270"/>
<polygon fill="none" stroke="black" points="37,-1238 37,-1270 107,-1270 107,-1238 37,-1238"/>
<text text-anchor="start" x="42" y="-1257" font-family="Linux libertine" font-size="10.00">input&#45;tensor</text>
<text text-anchor="start" x="53.5" y="-1246" font-family="Linux libertine" font-size="10.00">depth:0</text>
<polygon fill="none" stroke="black" points="107,-1238 107,-1270 191,-1270 191,-1238 107,-1238"/>
<text text-anchor="start" x="112" y="-1251.5" font-family="Linux libertine" font-size="10.00">(1, 3, 128, 128)</text>
</g>
<!-- 1 -->
<g id="node2" class="node">
<title>1</title>
<polygon fill="#c1ffc1" stroke="transparent" points="205,-1202 23,-1202 23,-1160 205,-1160 205,-1202"/>
<polygon fill="none" stroke="black" points="23,-1160 23,-1202 70,-1202 70,-1160 23,-1160"/>
<text text-anchor="start" x="28" y="-1184" font-family="Linux libertine" font-size="10.00">Conv2d</text>
<text text-anchor="start" x="28" y="-1173" font-family="Linux libertine" font-size="10.00">depth:2</text>
<polygon fill="none" stroke="black" points="70,-1181 70,-1202 118,-1202 118,-1181 70,-1181"/>
<text text-anchor="start" x="80" y="-1189" font-family="Linux libertine" font-size="10.00">input:</text>
<polygon fill="none" stroke="black" points="118,-1181 118,-1202 205,-1202 205,-1181 118,-1181"/>
<text text-anchor="start" x="123" y="-1189" font-family="Linux libertine" font-size="10.00">(1, 3, 128, 128) </text>
<polygon fill="none" stroke="black" points="70,-1160 70,-1181 118,-1181 118,-1160 70,-1160"/>
<text text-anchor="start" x="75" y="-1168" font-family="Linux libertine" font-size="10.00">output: </text>
<polygon fill="none" stroke="black" points="118,-1160 118,-1181 205,-1181 205,-1160 118,-1160"/>
<text text-anchor="start" x="126" y="-1168" font-family="Linux libertine" font-size="10.00">(1, 64, 64, 64) </text>
</g>
<!-- 0&#45;&gt;1 -->
<g id="edge1" class="edge">
<title>0&#45;&gt;1</title>
<path fill="none" stroke="black" d="M114,-1237.94C114,-1230.45 114,-1221.12 114,-1212.24"/>
<polygon fill="black" stroke="black" points="117.5,-1212.16 114,-1202.16 110.5,-1212.16 117.5,-1212.16"/>
</g>
<!-- 2 -->
<g id="node3" class="node">
<title>2</title>
<polygon fill="#c1ffc1" stroke="transparent" points="217,-1124 11,-1124 11,-1082 217,-1082 217,-1124"/>
<polygon fill="none" stroke="black" points="11,-1082 11,-1124 88,-1124 88,-1082 11,-1082"/>
<text text-anchor="start" x="16" y="-1106" font-family="Linux libertine" font-size="10.00">BatchNorm2d</text>
<text text-anchor="start" x="31" y="-1095" font-family="Linux libertine" font-size="10.00">depth:2</text>
<polygon fill="none" stroke="black" points="88,-1103 88,-1124 136,-1124 136,-1103 88,-1103"/>
<text text-anchor="start" x="98" y="-1111" font-family="Linux libertine" font-size="10.00">input:</text>
<polygon fill="none" stroke="black" points="136,-1103 136,-1124 217,-1124 217,-1103 136,-1103"/>
<text text-anchor="start" x="141" y="-1111" font-family="Linux libertine" font-size="10.00">(1, 64, 64, 64) </text>
<polygon fill="none" stroke="black" points="88,-1082 88,-1103 136,-1103 136,-1082 88,-1082"/>
<text text-anchor="start" x="93" y="-1090" font-family="Linux libertine" font-size="10.00">output: </text>
<polygon fill="none" stroke="black" points="136,-1082 136,-1103 217,-1103 217,-1082 136,-1082"/>
<text text-anchor="start" x="141" y="-1090" font-family="Linux libertine" font-size="10.00">(1, 64, 64, 64) </text>
</g>
<!-- 1&#45;&gt;2 -->
<g id="edge2" class="edge">
<title>1&#45;&gt;2</title>
<path fill="none" stroke="black" d="M114,-1159.63C114,-1151.82 114,-1142.73 114,-1134.18"/>
<polygon fill="black" stroke="black" points="117.5,-1134.16 114,-1124.16 110.5,-1134.16 117.5,-1134.16"/>
</g>
<!-- 3 -->
<g id="node4" class="node">
<title>3</title>
<polygon fill="#c1ffc1" stroke="transparent" points="202,-1046 26,-1046 26,-1004 202,-1004 202,-1046"/>
<polygon fill="none" stroke="black" points="26,-1004 26,-1046 73,-1046 73,-1004 26,-1004"/>
<text text-anchor="start" x="36.5" y="-1028" font-family="Linux libertine" font-size="10.00">ReLU</text>
<text text-anchor="start" x="31" y="-1017" font-family="Linux libertine" font-size="10.00">depth:2</text>
<polygon fill="none" stroke="black" points="73,-1025 73,-1046 121,-1046 121,-1025 73,-1025"/>
<text text-anchor="start" x="83" y="-1033" font-family="Linux libertine" font-size="10.00">input:</text>
<polygon fill="none" stroke="black" points="121,-1025 121,-1046 202,-1046 202,-1025 121,-1025"/>
<text text-anchor="start" x="126" y="-1033" font-family="Linux libertine" font-size="10.00">(1, 64, 64, 64) </text>
<polygon fill="none" stroke="black" points="73,-1004 73,-1025 121,-1025 121,-1004 73,-1004"/>
<text text-anchor="start" x="78" y="-1012" font-family="Linux libertine" font-size="10.00">output: </text>
<polygon fill="none" stroke="black" points="121,-1004 121,-1025 202,-1025 202,-1004 121,-1004"/>
<text text-anchor="start" x="126" y="-1012" font-family="Linux libertine" font-size="10.00">(1, 64, 64, 64) </text>
</g>
<!-- 2&#45;&gt;3 -->
<g id="edge3" class="edge">
<title>2&#45;&gt;3</title>
<path fill="none" stroke="black" d="M114,-1081.63C114,-1073.82 114,-1064.73 114,-1056.18"/>
<polygon fill="black" stroke="black" points="117.5,-1056.16 114,-1046.16 110.5,-1056.16 117.5,-1056.16"/>
</g>
<!-- 4 -->
<g id="node5" class="node">
<title>4</title>
<polygon fill="#c1ffc1" stroke="transparent" points="211,-968 17,-968 17,-926 211,-926 211,-968"/>
<polygon fill="none" stroke="black" points="17,-926 17,-968 82,-968 82,-926 17,-926"/>
<text text-anchor="start" x="22" y="-950" font-family="Linux libertine" font-size="10.00">MaxPool2d</text>
<text text-anchor="start" x="31" y="-939" font-family="Linux libertine" font-size="10.00">depth:2</text>
<polygon fill="none" stroke="black" points="82,-947 82,-968 130,-968 130,-947 82,-947"/>
<text text-anchor="start" x="92" y="-955" font-family="Linux libertine" font-size="10.00">input:</text>
<polygon fill="none" stroke="black" points="130,-947 130,-968 211,-968 211,-947 130,-947"/>
<text text-anchor="start" x="135" y="-955" font-family="Linux libertine" font-size="10.00">(1, 64, 64, 64) </text>
<polygon fill="none" stroke="black" points="82,-926 82,-947 130,-947 130,-926 82,-926"/>
<text text-anchor="start" x="87" y="-934" font-family="Linux libertine" font-size="10.00">output: </text>
<polygon fill="none" stroke="black" points="130,-926 130,-947 211,-947 211,-926 130,-926"/>
<text text-anchor="start" x="135" y="-934" font-family="Linux libertine" font-size="10.00">(1, 64, 32, 32) </text>
</g>
<!-- 3&#45;&gt;4 -->
<g id="edge4" class="edge">
<title>3&#45;&gt;4</title>
<path fill="none" stroke="black" d="M114,-1003.63C114,-995.82 114,-986.73 114,-978.18"/>
<polygon fill="black" stroke="black" points="117.5,-978.16 114,-968.16 110.5,-978.16 117.5,-978.16"/>
</g>
<!-- 5 -->
<g id="node6" class="node">
<title>5</title>
<polygon fill="#c1ffc1" stroke="transparent" points="210.5,-890 17.5,-890 17.5,-848 210.5,-848 210.5,-890"/>
<polygon fill="none" stroke="black" points="18,-848 18,-890 82,-890 82,-848 18,-848"/>
<text text-anchor="start" x="23" y="-872" font-family="Linux libertine" font-size="10.00">BasicBlock</text>
<text text-anchor="start" x="31.5" y="-861" font-family="Linux libertine" font-size="10.00">depth:3</text>
<polygon fill="none" stroke="black" points="82,-869 82,-890 130,-890 130,-869 82,-869"/>
<text text-anchor="start" x="92" y="-877" font-family="Linux libertine" font-size="10.00">input:</text>
<polygon fill="none" stroke="black" points="130,-869 130,-890 211,-890 211,-869 130,-869"/>
<text text-anchor="start" x="135" y="-877" font-family="Linux libertine" font-size="10.00">(1, 64, 32, 32) </text>
<polygon fill="none" stroke="black" points="82,-848 82,-869 130,-869 130,-848 82,-848"/>
<text text-anchor="start" x="87" y="-856" font-family="Linux libertine" font-size="10.00">output: </text>
<polygon fill="none" stroke="black" points="130,-848 130,-869 211,-869 211,-848 130,-848"/>
<text text-anchor="start" x="135" y="-856" font-family="Linux libertine" font-size="10.00">(1, 64, 32, 32) </text>
</g>
<!-- 4&#45;&gt;5 -->
<g id="edge5" class="edge">
<title>4&#45;&gt;5</title>
<path fill="none" stroke="black" d="M114,-925.63C114,-917.82 114,-908.73 114,-900.18"/>
<polygon fill="black" stroke="black" points="117.5,-900.16 114,-890.16 110.5,-900.16 117.5,-900.16"/>
</g>
<!-- 6 -->
<g id="node7" class="node">
<title>6</title>
<polygon fill="#c1ffc1" stroke="transparent" points="210.5,-812 17.5,-812 17.5,-770 210.5,-770 210.5,-812"/>
<polygon fill="none" stroke="black" points="18,-770 18,-812 82,-812 82,-770 18,-770"/>
<text text-anchor="start" x="23" y="-794" font-family="Linux libertine" font-size="10.00">BasicBlock</text>
<text text-anchor="start" x="31.5" y="-783" font-family="Linux libertine" font-size="10.00">depth:3</text>
<polygon fill="none" stroke="black" points="82,-791 82,-812 130,-812 130,-791 82,-791"/>
<text text-anchor="start" x="92" y="-799" font-family="Linux libertine" font-size="10.00">input:</text>
<polygon fill="none" stroke="black" points="130,-791 130,-812 211,-812 211,-791 130,-791"/>
<text text-anchor="start" x="135" y="-799" font-family="Linux libertine" font-size="10.00">(1, 64, 32, 32) </text>
<polygon fill="none" stroke="black" points="82,-770 82,-791 130,-791 130,-770 82,-770"/>
<text text-anchor="start" x="87" y="-778" font-family="Linux libertine" font-size="10.00">output: </text>
<polygon fill="none" stroke="black" points="130,-770 130,-791 211,-791 211,-770 130,-770"/>
<text text-anchor="start" x="135" y="-778" font-family="Linux libertine" font-size="10.00">(1, 64, 32, 32) </text>
</g>
<!-- 5&#45;&gt;6 -->
<g id="edge6" class="edge">
<title>5&#45;&gt;6</title>
<path fill="none" stroke="black" d="M114,-847.63C114,-839.82 114,-830.73 114,-822.18"/>
<polygon fill="black" stroke="black" points="117.5,-822.16 114,-812.16 110.5,-822.16 117.5,-822.16"/>
</g>
<!-- 7 -->
<g id="node8" class="node">
<title>7</title>
<polygon fill="#c1ffc1" stroke="transparent" points="213.5,-734 14.5,-734 14.5,-692 213.5,-692 213.5,-734"/>
<polygon fill="none" stroke="black" points="15,-692 15,-734 79,-734 79,-692 15,-692"/>
<text text-anchor="start" x="20" y="-716" font-family="Linux libertine" font-size="10.00">BasicBlock</text>
<text text-anchor="start" x="28.5" y="-705" font-family="Linux libertine" font-size="10.00">depth:3</text>
<polygon fill="none" stroke="black" points="79,-713 79,-734 127,-734 127,-713 79,-713"/>
<text text-anchor="start" x="89" y="-721" font-family="Linux libertine" font-size="10.00">input:</text>
<polygon fill="none" stroke="black" points="127,-713 127,-734 214,-734 214,-713 127,-713"/>
<text text-anchor="start" x="135" y="-721" font-family="Linux libertine" font-size="10.00">(1, 64, 32, 32) </text>
<polygon fill="none" stroke="black" points="79,-692 79,-713 127,-713 127,-692 79,-692"/>
<text text-anchor="start" x="84" y="-700" font-family="Linux libertine" font-size="10.00">output: </text>
<polygon fill="none" stroke="black" points="127,-692 127,-713 214,-713 214,-692 127,-692"/>
<text text-anchor="start" x="132" y="-700" font-family="Linux libertine" font-size="10.00">(1, 128, 16, 16) </text>
</g>
<!-- 6&#45;&gt;7 -->
<g id="edge7" class="edge">
<title>6&#45;&gt;7</title>
<path fill="none" stroke="black" d="M114,-769.63C114,-761.82 114,-752.73 114,-744.18"/>
<polygon fill="black" stroke="black" points="117.5,-744.16 114,-734.16 110.5,-744.16 117.5,-744.16"/>
</g>
<!-- 8 -->
<g id="node9" class="node">
<title>8</title>
<polygon fill="#c1ffc1" stroke="transparent" points="213.5,-656 14.5,-656 14.5,-614 213.5,-614 213.5,-656"/>
<polygon fill="none" stroke="black" points="15,-614 15,-656 79,-656 79,-614 15,-614"/>
<text text-anchor="start" x="20" y="-638" font-family="Linux libertine" font-size="10.00">BasicBlock</text>
<text text-anchor="start" x="28.5" y="-627" font-family="Linux libertine" font-size="10.00">depth:3</text>
<polygon fill="none" stroke="black" points="79,-635 79,-656 127,-656 127,-635 79,-635"/>
<text text-anchor="start" x="89" y="-643" font-family="Linux libertine" font-size="10.00">input:</text>
<polygon fill="none" stroke="black" points="127,-635 127,-656 214,-656 214,-635 127,-635"/>
<text text-anchor="start" x="132" y="-643" font-family="Linux libertine" font-size="10.00">(1, 128, 16, 16) </text>
<polygon fill="none" stroke="black" points="79,-614 79,-635 127,-635 127,-614 79,-614"/>
<text text-anchor="start" x="84" y="-622" font-family="Linux libertine" font-size="10.00">output: </text>
<polygon fill="none" stroke="black" points="127,-614 127,-635 214,-635 214,-614 127,-614"/>
<text text-anchor="start" x="132" y="-622" font-family="Linux libertine" font-size="10.00">(1, 128, 16, 16) </text>
</g>
<!-- 7&#45;&gt;8 -->
<g id="edge8" class="edge">
<title>7&#45;&gt;8</title>
<path fill="none" stroke="black" d="M114,-691.63C114,-683.82 114,-674.73 114,-666.18"/>
<polygon fill="black" stroke="black" points="117.5,-666.16 114,-656.16 110.5,-666.16 117.5,-666.16"/>
</g>
<!-- 9 -->
<g id="node10" class="node">
<title>9</title>
<polygon fill="#c1ffc1" stroke="transparent" points="213.5,-578 14.5,-578 14.5,-536 213.5,-536 213.5,-578"/>
<polygon fill="none" stroke="black" points="15,-536 15,-578 79,-578 79,-536 15,-536"/>
<text text-anchor="start" x="20" y="-560" font-family="Linux libertine" font-size="10.00">BasicBlock</text>
<text text-anchor="start" x="28.5" y="-549" font-family="Linux libertine" font-size="10.00">depth:3</text>
<polygon fill="none" stroke="black" points="79,-557 79,-578 127,-578 127,-557 79,-557"/>
<text text-anchor="start" x="89" y="-565" font-family="Linux libertine" font-size="10.00">input:</text>
<polygon fill="none" stroke="black" points="127,-557 127,-578 214,-578 214,-557 127,-557"/>
<text text-anchor="start" x="132" y="-565" font-family="Linux libertine" font-size="10.00">(1, 128, 16, 16) </text>
<polygon fill="none" stroke="black" points="79,-536 79,-557 127,-557 127,-536 79,-536"/>
<text text-anchor="start" x="84" y="-544" font-family="Linux libertine" font-size="10.00">output: </text>
<polygon fill="none" stroke="black" points="127,-536 127,-557 214,-557 214,-536 127,-536"/>
<text text-anchor="start" x="138" y="-544" font-family="Linux libertine" font-size="10.00">(1, 256, 8, 8) </text>
</g>
<!-- 8&#45;&gt;9 -->
<g id="edge9" class="edge">
<title>8&#45;&gt;9</title>
<path fill="none" stroke="black" d="M114,-613.63C114,-605.82 114,-596.73 114,-588.18"/>
<polygon fill="black" stroke="black" points="117.5,-588.16 114,-578.16 110.5,-588.16 117.5,-588.16"/>
</g>
<!-- 10 -->
<g id="node11" class="node">
<title>10</title>
<polygon fill="#c1ffc1" stroke="transparent" points="207.5,-500 20.5,-500 20.5,-458 207.5,-458 207.5,-500"/>
<polygon fill="none" stroke="black" points="21,-458 21,-500 85,-500 85,-458 21,-458"/>
<text text-anchor="start" x="26" y="-482" font-family="Linux libertine" font-size="10.00">BasicBlock</text>
<text text-anchor="start" x="34.5" y="-471" font-family="Linux libertine" font-size="10.00">depth:3</text>
<polygon fill="none" stroke="black" points="85,-479 85,-500 133,-500 133,-479 85,-479"/>
<text text-anchor="start" x="95" y="-487" font-family="Linux libertine" font-size="10.00">input:</text>
<polygon fill="none" stroke="black" points="133,-479 133,-500 208,-500 208,-479 133,-479"/>
<text text-anchor="start" x="138" y="-487" font-family="Linux libertine" font-size="10.00">(1, 256, 8, 8) </text>
<polygon fill="none" stroke="black" points="85,-458 85,-479 133,-479 133,-458 85,-458"/>
<text text-anchor="start" x="90" y="-466" font-family="Linux libertine" font-size="10.00">output: </text>
<polygon fill="none" stroke="black" points="133,-458 133,-479 208,-479 208,-458 133,-458"/>
<text text-anchor="start" x="138" y="-466" font-family="Linux libertine" font-size="10.00">(1, 256, 8, 8) </text>
</g>
<!-- 9&#45;&gt;10 -->
<g id="edge10" class="edge">
<title>9&#45;&gt;10</title>
<path fill="none" stroke="black" d="M114,-535.63C114,-527.82 114,-518.73 114,-510.18"/>
<polygon fill="black" stroke="black" points="117.5,-510.16 114,-500.16 110.5,-510.16 117.5,-510.16"/>
</g>
<!-- 11 -->
<g id="node12" class="node">
<title>11</title>
<polygon fill="#c1ffc1" stroke="transparent" points="207.5,-422 20.5,-422 20.5,-380 207.5,-380 207.5,-422"/>
<polygon fill="none" stroke="black" points="21,-380 21,-422 85,-422 85,-380 21,-380"/>
<text text-anchor="start" x="26" y="-404" font-family="Linux libertine" font-size="10.00">BasicBlock</text>
<text text-anchor="start" x="34.5" y="-393" font-family="Linux libertine" font-size="10.00">depth:3</text>
<polygon fill="none" stroke="black" points="85,-401 85,-422 133,-422 133,-401 85,-401"/>
<text text-anchor="start" x="95" y="-409" font-family="Linux libertine" font-size="10.00">input:</text>
<polygon fill="none" stroke="black" points="133,-401 133,-422 208,-422 208,-401 133,-401"/>
<text text-anchor="start" x="138" y="-409" font-family="Linux libertine" font-size="10.00">(1, 256, 8, 8) </text>
<polygon fill="none" stroke="black" points="85,-380 85,-401 133,-401 133,-380 85,-380"/>
<text text-anchor="start" x="90" y="-388" font-family="Linux libertine" font-size="10.00">output: </text>
<polygon fill="none" stroke="black" points="133,-380 133,-401 208,-401 208,-380 133,-380"/>
<text text-anchor="start" x="138" y="-388" font-family="Linux libertine" font-size="10.00">(1, 512, 4, 4) </text>
</g>
<!-- 10&#45;&gt;11 -->
<g id="edge11" class="edge">
<title>10&#45;&gt;11</title>
<path fill="none" stroke="black" d="M114,-457.63C114,-449.82 114,-440.73 114,-432.18"/>
<polygon fill="black" stroke="black" points="117.5,-432.16 114,-422.16 110.5,-432.16 117.5,-432.16"/>
</g>
<!-- 12 -->
<g id="node13" class="node">
<title>12</title>
<polygon fill="#c1ffc1" stroke="transparent" points="207.5,-344 20.5,-344 20.5,-302 207.5,-302 207.5,-344"/>
<polygon fill="none" stroke="black" points="21,-302 21,-344 85,-344 85,-302 21,-302"/>
<text text-anchor="start" x="26" y="-326" font-family="Linux libertine" font-size="10.00">BasicBlock</text>
<text text-anchor="start" x="34.5" y="-315" font-family="Linux libertine" font-size="10.00">depth:3</text>
<polygon fill="none" stroke="black" points="85,-323 85,-344 133,-344 133,-323 85,-323"/>
<text text-anchor="start" x="95" y="-331" font-family="Linux libertine" font-size="10.00">input:</text>
<polygon fill="none" stroke="black" points="133,-323 133,-344 208,-344 208,-323 133,-323"/>
<text text-anchor="start" x="138" y="-331" font-family="Linux libertine" font-size="10.00">(1, 512, 4, 4) </text>
<polygon fill="none" stroke="black" points="85,-302 85,-323 133,-323 133,-302 85,-302"/>
<text text-anchor="start" x="90" y="-310" font-family="Linux libertine" font-size="10.00">output: </text>
<polygon fill="none" stroke="black" points="133,-302 133,-323 208,-323 208,-302 133,-302"/>
<text text-anchor="start" x="138" y="-310" font-family="Linux libertine" font-size="10.00">(1, 512, 4, 4) </text>
</g>
<!-- 11&#45;&gt;12 -->
<g id="edge12" class="edge">
<title>11&#45;&gt;12</title>
<path fill="none" stroke="black" d="M114,-379.63C114,-371.82 114,-362.73 114,-354.18"/>
<polygon fill="black" stroke="black" points="117.5,-354.16 114,-344.16 110.5,-354.16 117.5,-354.16"/>
</g>
<!-- 13 -->
<g id="node14" class="node">
<title>13</title>
<polygon fill="#c1ffc1" stroke="transparent" points="228,-266 0,-266 0,-224 228,-224 228,-266"/>
<polygon fill="none" stroke="black" points="0,-224 0,-266 105,-266 105,-224 0,-224"/>
<text text-anchor="start" x="5" y="-248" font-family="Linux libertine" font-size="10.00">AdaptiveAvgPool2d</text>
<text text-anchor="start" x="34" y="-237" font-family="Linux libertine" font-size="10.00">depth:2</text>
<polygon fill="none" stroke="black" points="105,-245 105,-266 153,-266 153,-245 105,-245"/>
<text text-anchor="start" x="115" y="-253" font-family="Linux libertine" font-size="10.00">input:</text>
<polygon fill="none" stroke="black" points="153,-245 153,-266 228,-266 228,-245 153,-245"/>
<text text-anchor="start" x="158" y="-253" font-family="Linux libertine" font-size="10.00">(1, 512, 4, 4) </text>
<polygon fill="none" stroke="black" points="105,-224 105,-245 153,-245 153,-224 105,-224"/>
<text text-anchor="start" x="110" y="-232" font-family="Linux libertine" font-size="10.00">output: </text>
<polygon fill="none" stroke="black" points="153,-224 153,-245 228,-245 228,-224 153,-224"/>
<text text-anchor="start" x="158" y="-232" font-family="Linux libertine" font-size="10.00">(1, 512, 1, 1) </text>
</g>
<!-- 12&#45;&gt;13 -->
<g id="edge13" class="edge">
<title>12&#45;&gt;13</title>
<path fill="none" stroke="black" d="M114,-301.63C114,-293.82 114,-284.73 114,-276.18"/>
<polygon fill="black" stroke="black" points="117.5,-276.16 114,-266.16 110.5,-276.16 117.5,-276.16"/>
</g>
<!-- 14 -->
<g id="node15" class="node">
<title>14</title>
<polygon fill="aliceblue" stroke="transparent" points="199,-188 29,-188 29,-146 199,-146 199,-188"/>
<polygon fill="none" stroke="black" points="29,-146 29,-188 76,-188 76,-146 29,-146"/>
<text text-anchor="start" x="36.5" y="-170" font-family="Linux libertine" font-size="10.00">flatten</text>
<text text-anchor="start" x="34" y="-159" font-family="Linux libertine" font-size="10.00">depth:2</text>
<polygon fill="none" stroke="black" points="76,-167 76,-188 124,-188 124,-167 76,-167"/>
<text text-anchor="start" x="86" y="-175" font-family="Linux libertine" font-size="10.00">input:</text>
<polygon fill="none" stroke="black" points="124,-167 124,-188 199,-188 199,-167 124,-167"/>
<text text-anchor="start" x="129" y="-175" font-family="Linux libertine" font-size="10.00">(1, 512, 1, 1) </text>
<polygon fill="none" stroke="black" points="76,-146 76,-167 124,-167 124,-146 76,-146"/>
<text text-anchor="start" x="81" y="-154" font-family="Linux libertine" font-size="10.00">output: </text>
<polygon fill="none" stroke="black" points="124,-146 124,-167 199,-167 199,-146 124,-146"/>
<text text-anchor="start" x="141" y="-154" font-family="Linux libertine" font-size="10.00">(1, 512) </text>
</g>
<!-- 13&#45;&gt;14 -->
<g id="edge14" class="edge">
<title>13&#45;&gt;14</title>
<path fill="none" stroke="black" d="M114,-223.63C114,-215.82 114,-206.73 114,-198.18"/>
<polygon fill="black" stroke="black" points="117.5,-198.16 114,-188.16 110.5,-198.16 117.5,-198.16"/>
</g>
<!-- 15 -->
<g id="node16" class="node">
<title>15</title>
<polygon fill="#c1ffc1" stroke="transparent" points="187.5,-110 40.5,-110 40.5,-68 187.5,-68 187.5,-110"/>
<polygon fill="none" stroke="black" points="41,-68 41,-110 89,-110 89,-68 41,-68"/>
<text text-anchor="start" x="46" y="-92" font-family="Linux libertine" font-size="10.00">Identity</text>
<text text-anchor="start" x="46.5" y="-81" font-family="Linux libertine" font-size="10.00">depth:2</text>
<polygon fill="none" stroke="black" points="89,-89 89,-110 137,-110 137,-89 89,-89"/>
<text text-anchor="start" x="99" y="-97" font-family="Linux libertine" font-size="10.00">input:</text>
<polygon fill="none" stroke="black" points="137,-89 137,-110 188,-110 188,-89 137,-89"/>
<text text-anchor="start" x="142" y="-97" font-family="Linux libertine" font-size="10.00">(1, 512) </text>
<polygon fill="none" stroke="black" points="89,-68 89,-89 137,-89 137,-68 89,-68"/>
<text text-anchor="start" x="94" y="-76" font-family="Linux libertine" font-size="10.00">output: </text>
<polygon fill="none" stroke="black" points="137,-68 137,-89 188,-89 188,-68 137,-68"/>
<text text-anchor="start" x="142" y="-76" font-family="Linux libertine" font-size="10.00">(1, 512) </text>
</g>
<!-- 14&#45;&gt;15 -->
<g id="edge15" class="edge">
<title>14&#45;&gt;15</title>
<path fill="none" stroke="black" d="M114,-145.63C114,-137.82 114,-128.73 114,-120.18"/>
<polygon fill="black" stroke="black" points="117.5,-120.16 114,-110.16 110.5,-120.16 117.5,-120.16"/>
</g>
<!-- 16 -->
<g id="node17" class="node">
<title>16</title>
<polygon fill="lightyellow" stroke="transparent" points="176.5,-32 51.5,-32 51.5,0 176.5,0 176.5,-32"/>
<polygon fill="none" stroke="black" points="52,0 52,-32 129,-32 129,0 52,0"/>
<text text-anchor="start" x="57" y="-19" font-family="Linux libertine" font-size="10.00">output&#45;tensor</text>
<text text-anchor="start" x="72" y="-8" font-family="Linux libertine" font-size="10.00">depth:0</text>
<polygon fill="none" stroke="black" points="129,0 129,-32 177,-32 177,0 129,0"/>
<text text-anchor="start" x="134" y="-13.5" font-family="Linux libertine" font-size="10.00">(1, 512)</text>
</g>
<!-- 15&#45;&gt;16 -->
<g id="edge16" class="edge">
<title>15&#45;&gt;16</title>
<path fill="none" stroke="black" d="M114,-67.84C114,-59.89 114,-50.66 114,-42.26"/>
<polygon fill="black" stroke="black" points="117.5,-42.24 114,-32.24 110.5,-42.24 117.5,-42.24"/>
</g>
</g>
</svg>
