<?xml version="1.0" encoding="UTF-8" standalone="no"?>
<!DOCTYPE svg PUBLIC "-//W3C//DTD SVG 1.1//EN"
 "http://www.w3.org/Graphics/SVG/1.1/DTD/svg11.dtd">
<!-- Generated by graphviz version 2.50.0 (0)
 -->
<!-- Title: model Pages: 1 -->
<svg width="131pt" height="1231pt"
 viewBox="0.00 0.00 131.22 1231.00" xmlns="http://www.w3.org/2000/svg" xmlns:xlink="http://www.w3.org/1999/xlink">
<g id="graph0" class="graph" transform="scale(0.56 0.56) rotate(0) translate(4 2210)">
<title>model</title>
<polygon fill="white" stroke="transparent" points="-4,4 -4,-2210 232,-2210 232,4 -4,4"/>
<!-- 0 -->
<g id="node1" class="node">
<title>0</title>
<polygon fill="lightyellow" stroke="transparent" points="191,-2206 37,-2206 37,-2174 191,-2174 191,-2206"/>
<polygon fill="none" stroke="black" points="37,-2174 37,-2206 107,-2206 107,-2174 37,-2174"/>
<text text-anchor="start" x="42" y="-2193" font-family="Linux libertine" font-size="10.00">input&#45;tensor</text>
<text text-anchor="start" x="53.5" y="-2182" font-family="Linux libertine" font-size="10.00">depth:0</text>
<polygon fill="none" stroke="black" points="107,-2174 107,-2206 191,-2206 191,-2174 107,-2174"/>
<text text-anchor="start" x="112" y="-2187.5" font-family="Linux libertine" font-size="10.00">(1, 3, 128, 128)</text>
</g>
<!-- 1 -->
<g id="node2" class="node">
<title>1</title>
<polygon fill="#c1ffc1" stroke="transparent" points="208,-2138 20,-2138 20,-2096 208,-2096 208,-2138"/>
<polygon fill="none" stroke="black" points="20,-2096 20,-2138 67,-2138 67,-2096 20,-2096"/>
<text text-anchor="start" x="25" y="-2120" font-family="Linux libertine" font-size="10.00">Conv2d</text>
<text text-anchor="start" x="25" y="-2109" font-family="Linux libertine" font-size="10.00">depth:2</text>
<polygon fill="none" stroke="black" points="67,-2117 67,-2138 115,-2138 115,-2117 67,-2117"/>
<text text-anchor="start" x="77" y="-2125" font-family="Linux libertine" font-size="10.00">input:</text>
<polygon fill="none" stroke="black" points="115,-2117 115,-2138 208,-2138 208,-2117 115,-2117"/>
<text text-anchor="start" x="123" y="-2125" font-family="Linux libertine" font-size="10.00">(1, 3, 128, 128) </text>
<polygon fill="none" stroke="black" points="67,-2096 67,-2117 115,-2117 115,-2096 67,-2096"/>
<text text-anchor="start" x="72" y="-2104" font-family="Linux libertine" font-size="10.00">output: </text>
<polygon fill="none" stroke="black" points="115,-2096 115,-2117 208,-2117 208,-2096 115,-2096"/>
<text text-anchor="start" x="120" y="-2104" font-family="Linux libertine" font-size="10.00">(1, 64, 128, 128) </text>
</g>
<!-- 0&#45;&gt;1 -->
<g id="edge1" class="edge">
<title>0&#45;&gt;1</title>
<path fill="none" stroke="black" d="M114,-2173.94C114,-2166.45 114,-2157.12 114,-2148.24"/>
<polygon fill="black" stroke="black" points="117.5,-2148.16 114,-2138.16 110.5,-2148.16 117.5,-2148.16"/>
</g>
<!-- 2 -->
<g id="node3" class="node">
<title>2</title>
<polygon fill="#c1ffc1" stroke="transparent" points="208,-2060 20,-2060 20,-2018 208,-2018 208,-2060"/>
<polygon fill="none" stroke="black" points="20,-2018 20,-2060 67,-2060 67,-2018 20,-2018"/>
<text text-anchor="start" x="30.5" y="-2042" font-family="Linux libertine" font-size="10.00">ReLU</text>
<text text-anchor="start" x="25" y="-2031" font-family="Linux libertine" font-size="10.00">depth:2</text>
<polygon fill="none" stroke="black" points="67,-2039 67,-2060 115,-2060 115,-2039 67,-2039"/>
<text text-anchor="start" x="77" y="-2047" font-family="Linux libertine" font-size="10.00">input:</text>
<polygon fill="none" stroke="black" points="115,-2039 115,-2060 208,-2060 208,-2039 115,-2039"/>
<text text-anchor="start" x="120" y="-2047" font-family="Linux libertine" font-size="10.00">(1, 64, 128, 128) </text>
<polygon fill="none" stroke="black" points="67,-2018 67,-2039 115,-2039 115,-2018 67,-2018"/>
<text text-anchor="start" x="72" y="-2026" font-family="Linux libertine" font-size="10.00">output: </text>
<polygon fill="none" stroke="black" points="115,-2018 115,-2039 208,-2039 208,-2018 115,-2018"/>
<text text-anchor="start" x="120" y="-2026" font-family="Linux libertine" font-size="10.00">(1, 64, 128, 128) </text>
</g>
<!-- 1&#45;&gt;2 -->
<g id="edge2" class="edge">
<title>1&#45;&gt;2</title>
<path fill="none" stroke="black" d="M114,-2095.63C114,-2087.82 114,-2078.73 114,-2070.18"/>
<polygon fill="black" stroke="black" points="117.5,-2070.16 114,-2060.16 110.5,-2070.16 117.5,-2070.16"/>
</g>
<!-- 3 -->
<g id="node4" class="node">
<title>3</title>
<polygon fill="#c1ffc1" stroke="transparent" points="208,-1982 20,-1982 20,-1940 208,-1940 208,-1982"/>
<polygon fill="none" stroke="black" points="20,-1940 20,-1982 67,-1982 67,-1940 20,-1940"/>
<text text-anchor="start" x="25" y="-1964" font-family="Linux libertine" font-size="10.00">Conv2d</text>
<text text-anchor="start" x="25" y="-1953" font-family="Linux libertine" font-size="10.00">depth:2</text>
<polygon fill="none" stroke="black" points="67,-1961 67,-1982 115,-1982 115,-1961 67,-1961"/>
<text text-anchor="start" x="77" y="-1969" font-family="Linux libertine" font-size="10.00">input:</text>
<polygon fill="none" stroke="black" points="115,-1961 115,-1982 208,-1982 208,-1961 115,-1961"/>
<text text-anchor="start" x="120" y="-1969" font-family="Linux libertine" font-size="10.00">(1, 64, 128, 128) </text>
<polygon fill="none" stroke="black" points="67,-1940 67,-1961 115,-1961 115,-1940 67,-1940"/>
<text text-anchor="start" x="72" y="-1948" font-family="Linux libertine" font-size="10.00">output: </text>
<polygon fill="none" stroke="black" points="115,-1940 115,-1961 208,-1961 208,-1940 115,-1940"/>
<text text-anchor="start" x="120" y="-1948" font-family="Linux libertine" font-size="10.00">(1, 64, 128, 128) </text>
</g>
<!-- 2&#45;&gt;3 -->
<g id="edge3" class="edge">
<title>2&#45;&gt;3</title>
<path fill="none" stroke="black" d="M114,-2017.63C114,-2009.82 114,-2000.73 114,-1992.18"/>
<polygon fill="black" stroke="black" points="117.5,-1992.16 114,-1982.16 110.5,-1992.16 117.5,-1992.16"/>
</g>
<!-- 4 -->
<g id="node5" class="node">
<title>4</title>
<polygon fill="#c1ffc1" stroke="transparent" points="208,-1904 20,-1904 20,-1862 208,-1862 208,-1904"/>
<polygon fill="none" stroke="black" points="20,-1862 20,-1904 67,-1904 67,-1862 20,-1862"/>
<text text-anchor="start" x="30.5" y="-1886" font-family="Linux libertine" font-size="10.00">ReLU</text>
<text text-anchor="start" x="25" y="-1875" font-family="Linux libertine" font-size="10.00">depth:2</text>
<polygon fill="none" stroke="black" points="67,-1883 67,-1904 115,-1904 115,-1883 67,-1883"/>
<text text-anchor="start" x="77" y="-1891" font-family="Linux libertine" font-size="10.00">input:</text>
<polygon fill="none" stroke="black" points="115,-1883 115,-1904 208,-1904 208,-1883 115,-1883"/>
<text text-anchor="start" x="120" y="-1891" font-family="Linux libertine" font-size="10.00">(1, 64, 128, 128) </text>
<polygon fill="none" stroke="black" points="67,-1862 67,-1883 115,-1883 115,-1862 67,-1862"/>
<text text-anchor="start" x="72" y="-1870" font-family="Linux libertine" font-size="10.00">output: </text>
<polygon fill="none" stroke="black" points="115,-1862 115,-1883 208,-1883 208,-1862 115,-1862"/>
<text text-anchor="start" x="120" y="-1870" font-family="Linux libertine" font-size="10.00">(1, 64, 128, 128) </text>
</g>
<!-- 3&#45;&gt;4 -->
<g id="edge4" class="edge">
<title>3&#45;&gt;4</title>
<path fill="none" stroke="black" d="M114,-1939.63C114,-1931.82 114,-1922.73 114,-1914.18"/>
<polygon fill="black" stroke="black" points="117.5,-1914.16 114,-1904.16 110.5,-1914.16 117.5,-1914.16"/>
</g>
<!-- 5 -->
<g id="node6" class="node">
<title>5</title>
<polygon fill="#c1ffc1" stroke="transparent" points="217,-1826 11,-1826 11,-1784 217,-1784 217,-1826"/>
<polygon fill="none" stroke="black" points="11,-1784 11,-1826 76,-1826 76,-1784 11,-1784"/>
<text text-anchor="start" x="16" y="-1808" font-family="Linux libertine" font-size="10.00">MaxPool2d</text>
<text text-anchor="start" x="25" y="-1797" font-family="Linux libertine" font-size="10.00">depth:2</text>
<polygon fill="none" stroke="black" points="76,-1805 76,-1826 124,-1826 124,-1805 76,-1805"/>
<text text-anchor="start" x="86" y="-1813" font-family="Linux libertine" font-size="10.00">input:</text>
<polygon fill="none" stroke="black" points="124,-1805 124,-1826 217,-1826 217,-1805 124,-1805"/>
<text text-anchor="start" x="129" y="-1813" font-family="Linux libertine" font-size="10.00">(1, 64, 128, 128) </text>
<polygon fill="none" stroke="black" points="76,-1784 76,-1805 124,-1805 124,-1784 76,-1784"/>
<text text-anchor="start" x="81" y="-1792" font-family="Linux libertine" font-size="10.00">output: </text>
<polygon fill="none" stroke="black" points="124,-1784 124,-1805 217,-1805 217,-1784 124,-1784"/>
<text text-anchor="start" x="135" y="-1792" font-family="Linux libertine" font-size="10.00">(1, 64, 64, 64) </text>
</g>
<!-- 4&#45;&gt;5 -->
<g id="edge5" class="edge">
<title>4&#45;&gt;5</title>
<path fill="none" stroke="black" d="M114,-1861.63C114,-1853.82 114,-1844.73 114,-1836.18"/>
<polygon fill="black" stroke="black" points="117.5,-1836.16 114,-1826.16 110.5,-1836.16 117.5,-1836.16"/>
</g>
<!-- 6 -->
<g id="node7" class="node">
<title>6</title>
<polygon fill="#c1ffc1" stroke="transparent" points="205,-1748 23,-1748 23,-1706 205,-1706 205,-1748"/>
<polygon fill="none" stroke="black" points="23,-1706 23,-1748 70,-1748 70,-1706 23,-1706"/>
<text text-anchor="start" x="28" y="-1730" font-family="Linux libertine" font-size="10.00">Conv2d</text>
<text text-anchor="start" x="28" y="-1719" font-family="Linux libertine" font-size="10.00">depth:2</text>
<polygon fill="none" stroke="black" points="70,-1727 70,-1748 118,-1748 118,-1727 70,-1727"/>
<text text-anchor="start" x="80" y="-1735" font-family="Linux libertine" font-size="10.00">input:</text>
<polygon fill="none" stroke="black" points="118,-1727 118,-1748 205,-1748 205,-1727 118,-1727"/>
<text text-anchor="start" x="126" y="-1735" font-family="Linux libertine" font-size="10.00">(1, 64, 64, 64) </text>
<polygon fill="none" stroke="black" points="70,-1706 70,-1727 118,-1727 118,-1706 70,-1706"/>
<text text-anchor="start" x="75" y="-1714" font-family="Linux libertine" font-size="10.00">output: </text>
<polygon fill="none" stroke="black" points="118,-1706 118,-1727 205,-1727 205,-1706 118,-1706"/>
<text text-anchor="start" x="123" y="-1714" font-family="Linux libertine" font-size="10.00">(1, 128, 64, 64) </text>
</g>
<!-- 5&#45;&gt;6 -->
<g id="edge6" class="edge">
<title>5&#45;&gt;6</title>
<path fill="none" stroke="black" d="M114,-1783.63C114,-1775.82 114,-1766.73 114,-1758.18"/>
<polygon fill="black" stroke="black" points="117.5,-1758.16 114,-1748.16 110.5,-1758.16 117.5,-1758.16"/>
</g>
<!-- 7 -->
<g id="node8" class="node">
<title>7</title>
<polygon fill="#c1ffc1" stroke="transparent" points="205,-1670 23,-1670 23,-1628 205,-1628 205,-1670"/>
<polygon fill="none" stroke="black" points="23,-1628 23,-1670 70,-1670 70,-1628 23,-1628"/>
<text text-anchor="start" x="33.5" y="-1652" font-family="Linux libertine" font-size="10.00">ReLU</text>
<text text-anchor="start" x="28" y="-1641" font-family="Linux libertine" font-size="10.00">depth:2</text>
<polygon fill="none" stroke="black" points="70,-1649 70,-1670 118,-1670 118,-1649 70,-1649"/>
<text text-anchor="start" x="80" y="-1657" font-family="Linux libertine" font-size="10.00">input:</text>
<polygon fill="none" stroke="black" points="118,-1649 118,-1670 205,-1670 205,-1649 118,-1649"/>
<text text-anchor="start" x="123" y="-1657" font-family="Linux libertine" font-size="10.00">(1, 128, 64, 64) </text>
<polygon fill="none" stroke="black" points="70,-1628 70,-1649 118,-1649 118,-1628 70,-1628"/>
<text text-anchor="start" x="75" y="-1636" font-family="Linux libertine" font-size="10.00">output: </text>
<polygon fill="none" stroke="black" points="118,-1628 118,-1649 205,-1649 205,-1628 118,-1628"/>
<text text-anchor="start" x="123" y="-1636" font-family="Linux libertine" font-size="10.00">(1, 128, 64, 64) </text>
</g>
<!-- 6&#45;&gt;7 -->
<g id="edge7" class="edge">
<title>6&#45;&gt;7</title>
<path fill="none" stroke="black" d="M114,-1705.63C114,-1697.82 114,-1688.73 114,-1680.18"/>
<polygon fill="black" stroke="black" points="117.5,-1680.16 114,-1670.16 110.5,-1680.16 117.5,-1680.16"/>
</g>
<!-- 8 -->
<g id="node9" class="node">
<title>8</title>
<polygon fill="#c1ffc1" stroke="transparent" points="205,-1592 23,-1592 23,-1550 205,-1550 205,-1592"/>
<polygon fill="none" stroke="black" points="23,-1550 23,-1592 70,-1592 70,-1550 23,-1550"/>
<text text-anchor="start" x="28" y="-1574" font-family="Linux libertine" font-size="10.00">Conv2d</text>
<text text-anchor="start" x="28" y="-1563" font-family="Linux libertine" font-size="10.00">depth:2</text>
<polygon fill="none" stroke="black" points="70,-1571 70,-1592 118,-1592 118,-1571 70,-1571"/>
<text text-anchor="start" x="80" y="-1579" font-family="Linux libertine" font-size="10.00">input:</text>
<polygon fill="none" stroke="black" points="118,-1571 118,-1592 205,-1592 205,-1571 118,-1571"/>
<text text-anchor="start" x="123" y="-1579" font-family="Linux libertine" font-size="10.00">(1, 128, 64, 64) </text>
<polygon fill="none" stroke="black" points="70,-1550 70,-1571 118,-1571 118,-1550 70,-1550"/>
<text text-anchor="start" x="75" y="-1558" font-family="Linux libertine" font-size="10.00">output: </text>
<polygon fill="none" stroke="black" points="118,-1550 118,-1571 205,-1571 205,-1550 118,-1550"/>
<text text-anchor="start" x="123" y="-1558" font-family="Linux libertine" font-size="10.00">(1, 128, 64, 64) </text>
</g>
<!-- 7&#45;&gt;8 -->
<g id="edge8" class="edge">
<title>7&#45;&gt;8</title>
<path fill="none" stroke="black" d="M114,-1627.63C114,-1619.82 114,-1610.73 114,-1602.18"/>
<polygon fill="black" stroke="black" points="117.5,-1602.16 114,-1592.16 110.5,-1602.16 117.5,-1602.16"/>
</g>
<!-- 9 -->
<g id="node10" class="node">
<title>9</title>
<polygon fill="#c1ffc1" stroke="transparent" points="205,-1514 23,-1514 23,-1472 205,-1472 205,-1514"/>
<polygon fill="none" stroke="black" points="23,-1472 23,-1514 70,-1514 70,-1472 23,-1472"/>
<text text-anchor="start" x="33.5" y="-1496" font-family="Linux libertine" font-size="10.00">ReLU</text>
<text text-anchor="start" x="28" y="-1485" font-family="Linux libertine" font-size="10.00">depth:2</text>
<polygon fill="none" stroke="black" points="70,-1493 70,-1514 118,-1514 118,-1493 70,-1493"/>
<text text-anchor="start" x="80" y="-1501" font-family="Linux libertine" font-size="10.00">input:</text>
<polygon fill="none" stroke="black" points="118,-1493 118,-1514 205,-1514 205,-1493 118,-1493"/>
<text text-anchor="start" x="123" y="-1501" font-family="Linux libertine" font-size="10.00">(1, 128, 64, 64) </text>
<polygon fill="none" stroke="black" points="70,-1472 70,-1493 118,-1493 118,-1472 70,-1472"/>
<text text-anchor="start" x="75" y="-1480" font-family="Linux libertine" font-size="10.00">output: </text>
<polygon fill="none" stroke="black" points="118,-1472 118,-1493 205,-1493 205,-1472 118,-1472"/>
<text text-anchor="start" x="123" y="-1480" font-family="Linux libertine" font-size="10.00">(1, 128, 64, 64) </text>
</g>
<!-- 8&#45;&gt;9 -->
<g id="edge9" class="edge">
<title>8&#45;&gt;9</title>
<path fill="none" stroke="black" d="M114,-1549.63C114,-1541.82 114,-1532.73 114,-1524.18"/>
<polygon fill="black" stroke="black" points="117.5,-1524.16 114,-1514.16 110.5,-1524.16 117.5,-1524.16"/>
</g>
<!-- 10 -->
<g id="node11" class="node">
<title>10</title>
<polygon fill="#c1ffc1" stroke="transparent" points="214,-1436 14,-1436 14,-1394 214,-1394 214,-1436"/>
<polygon fill="none" stroke="black" points="14,-1394 14,-1436 79,-1436 79,-1394 14,-1394"/>
<text text-anchor="start" x="19" y="-1418" font-family="Linux libertine" font-size="10.00">MaxPool2d</text>
<text text-anchor="start" x="28" y="-1407" font-family="Linux libertine" font-size="10.00">depth:2</text>
<polygon fill="none" stroke="black" points="79,-1415 79,-1436 127,-1436 127,-1415 79,-1415"/>
<text text-anchor="start" x="89" y="-1423" font-family="Linux libertine" font-size="10.00">input:</text>
<polygon fill="none" stroke="black" points="127,-1415 127,-1436 214,-1436 214,-1415 127,-1415"/>
<text text-anchor="start" x="132" y="-1423" font-family="Linux libertine" font-size="10.00">(1, 128, 64, 64) </text>
<polygon fill="none" stroke="black" points="79,-1394 79,-1415 127,-1415 127,-1394 79,-1394"/>
<text text-anchor="start" x="84" y="-1402" font-family="Linux libertine" font-size="10.00">output: </text>
<polygon fill="none" stroke="black" points="127,-1394 127,-1415 214,-1415 214,-1394 127,-1394"/>
<text text-anchor="start" x="132" y="-1402" font-family="Linux libertine" font-size="10.00">(1, 128, 32, 32) </text>
</g>
<!-- 9&#45;&gt;10 -->
<g id="edge10" class="edge">
<title>9&#45;&gt;10</title>
<path fill="none" stroke="black" d="M114,-1471.63C114,-1463.82 114,-1454.73 114,-1446.18"/>
<polygon fill="black" stroke="black" points="117.5,-1446.16 114,-1436.16 110.5,-1446.16 117.5,-1446.16"/>
</g>
<!-- 11 -->
<g id="node12" class="node">
<title>11</title>
<polygon fill="#c1ffc1" stroke="transparent" points="205,-1358 23,-1358 23,-1316 205,-1316 205,-1358"/>
<polygon fill="none" stroke="black" points="23,-1316 23,-1358 70,-1358 70,-1316 23,-1316"/>
<text text-anchor="start" x="28" y="-1340" font-family="Linux libertine" font-size="10.00">Conv2d</text>
<text text-anchor="start" x="28" y="-1329" font-family="Linux libertine" font-size="10.00">depth:2</text>
<polygon fill="none" stroke="black" points="70,-1337 70,-1358 118,-1358 118,-1337 70,-1337"/>
<text text-anchor="start" x="80" y="-1345" font-family="Linux libertine" font-size="10.00">input:</text>
<polygon fill="none" stroke="black" points="118,-1337 118,-1358 205,-1358 205,-1337 118,-1337"/>
<text text-anchor="start" x="123" y="-1345" font-family="Linux libertine" font-size="10.00">(1, 128, 32, 32) </text>
<polygon fill="none" stroke="black" points="70,-1316 70,-1337 118,-1337 118,-1316 70,-1316"/>
<text text-anchor="start" x="75" y="-1324" font-family="Linux libertine" font-size="10.00">output: </text>
<polygon fill="none" stroke="black" points="118,-1316 118,-1337 205,-1337 205,-1316 118,-1316"/>
<text text-anchor="start" x="123" y="-1324" font-family="Linux libertine" font-size="10.00">(1, 256, 32, 32) </text>
</g>
<!-- 10&#45;&gt;11 -->
<g id="edge11" class="edge">
<title>10&#45;&gt;11</title>
<path fill="none" stroke="black" d="M114,-1393.63C114,-1385.82 114,-1376.73 114,-1368.18"/>
<polygon fill="black" stroke="black" points="117.5,-1368.16 114,-1358.16 110.5,-1368.16 117.5,-1368.16"/>
</g>
<!-- 12 -->
<g id="node13" class="node">
<title>12</title>
<polygon fill="#c1ffc1" stroke="transparent" points="205,-1280 23,-1280 23,-1238 205,-1238 205,-1280"/>
<polygon fill="none" stroke="black" points="23,-1238 23,-1280 70,-1280 70,-1238 23,-1238"/>
<text text-anchor="start" x="33.5" y="-1262" font-family="Linux libertine" font-size="10.00">ReLU</text>
<text text-anchor="start" x="28" y="-1251" font-family="Linux libertine" font-size="10.00">depth:2</text>
<polygon fill="none" stroke="black" points="70,-1259 70,-1280 118,-1280 118,-1259 70,-1259"/>
<text text-anchor="start" x="80" y="-1267" font-family="Linux libertine" font-size="10.00">input:</text>
<polygon fill="none" stroke="black" points="118,-1259 118,-1280 205,-1280 205,-1259 118,-1259"/>
<text text-anchor="start" x="123" y="-1267" font-family="Linux libertine" font-size="10.00">(1, 256, 32, 32) </text>
<polygon fill="none" stroke="black" points="70,-1238 70,-1259 118,-1259 118,-1238 70,-1238"/>
<text text-anchor="start" x="75" y="-1246" font-family="Linux libertine" font-size="10.00">output: </text>
<polygon fill="none" stroke="black" points="118,-1238 118,-1259 205,-1259 205,-1238 118,-1238"/>
<text text-anchor="start" x="123" y="-1246" font-family="Linux libertine" font-size="10.00">(1, 256, 32, 32) </text>
</g>
<!-- 11&#45;&gt;12 -->
<g id="edge12" class="edge">
<title>11&#45;&gt;12</title>
<path fill="none" stroke="black" d="M114,-1315.63C114,-1307.82 114,-1298.73 114,-1290.18"/>
<polygon fill="black" stroke="black" points="117.5,-1290.16 114,-1280.16 110.5,-1290.16 117.5,-1290.16"/>
</g>
<!-- 13 -->
<g id="node14" class="node">
<title>13</title>
<polygon fill="#c1ffc1" stroke="transparent" points="205,-1202 23,-1202 23,-1160 205,-1160 205,-1202"/>
<polygon fill="none" stroke="black" points="23,-1160 23,-1202 70,-1202 70,-1160 23,-1160"/>
<text text-anchor="start" x="28" y="-1184" font-family="Linux libertine" font-size="10.00">Conv2d</text>
<text text-anchor="start" x="28" y="-1173" font-family="Linux libertine" font-size="10.00">depth:2</text>
<polygon fill="none" stroke="black" points="70,-1181 70,-1202 118,-1202 118,-1181 70,-1181"/>
<text text-anchor="start" x="80" y="-1189" font-family="Linux libertine" font-size="10.00">input:</text>
<polygon fill="none" stroke="black" points="118,-1181 118,-1202 205,-1202 205,-1181 118,-1181"/>
<text text-anchor="start" x="123" y="-1189" font-family="Linux libertine" font-size="10.00">(1, 256, 32, 32) </text>
<polygon fill="none" stroke="black" points="70,-1160 70,-1181 118,-1181 118,-1160 70,-1160"/>
<text text-anchor="start" x="75" y="-1168" font-family="Linux libertine" font-size="10.00">output: </text>
<polygon fill="none" stroke="black" points="118,-1160 118,-1181 205,-1181 205,-1160 118,-1160"/>
<text text-anchor="start" x="123" y="-1168" font-family="Linux libertine" font-size="10.00">(1, 256, 32, 32) </text>
</g>
<!-- 12&#45;&gt;13 -->
<g id="edge13" class="edge">
<title>12&#45;&gt;13</title>
<path fill="none" stroke="black" d="M114,-1237.63C114,-1229.82 114,-1220.73 114,-1212.18"/>
<polygon fill="black" stroke="black" points="117.5,-1212.16 114,-1202.16 110.5,-1212.16 117.5,-1212.16"/>
</g>
<!-- 14 -->
<g id="node15" class="node">
<title>14</title>
<polygon fill="#c1ffc1" stroke="transparent" points="205,-1124 23,-1124 23,-1082 205,-1082 205,-1124"/>
<polygon fill="none" stroke="black" points="23,-1082 23,-1124 70,-1124 70,-1082 23,-1082"/>
<text text-anchor="start" x="33.5" y="-1106" font-family="Linux libertine" font-size="10.00">ReLU</text>
<text text-anchor="start" x="28" y="-1095" font-family="Linux libertine" font-size="10.00">depth:2</text>
<polygon fill="none" stroke="black" points="70,-1103 70,-1124 118,-1124 118,-1103 70,-1103"/>
<text text-anchor="start" x="80" y="-1111" font-family="Linux libertine" font-size="10.00">input:</text>
<polygon fill="none" stroke="black" points="118,-1103 118,-1124 205,-1124 205,-1103 118,-1103"/>
<text text-anchor="start" x="123" y="-1111" font-family="Linux libertine" font-size="10.00">(1, 256, 32, 32) </text>
<polygon fill="none" stroke="black" points="70,-1082 70,-1103 118,-1103 118,-1082 70,-1082"/>
<text text-anchor="start" x="75" y="-1090" font-family="Linux libertine" font-size="10.00">output: </text>
<polygon fill="none" stroke="black" points="118,-1082 118,-1103 205,-1103 205,-1082 118,-1082"/>
<text text-anchor="start" x="123" y="-1090" font-family="Linux libertine" font-size="10.00">(1, 256, 32, 32) </text>
</g>
<!-- 13&#45;&gt;14 -->
<g id="edge14" class="edge">
<title>13&#45;&gt;14</title>
<path fill="none" stroke="black" d="M114,-1159.63C114,-1151.82 114,-1142.73 114,-1134.18"/>
<polygon fill="black" stroke="black" points="117.5,-1134.16 114,-1124.16 110.5,-1134.16 117.5,-1134.16"/>
</g>
<!-- 15 -->
<g id="node16" class="node">
<title>15</title>
<polygon fill="#c1ffc1" stroke="transparent" points="214,-1046 14,-1046 14,-1004 214,-1004 214,-1046"/>
<polygon fill="none" stroke="black" points="14,-1004 14,-1046 79,-1046 79,-1004 14,-1004"/>
<text text-anchor="start" x="19" y="-1028" font-family="Linux libertine" font-size="10.00">MaxPool2d</text>
<text text-anchor="start" x="28" y="-1017" font-family="Linux libertine" font-size="10.00">depth:2</text>
<polygon fill="none" stroke="black" points="79,-1025 79,-1046 127,-1046 127,-1025 79,-1025"/>
<text text-anchor="start" x="89" y="-1033" font-family="Linux libertine" font-size="10.00">input:</text>
<polygon fill="none" stroke="black" points="127,-1025 127,-1046 214,-1046 214,-1025 127,-1025"/>
<text text-anchor="start" x="132" y="-1033" font-family="Linux libertine" font-size="10.00">(1, 256, 32, 32) </text>
<polygon fill="none" stroke="black" points="79,-1004 79,-1025 127,-1025 127,-1004 79,-1004"/>
<text text-anchor="start" x="84" y="-1012" font-family="Linux libertine" font-size="10.00">output: </text>
<polygon fill="none" stroke="black" points="127,-1004 127,-1025 214,-1025 214,-1004 127,-1004"/>
<text text-anchor="start" x="132" y="-1012" font-family="Linux libertine" font-size="10.00">(1, 256, 16, 16) </text>
</g>
<!-- 14&#45;&gt;15 -->
<g id="edge15" class="edge">
<title>14&#45;&gt;15</title>
<path fill="none" stroke="black" d="M114,-1081.63C114,-1073.82 114,-1064.73 114,-1056.18"/>
<polygon fill="black" stroke="black" points="117.5,-1056.16 114,-1046.16 110.5,-1056.16 117.5,-1056.16"/>
</g>
<!-- 16 -->
<g id="node17" class="node">
<title>16</title>
<polygon fill="#c1ffc1" stroke="transparent" points="205,-968 23,-968 23,-926 205,-926 205,-968"/>
<polygon fill="none" stroke="black" points="23,-926 23,-968 70,-968 70,-926 23,-926"/>
<text text-anchor="start" x="28" y="-950" font-family="Linux libertine" font-size="10.00">Conv2d</text>
<text text-anchor="start" x="28" y="-939" font-family="Linux libertine" font-size="10.00">depth:2</text>
<polygon fill="none" stroke="black" points="70,-947 70,-968 118,-968 118,-947 70,-947"/>
<text text-anchor="start" x="80" y="-955" font-family="Linux libertine" font-size="10.00">input:</text>
<polygon fill="none" stroke="black" points="118,-947 118,-968 205,-968 205,-947 118,-947"/>
<text text-anchor="start" x="123" y="-955" font-family="Linux libertine" font-size="10.00">(1, 256, 16, 16) </text>
<polygon fill="none" stroke="black" points="70,-926 70,-947 118,-947 118,-926 70,-926"/>
<text text-anchor="start" x="75" y="-934" font-family="Linux libertine" font-size="10.00">output: </text>
<polygon fill="none" stroke="black" points="118,-926 118,-947 205,-947 205,-926 118,-926"/>
<text text-anchor="start" x="123" y="-934" font-family="Linux libertine" font-size="10.00">(1, 512, 16, 16) </text>
</g>
<!-- 15&#45;&gt;16 -->
<g id="edge16" class="edge">
<title>15&#45;&gt;16</title>
<path fill="none" stroke="black" d="M114,-1003.63C114,-995.82 114,-986.73 114,-978.18"/>
<polygon fill="black" stroke="black" points="117.5,-978.16 114,-968.16 110.5,-978.16 117.5,-978.16"/>
</g>
<!-- 17 -->
<g id="node18" class="node">
<title>17</title>
<polygon fill="#c1ffc1" stroke="transparent" points="205,-890 23,-890 23,-848 205,-848 205,-890"/>
<polygon fill="none" stroke="black" points="23,-848 23,-890 70,-890 70,-848 23,-848"/>
<text text-anchor="start" x="33.5" y="-872" font-family="Linux libertine" font-size="10.00">ReLU</text>
<text text-anchor="start" x="28" y="-861" font-family="Linux libertine" font-size="10.00">depth:2</text>
<polygon fill="none" stroke="black" points="70,-869 70,-890 118,-890 118,-869 70,-869"/>
<text text-anchor="start" x="80" y="-877" font-family="Linux libertine" font-size="10.00">input:</text>
<polygon fill="none" stroke="black" points="118,-869 118,-890 205,-890 205,-869 118,-869"/>
<text text-anchor="start" x="123" y="-877" font-family="Linux libertine" font-size="10.00">(1, 512, 16, 16) </text>
<polygon fill="none" stroke="black" points="70,-848 70,-869 118,-869 118,-848 70,-848"/>
<text text-anchor="start" x="75" y="-856" font-family="Linux libertine" font-size="10.00">output: </text>
<polygon fill="none" stroke="black" points="118,-848 118,-869 205,-869 205,-848 118,-848"/>
<text text-anchor="start" x="123" y="-856" font-family="Linux libertine" font-size="10.00">(1, 512, 16, 16) </text>
</g>
<!-- 16&#45;&gt;17 -->
<g id="edge17" class="edge">
<title>16&#45;&gt;17</title>
<path fill="none" stroke="black" d="M114,-925.63C114,-917.82 114,-908.73 114,-900.18"/>
<polygon fill="black" stroke="black" points="117.5,-900.16 114,-890.16 110.5,-900.16 117.5,-900.16"/>
</g>
<!-- 18 -->
<g id="node19" class="node">
<title>18</title>
<polygon fill="#c1ffc1" stroke="transparent" points="205,-812 23,-812 23,-770 205,-770 205,-812"/>
<polygon fill="none" stroke="black" points="23,-770 23,-812 70,-812 70,-770 23,-770"/>
<text text-anchor="start" x="28" y="-794" font-family="Linux libertine" font-size="10.00">Conv2d</text>
<text text-anchor="start" x="28" y="-783" font-family="Linux libertine" font-size="10.00">depth:2</text>
<polygon fill="none" stroke="black" points="70,-791 70,-812 118,-812 118,-791 70,-791"/>
<text text-anchor="start" x="80" y="-799" font-family="Linux libertine" font-size="10.00">input:</text>
<polygon fill="none" stroke="black" points="118,-791 118,-812 205,-812 205,-791 118,-791"/>
<text text-anchor="start" x="123" y="-799" font-family="Linux libertine" font-size="10.00">(1, 512, 16, 16) </text>
<polygon fill="none" stroke="black" points="70,-770 70,-791 118,-791 118,-770 70,-770"/>
<text text-anchor="start" x="75" y="-778" font-family="Linux libertine" font-size="10.00">output: </text>
<polygon fill="none" stroke="black" points="118,-770 118,-791 205,-791 205,-770 118,-770"/>
<text text-anchor="start" x="123" y="-778" font-family="Linux libertine" font-size="10.00">(1, 512, 16, 16) </text>
</g>
<!-- 17&#45;&gt;18 -->
<g id="edge18" class="edge">
<title>17&#45;&gt;18</title>
<path fill="none" stroke="black" d="M114,-847.63C114,-839.82 114,-830.73 114,-822.18"/>
<polygon fill="black" stroke="black" points="117.5,-822.16 114,-812.16 110.5,-822.16 117.5,-822.16"/>
</g>
<!-- 19 -->
<g id="node20" class="node">
<title>19</title>
<polygon fill="#c1ffc1" stroke="transparent" points="205,-734 23,-734 23,-692 205,-692 205,-734"/>
<polygon fill="none" stroke="black" points="23,-692 23,-734 70,-734 70,-692 23,-692"/>
<text text-anchor="start" x="33.5" y="-716" font-family="Linux libertine" font-size="10.00">ReLU</text>
<text text-anchor="start" x="28" y="-705" font-family="Linux libertine" font-size="10.00">depth:2</text>
<polygon fill="none" stroke="black" points="70,-713 70,-734 118,-734 118,-713 70,-713"/>
<text text-anchor="start" x="80" y="-721" font-family="Linux libertine" font-size="10.00">input:</text>
<polygon fill="none" stroke="black" points="118,-713 118,-734 205,-734 205,-713 118,-713"/>
<text text-anchor="start" x="123" y="-721" font-family="Linux libertine" font-size="10.00">(1, 512, 16, 16) </text>
<polygon fill="none" stroke="black" points="70,-692 70,-713 118,-713 118,-692 70,-692"/>
<text text-anchor="start" x="75" y="-700" font-family="Linux libertine" font-size="10.00">output: </text>
<polygon fill="none" stroke="black" points="118,-692 118,-713 205,-713 205,-692 118,-692"/>
<text text-anchor="start" x="123" y="-700" font-family="Linux libertine" font-size="10.00">(1, 512, 16, 16) </text>
</g>
<!-- 18&#45;&gt;19 -->
<g id="edge19" class="edge">
<title>18&#45;&gt;19</title>
<path fill="none" stroke="black" d="M114,-769.63C114,-761.82 114,-752.73 114,-744.18"/>
<polygon fill="black" stroke="black" points="117.5,-744.16 114,-734.16 110.5,-744.16 117.5,-744.16"/>
</g>
<!-- 20 -->
<g id="node21" class="node">
<title>20</title>
<polygon fill="#c1ffc1" stroke="transparent" points="214,-656 14,-656 14,-614 214,-614 214,-656"/>
<polygon fill="none" stroke="black" points="14,-614 14,-656 79,-656 79,-614 14,-614"/>
<text text-anchor="start" x="19" y="-638" font-family="Linux libertine" font-size="10.00">MaxPool2d</text>
<text text-anchor="start" x="28" y="-627" font-family="Linux libertine" font-size="10.00">depth:2</text>
<polygon fill="none" stroke="black" points="79,-635 79,-656 127,-656 127,-635 79,-635"/>
<text text-anchor="start" x="89" y="-643" font-family="Linux libertine" font-size="10.00">input:</text>
<polygon fill="none" stroke="black" points="127,-635 127,-656 214,-656 214,-635 127,-635"/>
<text text-anchor="start" x="132" y="-643" font-family="Linux libertine" font-size="10.00">(1, 512, 16, 16) </text>
<polygon fill="none" stroke="black" points="79,-614 79,-635 127,-635 127,-614 79,-614"/>
<text text-anchor="start" x="84" y="-622" font-family="Linux libertine" font-size="10.00">output: </text>
<polygon fill="none" stroke="black" points="127,-614 127,-635 214,-635 214,-614 127,-614"/>
<text text-anchor="start" x="138" y="-622" font-family="Linux libertine" font-size="10.00">(1, 512, 8, 8) </text>
</g>
<!-- 19&#45;&gt;20 -->
<g id="edge20" class="edge">
<title>19&#45;&gt;20</title>
<path fill="none" stroke="black" d="M114,-691.63C114,-683.82 114,-674.73 114,-666.18"/>
<polygon fill="black" stroke="black" points="117.5,-666.16 114,-656.16 110.5,-666.16 117.5,-666.16"/>
</g>
<!-- 21 -->
<g id="node22" class="node">
<title>21</title>
<polygon fill="#c1ffc1" stroke="transparent" points="199,-578 29,-578 29,-536 199,-536 199,-578"/>
<polygon fill="none" stroke="black" points="29,-536 29,-578 76,-578 76,-536 29,-536"/>
<text text-anchor="start" x="34" y="-560" font-family="Linux libertine" font-size="10.00">Conv2d</text>
<text text-anchor="start" x="34" y="-549" font-family="Linux libertine" font-size="10.00">depth:2</text>
<polygon fill="none" stroke="black" points="76,-557 76,-578 124,-578 124,-557 76,-557"/>
<text text-anchor="start" x="86" y="-565" font-family="Linux libertine" font-size="10.00">input:</text>
<polygon fill="none" stroke="black" points="124,-557 124,-578 199,-578 199,-557 124,-557"/>
<text text-anchor="start" x="129" y="-565" font-family="Linux libertine" font-size="10.00">(1, 512, 8, 8) </text>
<polygon fill="none" stroke="black" points="76,-536 76,-557 124,-557 124,-536 76,-536"/>
<text text-anchor="start" x="81" y="-544" font-family="Linux libertine" font-size="10.00">output: </text>
<polygon fill="none" stroke="black" points="124,-536 124,-557 199,-557 199,-536 124,-536"/>
<text text-anchor="start" x="129" y="-544" font-family="Linux libertine" font-size="10.00">(1, 512, 8, 8) </text>
</g>
<!-- 20&#45;&gt;21 -->
<g id="edge21" class="edge">
<title>20&#45;&gt;21</title>
<path fill="none" stroke="black" d="M114,-613.63C114,-605.82 114,-596.73 114,-588.18"/>
<polygon fill="black" stroke="black" points="117.5,-588.16 114,-578.16 110.5,-588.16 117.5,-588.16"/>
</g>
<!-- 22 -->
<g id="node23" class="node">
<title>22</title>
<polygon fill="#c1ffc1" stroke="transparent" points="199,-500 29,-500 29,-458 199,-458 199,-500"/>
<polygon fill="none" stroke="black" points="29,-458 29,-500 76,-500 76,-458 29,-458"/>
<text text-anchor="start" x="39.5" y="-482" font-family="Linux libertine" font-size="10.00">ReLU</text>
<text text-anchor="start" x="34" y="-471" font-family="Linux libertine" font-size="10.00">depth:2</text>
<polygon fill="none" stroke="black" points="76,-479 76,-500 124,-500 124,-479 76,-479"/>
<text text-anchor="start" x="86" y="-487" font-family="Linux libertine" font-size="10.00">input:</text>
<polygon fill="none" stroke="black" points="124,-479 124,-500 199,-500 199,-479 124,-479"/>
<text text-anchor="start" x="129" y="-487" font-family="Linux libertine" font-size="10.00">(1, 512, 8, 8) </text>
<polygon fill="none" stroke="black" points="76,-458 76,-479 124,-479 124,-458 76,-458"/>
<text text-anchor="start" x="81" y="-466" font-family="Linux libertine" font-size="10.00">output: </text>
<polygon fill="none" stroke="black" points="124,-458 124,-479 199,-479 199,-458 124,-458"/>
<text text-anchor="start" x="129" y="-466" font-family="Linux libertine" font-size="10.00">(1, 512, 8, 8) </text>
</g>
<!-- 21&#45;&gt;22 -->
<g id="edge22" class="edge">
<title>21&#45;&gt;22</title>
<path fill="none" stroke="black" d="M114,-535.63C114,-527.82 114,-518.73 114,-510.18"/>
<polygon fill="black" stroke="black" points="117.5,-510.16 114,-500.16 110.5,-510.16 117.5,-510.16"/>
</g>
<!-- 23 -->
<g id="node24" class="node">
<title>23</title>
<polygon fill="#c1ffc1" stroke="transparent" points="199,-422 29,-422 29,-380 199,-380 199,-422"/>
<polygon fill="none" stroke="black" points="29,-380 29,-422 76,-422 76,-380 29,-380"/>
<text text-anchor="start" x="34" y="-404" font-family="Linux libertine" font-size="10.00">Conv2d</text>
<text text-anchor="start" x="34" y="-393" font-family="Linux libertine" font-size="10.00">depth:2</text>
<polygon fill="none" stroke="black" points="76,-401 76,-422 124,-422 124,-401 76,-401"/>
<text text-anchor="start" x="86" y="-409" font-family="Linux libertine" font-size="10.00">input:</text>
<polygon fill="none" stroke="black" points="124,-401 124,-422 199,-422 199,-401 124,-401"/>
<text text-anchor="start" x="129" y="-409" font-family="Linux libertine" font-size="10.00">(1, 512, 8, 8) </text>
<polygon fill="none" stroke="black" points="76,-380 76,-401 124,-401 124,-380 76,-380"/>
<text text-anchor="start" x="81" y="-388" font-family="Linux libertine" font-size="10.00">output: </text>
<polygon fill="none" stroke="black" points="124,-380 124,-401 199,-401 199,-380 124,-380"/>
<text text-anchor="start" x="129" y="-388" font-family="Linux libertine" font-size="10.00">(1, 512, 8, 8) </text>
</g>
<!-- 22&#45;&gt;23 -->
<g id="edge23" class="edge">
<title>22&#45;&gt;23</title>
<path fill="none" stroke="black" d="M114,-457.63C114,-449.82 114,-440.73 114,-432.18"/>
<polygon fill="black" stroke="black" points="117.5,-432.16 114,-422.16 110.5,-432.16 117.5,-432.16"/>
</g>
<!-- 24 -->
<g id="node25" class="node">
<title>24</title>
<polygon fill="#c1ffc1" stroke="transparent" points="199,-344 29,-344 29,-302 199,-302 199,-344"/>
<polygon fill="none" stroke="black" points="29,-302 29,-344 76,-344 76,-302 29,-302"/>
<text text-anchor="start" x="39.5" y="-326" font-family="Linux libertine" font-size="10.00">ReLU</text>
<text text-anchor="start" x="34" y="-315" font-family="Linux libertine" font-size="10.00">depth:2</text>
<polygon fill="none" stroke="black" points="76,-323 76,-344 124,-344 124,-323 76,-323"/>
<text text-anchor="start" x="86" y="-331" font-family="Linux libertine" font-size="10.00">input:</text>
<polygon fill="none" stroke="black" points="124,-323 124,-344 199,-344 199,-323 124,-323"/>
<text text-anchor="start" x="129" y="-331" font-family="Linux libertine" font-size="10.00">(1, 512, 8, 8) </text>
<polygon fill="none" stroke="black" points="76,-302 76,-323 124,-323 124,-302 76,-302"/>
<text text-anchor="start" x="81" y="-310" font-family="Linux libertine" font-size="10.00">output: </text>
<polygon fill="none" stroke="black" points="124,-302 124,-323 199,-323 199,-302 124,-302"/>
<text text-anchor="start" x="129" y="-310" font-family="Linux libertine" font-size="10.00">(1, 512, 8, 8) </text>
</g>
<!-- 23&#45;&gt;24 -->
<g id="edge24" class="edge">
<title>23&#45;&gt;24</title>
<path fill="none" stroke="black" d="M114,-379.63C114,-371.82 114,-362.73 114,-354.18"/>
<polygon fill="black" stroke="black" points="117.5,-354.16 114,-344.16 110.5,-354.16 117.5,-354.16"/>
</g>
<!-- 25 -->
<g id="node26" class="node">
<title>25</title>
<polygon fill="#c1ffc1" stroke="transparent" points="208,-266 20,-266 20,-224 208,-224 208,-266"/>
<polygon fill="none" stroke="black" points="20,-224 20,-266 85,-266 85,-224 20,-224"/>
<text text-anchor="start" x="25" y="-248" font-family="Linux libertine" font-size="10.00">MaxPool2d</text>
<text text-anchor="start" x="34" y="-237" font-family="Linux libertine" font-size="10.00">depth:2</text>
<polygon fill="none" stroke="black" points="85,-245 85,-266 133,-266 133,-245 85,-245"/>
<text text-anchor="start" x="95" y="-253" font-family="Linux libertine" font-size="10.00">input:</text>
<polygon fill="none" stroke="black" points="133,-245 133,-266 208,-266 208,-245 133,-245"/>
<text text-anchor="start" x="138" y="-253" font-family="Linux libertine" font-size="10.00">(1, 512, 8, 8) </text>
<polygon fill="none" stroke="black" points="85,-224 85,-245 133,-245 133,-224 85,-224"/>
<text text-anchor="start" x="90" y="-232" font-family="Linux libertine" font-size="10.00">output: </text>
<polygon fill="none" stroke="black" points="133,-224 133,-245 208,-245 208,-224 133,-224"/>
<text text-anchor="start" x="138" y="-232" font-family="Linux libertine" font-size="10.00">(1, 512, 4, 4) </text>
</g>
<!-- 24&#45;&gt;25 -->
<g id="edge25" class="edge">
<title>24&#45;&gt;25</title>
<path fill="none" stroke="black" d="M114,-301.63C114,-293.82 114,-284.73 114,-276.18"/>
<polygon fill="black" stroke="black" points="117.5,-276.16 114,-266.16 110.5,-276.16 117.5,-276.16"/>
</g>
<!-- 26 -->
<g id="node27" class="node">
<title>26</title>
<polygon fill="#c1ffc1" stroke="transparent" points="228,-188 0,-188 0,-146 228,-146 228,-188"/>
<polygon fill="none" stroke="black" points="0,-146 0,-188 105,-188 105,-146 0,-146"/>
<text text-anchor="start" x="5" y="-170" font-family="Linux libertine" font-size="10.00">AdaptiveAvgPool2d</text>
<text text-anchor="start" x="34" y="-159" font-family="Linux libertine" font-size="10.00">depth:1</text>
<polygon fill="none" stroke="black" points="105,-167 105,-188 153,-188 153,-167 105,-167"/>
<text text-anchor="start" x="115" y="-175" font-family="Linux libertine" font-size="10.00">input:</text>
<polygon fill="none" stroke="black" points="153,-167 153,-188 228,-188 228,-167 153,-167"/>
<text text-anchor="start" x="158" y="-175" font-family="Linux libertine" font-size="10.00">(1, 512, 4, 4) </text>
<polygon fill="none" stroke="black" points="105,-146 105,-167 153,-167 153,-146 105,-146"/>
<text text-anchor="start" x="110" y="-154" font-family="Linux libertine" font-size="10.00">output: </text>
<polygon fill="none" stroke="black" points="153,-146 153,-167 228,-167 228,-146 153,-146"/>
<text text-anchor="start" x="158" y="-154" font-family="Linux libertine" font-size="10.00">(1, 512, 1, 1) </text>
</g>
<!-- 25&#45;&gt;26 -->
<g id="edge26" class="edge">
<title>25&#45;&gt;26</title>
<path fill="none" stroke="black" d="M114,-223.63C114,-215.82 114,-206.73 114,-198.18"/>
<polygon fill="black" stroke="black" points="117.5,-198.16 114,-188.16 110.5,-198.16 117.5,-198.16"/>
</g>
<!-- 27 -->
<g id="node28" class="node">
<title>27</title>
<polygon fill="#c1ffc1" stroke="transparent" points="199,-110 29,-110 29,-68 199,-68 199,-110"/>
<polygon fill="none" stroke="black" points="29,-68 29,-110 76,-110 76,-68 29,-68"/>
<text text-anchor="start" x="35" y="-92" font-family="Linux libertine" font-size="10.00">Flatten</text>
<text text-anchor="start" x="34" y="-81" font-family="Linux libertine" font-size="10.00">depth:1</text>
<polygon fill="none" stroke="black" points="76,-89 76,-110 124,-110 124,-89 76,-89"/>
<text text-anchor="start" x="86" y="-97" font-family="Linux libertine" font-size="10.00">input:</text>
<polygon fill="none" stroke="black" points="124,-89 124,-110 199,-110 199,-89 124,-89"/>
<text text-anchor="start" x="129" y="-97" font-family="Linux libertine" font-size="10.00">(1, 512, 1, 1) </text>
<polygon fill="none" stroke="black" points="76,-68 76,-89 124,-89 124,-68 76,-68"/>
<text text-anchor="start" x="81" y="-76" font-family="Linux libertine" font-size="10.00">output: </text>
<polygon fill="none" stroke="black" points="124,-68 124,-89 199,-89 199,-68 124,-68"/>
<text text-anchor="start" x="141" y="-76" font-family="Linux libertine" font-size="10.00">(1, 512) </text>
</g>
<!-- 26&#45;&gt;27 -->
<g id="edge27" class="edge">
<title>26&#45;&gt;27</title>
<path fill="none" stroke="black" d="M114,-145.63C114,-137.82 114,-128.73 114,-120.18"/>
<polygon fill="black" stroke="black" points="117.5,-120.16 114,-110.16 110.5,-120.16 117.5,-120.16"/>
</g>
<!-- 28 -->
<g id="node29" class="node">
<title>28</title>
<polygon fill="lightyellow" stroke="transparent" points="176.5,-32 51.5,-32 51.5,0 176.5,0 176.5,-32"/>
<polygon fill="none" stroke="black" points="52,0 52,-32 129,-32 129,0 52,0"/>
<text text-anchor="start" x="57" y="-19" font-family="Linux libertine" font-size="10.00">output&#45;tensor</text>
<text text-anchor="start" x="72" y="-8" font-family="Linux libertine" font-size="10.00">depth:0</text>
<polygon fill="none" stroke="black" points="129,0 129,-32 177,-32 177,0 129,0"/>
<text text-anchor="start" x="134" y="-13.5" font-family="Linux libertine" font-size="10.00">(1, 512)</text>
</g>
<!-- 27&#45;&gt;28 -->
<g id="edge28" class="edge">
<title>27&#45;&gt;28</title>
<path fill="none" stroke="black" d="M114,-67.84C114,-59.89 114,-50.66 114,-42.26"/>
<polygon fill="black" stroke="black" points="117.5,-42.24 114,-32.24 110.5,-42.24 117.5,-42.24"/>
</g>
</g>
</svg>
